<svg xmlns="http://www.w3.org/2000/svg" xml:space="preserve" width="6000" height="4000" style="enable-background:new 0 0 6000 4000"><path d="M0 0h5994.9c3.3 5.3 4.5 9.8 4.7 16 2.6 56.3.4 113.5.4 170v3646.7c0 31 4.6 133-.8 157.1-.9 3.8-2.3 7-4.3 10.2H0V0z" style="fill:#fefefe"></path><path d="m2475.4 621.1 9.6-.6a45.3 45.3 0 0 1 34 13.5 36 36 0 0 1 8.8 29.5c-1.9 18-13.3 27.2-26.5 37.6-4.2.2-8.4.3-12.6-.1-12.7-1.2-24.9-8-32.4-18.5-6.3-8.8-8.2-19.9-6-30.5 3.3-15.1 13.2-22.7 25-30.9z" style="fill:#f78546"></path><path d="M4935 731.1c14.6 1.3 105.4 59.6 116.2 71.6 4.3 4.7 4.6 5.2 4.5 11.6l-6.6 5.1c-16.5 11-91.6 7.5-115 7.8 13-21.5 3.4-71 .8-96z" style="fill:#325cba"></path><path d="M743.8 3225.2a649.1 649.1 0 0 0 25.8 117.4c2 6.3 5.9 14.5 5.7 21.1-61.5-28.6-122.7-64.8-174.4-108.9 48-6 95.7-18.8 142.9-29.6z" style="fill:#f1724d"></path><path d="m1317.4 685.6 314.5-.5c.4 20.2 3 42-2.6 61.6a29.5 29.5 0 0 1-13.9 8.2c-30.7-7.2-104.8-2-139.2-1.2l-152-.7c-14-20-6.8-44.1-6.8-67.4z" style="fill:#217fcd"></path><path d="M723.5 764.1c97-42 193.4-85.2 291.1-125.5a8390 8390 0 0 1 40.1 87.7c-97.8 42.4-194.5 90.3-293.2 130-10.4-31.7-24-62-38-92.2z" style="fill:#fac356"></path><path d="M458.4 3112.7c61.8 1.4 125.5-6.9 187-12.5 26.6-2.5 57.1-7.9 83.5-5.2 8.9 1 16.9 4.8 24.8 8.6-6 35.6-12.7 71.7-9 108l-1 13.6c-47.1 10.8-94.8 23.5-142.8 29.6l-3-2.6c-51.3-38-99.2-90-139.5-139.5z" style="fill:#f78546"></path><path d="m598 3252.2.6-3.9c9.5-12 122-31.6 146-36.7l-.8 13.6c-47.2 10.8-94.9 23.5-143 29.6l-2.9-2.6z" style="fill:#ee642d"></path><path d="M5455 2754.5c22-6.7 64.5-38.6 87.5-51.2a925.7 925.7 0 0 1 196-78.4l2.2 2.2-5 7.8 2.4 9.6-5.6 7.4c8.5 20.5-11.6 79.2-18.6 101l-3.6 1.3a39.2 39.2 0 0 0-10 5.6l8.8 1.6c4.2 36.4-70 197.3-95.1 226.8-1.2 1.4-3 3-4.2 4.1-5.2 17.6-31.8 56.9-47 66.1-43.8 7.5-87.5 15.9-131 25.1-31.4 6.8-70.9 21.2-102.7 20 4-7.5 3.3-9.3 2.7-17.6-4.3-3.6-10.6-6.5-15.5-9.4 16.5-16.7 82.3-86 84-104.6 6.2-10.4 39-172.7 37.6-179.5-.8-3.3-9.5-6.9-12.6-8.7 11.2-7 24.5-16.7 29.8-29.2z" style="fill:#0e918b"></path><path d="M5400.4 2972c30.5-9.3 260.5-291 335.3-337.1l2.4 9.6-5.6 7.4c-24.5 37-99 102-132.5 137.5-43 46-83.7 94-126 140.5-19 21.1-40.1 40.5-59.2 61.7-16 17.8-66.7 85.4-83 94.3-4.3-3.6-10.6-6.5-15.5-9.4 16.5-16.7 82.3-86 84-104.6z" style="fill:#016063"></path><path d="M5455 2754.5c22-6.7 64.5-38.6 87.5-51.2a925.7 925.7 0 0 1 196-78.4l2.2 2.2-5 7.8c-74.8 46-304.8 327.8-335.3 337 6-10.4 39-172.7 37.5-179.5-.8-3.3-9.5-6.9-12.6-8.7 11.2-7 24.5-16.7 29.8-29.2z" style="fill:#0e918b"></path><path d="M5609.8 2992.3c9.6 27.5-62.1 182.3-76.3 211.6a1438.5 1438.5 0 0 1-139.7 227.4c-11.7 15.5-91.6 107-93.4 114-12.5 1-24.2.3-36.6-.7 5.3-4.2 6.5-6 8.3-12.5l-2.6-4.8c-8.6-5-16.8-5-26.4-5.2.8-16.9-21.5-44.1-26.6-61.7-5.4-18.6 3.5-39.8-3.3-58.6l1-8.4 2-1.5c5.6-4.8 35-52.7 36-59.6 3.1-.3 6.6-.4 9.5-1.2 6-1.8 7.6-4.8 10.5-10l-2.7-7.2c-8.4-5.7-12.4-5.5-22.2-6.1-9 .6-18.4 0-27.5 0 1.5-5.2 2.4-9.7 1-15-3-11.1-11-17.2-20.8-22.3-7-.5-7.3-1.5-12.4-6 8.9-11.2 35.4-44.6 36.5-57.6l3.6-6.4c10.9-16.2 12.3-71.4 9.5-91 19.5-.5 39.1-1.4 58.7 0 8.7 0 17.6-.6 26.3-.1l3.3-1 3.6-4.8c31.8 1 71.3-13.3 102.7-20.1 43.5-9.2 87.2-17.6 131-25 15.2-9.3 41.8-48.6 47-66.2z" style="fill:#cee9ee"></path><path d="M5325.5 3108.4c39-.7 100-20.9 140.7-29 30-6.1 64-8.8 93-17.5-7.4 39-154.5 159.5-192.7 185.6a529.4 529.4 0 0 1-83.4 43.8c-11.5 5.2-25.3 9.7-35.8 16.5-9 .6-18.4 0-27.5 0 1.4-5.2 2.4-9.7 1-15-3-11.1-11-17.2-20.8-22.3-7-.5-7.3-1.5-12.4-6 8.9-11.2 35.4-44.6 36.5-57.6l3.6-6.4c10.9-16.2 12.3-71.4 9.4-91 19.6-.5 39.2-1.4 58.8 0 8.7 0 17.6-.6 26.3-.1l3.3-1z" style="fill:#0e918b"></path><path d="M5237.1 3109.4c19.6-.4 39.2-1.3 58.8.1 8.7 0 17.6-.6 26.3-.1-13 21.3-107.8 151-122.2 161.1-7-.5-7.3-1.5-12.4-6 8.9-11.2 35.4-44.6 36.5-57.6l3.6-6.4c10.9-16.2 12.3-71.4 9.4-91z" style="fill:#016063"></path><path d="M5237.1 3109.4c19.6-.4 39.2-1.3 58.8.1-1 14.2-50 77.9-62.2 87.4-1.8 1.4-4 2.6-6 3.6 10.9-16.2 12.3-71.4 9.4-91z" style="fill:#17a195"></path><path d="M249.9 2707.5c73.2 11 138.8 33.6 206.7 62.5 13.8 6 27.6 12.8 41.6 18 28.2 14.3 56 28.7 82.7 45.9 43.6 27.1 213.3 149.9 231.2 181.4l-38 .4c-5.8 25.7-13.4 52.2-17 78.2l-3.4 9.7c-8-3.8-16-7.7-24.8-8.6-26.4-2.7-57 2.7-83.4 5.2-61.6 5.6-125.3 14-187.1 12.5l-6.8-8.6c-33-36.6-64-81.6-89.3-123.9l-4.8-7.2a1434.8 1434.8 0 0 1-48.4-91.7l-6.9-12.8c-23-51.1-43.1-105.5-52.3-161z" style="fill:#ee642d"></path><path d="M456.6 2770c13.8 6 27.6 12.8 41.6 18 28.2 14.3 56 28.7 82.7 45.9-14.8 25 22.6 97.7 10.2 137.1-32.4-23.7-64.3-48-95.8-72.7-7-33.8-19.4-66.5-31.1-98.8 1.1-8.7-5.3-20.8-7.6-29.5zM309.1 2881.3c44 4.5 89.8 3.4 134 2.6 35.5 24.6 70.5 50 104.9 76.1-29.2 2.6-178.9 2-190.5 13a1435.8 1435.8 0 0 1-48.4-91.7z" style="fill:#f78546"></path><path d="M249.9 2707.5c73.2 11 138.8 33.6 206.7 62.5 2.3 8.7 8.7 20.8 7.6 29.5-4.7-7.4-7.9-15.7-16-19.4-5.4 13.5 26.8 90.7 33.5 109.5-22.2-10.3-43.1-30-62-45.4-44.3-36-106.9-92-158.2-114 43 56 112.4 94 166.3 139.4-42 2-83.7-1.5-125.6-1.1-23-51.1-43.1-105.5-52.3-161zM591.1 2971c12.4-39.4-25-112-10.2-137.1 43.6 27.1 213.3 149.9 231.2 181.4l-38 .4c-5.8 25.7-13.4 52.2-17 78.2-49.7-46.9-112.6-80.2-166-122.9z" style="fill:#f1724d"></path><path d="M362.3 2980.2c67.6.9 134.5-5 202-7.2 50.4 34 97.8 72.5 148 106.7-33 4.4-252.4 18.5-260.7 24.4-33-36.6-64-81.6-89.3-123.9z" style="fill:#f78546"></path><path d="M2147.6 270.8a245.5 245.5 0 0 1 197.9 72.7c35 36 59.8 84.4 58.8 135.4-.8 43.3-18.8 76.5-49.4 106-84.2-.5-168.4-.7-252.6-.4-80.6 2.7-161.6-3.2-242.3.4-15.8-34.7-20.4-70-7.4-106.6 14.3-40.2 42.4-59.7 79.4-76.8 5.3-7.8 10.9-15.3 16.7-22.7 52.8-66.6 114.9-98.8 199-108z" style="fill:#cee9ee"></path><path d="m1054.8 726.3 12.6 27.2c43.8 92.8 84 187.2 127.7 280 27.7 60.2 59.3 120.1 85 181-45 19-275.4 114.6-300.1 136l-.7.6C910.8 1196 848 1037.2 774 885l-12.5-28.7c98.7-39.7 195.4-87.6 293.3-130z" style="fill:#fac356"></path><path d="m1054.8 726.3 12.6 27.2c-65 28.7-129.8 57.8-194.5 87-32.6 14.7-67.6 27.5-98.9 44.5l-12.5-28.7c98.7-39.7 195.4-87.6 293.3-130z" style="fill:#17a195"></path><path d="M1041.3 864.1c3.7 1.3 6.2 3.6 8.5 6.8 19.8 27.5 45.2 95.7 60.9 130.2 20.8 45.6 45.5 90.7 63.4 137.5 3.3 8.5 7.2 17.5 5.2 26.7-27.4 21.4-129.6 59.7-166.7 75-10-3.8-12.7-9.6-17-19l-68-151.2c-16.2-35.3-36.5-71.7-48.5-108.6-2.5-7.6-5.1-14.2-2.3-21.9 33.1-23.3 122.2-56.7 164.5-75.5z" style="fill:#f78546"></path><path d="M4107.3 3106.2c9.7 1.8 18.6 2.8 28.4 3 15 2.6 40.2 3.9 53 11 8.3.1 29.3-1.8 35.4 2.9 3.2-2 6.2-4.2 9.2-6.4l-.8-7.7c6.4-.2 14.4-1.4 20.4 1.1 12.2-1.3 48.5-6 58.4 1.1l.5.5c13.7-3.3 26.6-3.3 40.7-2.6 36.3-2 72.8-1.2 109.1-1.2v-.8c6.4-.2 13.4.2 19.8-.8 16 .3 33.6 2 49.5-.1 68.1 2.8 136.9.7 205.1.7l336.2 1.2c43.7.3 125.1-5.6 165 1.3 2.8 19.7 1.4 74.9-9.5 91l-3.6 6.5c-1 13-27.6 46.4-36.5 57.6 5.1 4.5 5.4 5.5 12.4 6 9.7 5.1 17.9 11.2 20.8 22.4 1.4 5.2.5 9.7-1 14.9 9 0 18.4.6 27.5 0 9.8.6 13.8.4 22.2 6.1l2.7 7.2c-2.9 5.2-4.5 8.2-10.5 10-3 .8-6.4 1-9.4 1.2-1 6.9-30.5 54.8-36 59.6l-2 1.5-1.1 8.4c6.8 18.8-2.1 40 3.3 58.6 5.1 17.6 27.4 44.8 26.6 61.7 9.6.3 17.8.1 26.4 5.2l2.6 4.8c-1.8 6.5-3 8.3-8.3 12.5 12.4 1 24.1 1.7 36.6.7l151-.7c36.9-.4 81.6-5.5 117.5 2.7 19.8 4.5 40.4 15.5 51 33.4a57.7 57.7 0 0 1 7.6 40.5c.9 3.5 1.2 3.9 1.4 7.4 1 12.6-9 30-17 39.3a69.8 69.8 0 0 1-52.4 26c-80 5.4-163.5.1-243.8 0l-471.6.3-1610.6-1.2-1892.1 1.7-604.4-.2c-96.2 0-194.6 4.6-290.6 0-23-1-39-3-56.8-18.8a71.2 71.2 0 0 1-26.2-50 77.3 77.3 0 0 1 22.1-57.1 80.2 80.2 0 0 1 43-23.5c31.3-5.4 95 0 129.4 0 125.3.4 251.8 4.2 377 .1l217.2.3c41.5.1 83.7 1.9 125.1-.5 60 6 125.9.7 186.4.8l185.8.2c41.7 0 85.6 2.8 126.8-4.8 57 13.7 140.4 30.4 193.8 50.2-1.7-21.8.3-39 6.8-60l11.3-22.2c8.2 3.2 16.6 7.3 25.5 7.4 3 6.3 5 11.3 5.8 18.3 27.5 8.8 78.1 4.3 108.5 5-.8-2.4-1.5-4.7-2-7.1-4.5-17.9-1.3-29.5 7.5-44.7 35.5-13.4 70.6-9.1 107.7-7.7l-8.5-20.8 18-2.4c43.2.3 87.1-1.4 130.2.6 378.7-4.5 757.9 7 1136.5-3.3l-6.3 21.6c38 1 79-4.2 116.3 1.6 14-1.1 28.1-2.9 42.2-4.4 102.6-16.8 284.2-81.1 372.5-135.3 16.4-6.8 33.6-21.1 47.7-32-5.6-9-17-18.3-24.3-26.4-11.8-28.7-11.5-54.2-20.6-79.3 16.3-28.7 13.6-60.7 45-79.8 7.9-4.4 13.5-5.8 17.5-14.3z" style="fill:#acbce1"></path><path d="M2010.3 3558c30 10.3 57.5 23 85 38.9-30.3-4.8-60.8-8.5-91.5-11.3l6.5-27.6z" style="fill:#202758"></path><path d="M4534 3522.5c21.6.4 53.2 4.7 73.6-.9 7 4.5 17.1 12 18.7 20.7.2.8.1 1.5.1 2.3 11.6-.2 33.2-3.1 42.7 3a1313 1313 0 0 1-128.7-1.4l5-7c-1.5-8.5-5.5-10.9-11.4-16.7z" style="fill:#3a3f6d"></path><path d="M1988.1 3509.2c8.2 3.2 16.6 7.3 25.5 7.4 3 6.3 5 11.3 5.8 18.3a54 54 0 0 0-9.1 23l-6.5 27.7c-4.2 5.7-4.3 7.4-11.4 9l-22.4-3.1c-1.7-21.9.3-39 6.8-60l11.3-22.3z" style="fill:#fefefe"></path><path d="M2013.6 3516.6c3 6.3 5 11.3 5.8 18.3a54 54 0 0 0-9.1 23l-6.5 27.7c-4.2 5.7-4.3 7.4-11.4 9l-.4-3.2c-2-23.6 6.2-56.6 21.6-74.8z" style="fill:#ee642d"></path><path d="m4333.6 3519.3 4.7 6.8c29-5.2 60.6-3.2 90-3.5 6 5.8 11.9 10.3 13.7 18.7-4.4 4.8-6.4 4-12.7 4.5l.3 2c-66.1 2.5-133.2.3-199.4.2-46.2 0-96.9 4-142.3-3-10-1.5-19.7-6.3-28.7-10.4l-4.7-6.7c26.3-9.6 235.7-5.1 277-4.3l2-4.3z" style="fill:#254ca6"></path><path d="M4428.4 3522.6c5.9 5.8 11.8 10.3 13.6 18.7-4.4 4.8-6.4 4-12.7 4.5-19.6-1.4-39.4 2.2-58.8.1-17.5-1.8-21.7-6.5-32.2-19.8 29-5.2 60.6-3.2 90-3.5z" style="fill:#202758"></path><path d="M4405.2 3413.6c1.4-4.1 1.7-7.3 2.2-11.6 5.1 6.5 6.5 8.5 15.2 9.8 10.6 1.4 22.6.1 33.3-.3l2.2-1c14.2.3 36.7-2.3 49.6 3.1 1.9 30.9 7.4 58.8 19.7 87.5 2.7 6.4 8 14.2 6.6 21.4 5.9 5.8 10 8.2 11.4 16.8l-5 7c-6.7.6-14 0-20.8 0-29 4.1-60.7 1.8-90 1.6l-.3-2c6.3-.7 8.3.2 12.7-4.6-1.8-8.4-7.7-12.9-13.6-18.7 2.2-9.4-9.8-34-12.5-45.4-4.8-20.3-3.2-45.1-10.7-63.6z" style="fill:#3a3f6d"></path><path d="M4474.8 3528.4c13.6-10.3 42.5-6 59.2-6 5.9 6 10 8.3 11.4 16.9l-5 7c-6.7.6-14 0-20.8 0-21.3-5.3-27-.3-44.8-18z" style="fill:#202758"></path><path d="M4405.2 3413.6c1.4-4.1 1.7-7.3 2.2-11.6 5.1 6.5 6.5 8.5 15.2 9.8 10.6 1.4 22.6.1 33.3-.3-.6 13.7-1.7 28.2 0 41.9 1.9 14.5 16.4 59.1 14.2 68.1-13 4-28.3 1.8-41.7 1.1 2.2-9.4-9.8-34-12.5-45.4-4.8-20.3-3.2-45.1-10.7-63.6z" style="fill:#254ca6"></path><path d="M3669.5 3473.3c102.6-16.8 284.2-81.1 372.5-135.3v3c-.4 9.3-13 24.2-17.3 33.4-24.5 52.7-4.5 110.8 29.8 153.5l4.7 6.7-1.7 1.8-3.1-.2 2.3 2.3-425 1a81.6 81.6 0 0 0-4.4-61.8c14-1.1 28.1-2.9 42.2-4.4z" style="fill:#cee9ee"></path><path d="M2380.8 3457.8c378.7-4.5 757.9 7 1136.5-3.3l-6.3 21.6c38 1 79-4.2 116.3 1.6a81.6 81.6 0 0 1 4.5 61.8 55.2 55.2 0 0 1-44.1 18.5c-98 1.6-196.5-.7-294.6-.7h-670l-313.2.2c-51.5.2-107 5.1-157.9-1-9.7-1.1-17.3-10.2-24.1-16.7-.8-2.3-1.5-4.6-2-7-4.5-17.9-1.3-29.5 7.5-44.7 35.5-13.4 70.6-9.1 107.7-7.7l-8.5-20.8 18-2.4c43.2.3 87.1-1.4 130.2.6z" style="fill:#3a3f6d"></path><path d="M2380.8 3457.8c378.7-4.5 757.9 7 1136.5-3.3l-6.3 21.6c-17.5 17.8-33.7 17.1-57.7 17.3h-815l-239 .9c-44 .3-91.8 4.3-135.3-.9-8.4-1-16.7-7.5-22.9-13l-8.5-20.8 18-2.4c43.2.3 87.1-1.4 130.2.6z" style="fill:#050f45"></path><path d="M4107.3 3106.2c9.7 1.8 18.6 2.8 28.4 3 15 2.6 40.2 3.9 53 11 8.3.1 29.3-1.8 35.4 2.9 3.2-2 6.2-4.2 9.2-6.4l-.8-7.7c6.4-.2 14.4-1.4 20.4 1.1 12.2-1.3 48.5-6 58.4 1.1l.5.5c13.7-3.3 26.6-3.3 40.7-2.6 36.3-2 72.8-1.2 109.1-1.2l12.9 1 1 3.5c-31.7 45.9-57.7 62.4-46.2 125 2.1 11.7 13.8 33.9 11.4 44 9 5.6 16 12.7 23.5 20.1.1 3.4.7 3.5-1.5 6.3l-16 .6c.2 2.4 1 4.8.6 7.3-.3 2.2-38.2 84.1-39.9 86.3-.5 4.3-.8 7.5-2.2 11.6 7.5 18.5 6 43.3 10.7 63.6 2.7 11.4 14.7 36 12.5 45.4-29.5.3-61.2-1.7-90 3.5l-4.8-6.8-2.2 4.3c-41.2-.8-250.6-5.3-277 4.3-34.2-42.7-54.2-100.8-29.7-153.5 4.3-9.2 17-24 17.3-33.4v-3c16.4-6.8 33.6-21.1 47.7-32-5.6-9-17-18.3-24.3-26.4-11.8-28.7-11.5-54.2-20.6-79.3 16.3-28.7 13.6-60.7 45-79.8 7.9-4.4 13.5-5.8 17.5-14.3z" style="fill:#325cba"></path><path d="M4281.2 3279.7c16-.6 32-1.5 47.9-.7a74 74 0 0 1 17.5 21.3l.4 7.5c-18.8 1-36.8.8-55.5-.2l.7-1.6c2.4-8.6-6.6-19.4-11-26.3z" style="fill:#17a195"></path><path d="m4279 3276.5 2.2 3.2c4.4 6.9 13.4 17.7 11 26.3l-.7 1.6a119.2 119.2 0 0 1-49.4-1.8 43.8 43.8 0 0 0-13.6-23.5c13.2-8 35.3-5.6 50.4-5.8z" style="fill:#f78546"></path><path d="m4195 3270.4 5.7 9.8c8-.7 15.5-1.1 23-3.8l4.8 6a43.8 43.8 0 0 1 13.6 23.4c-8.4 4.2-18 2.4-27 2-41.5.7-84.1 1.7-125.4-1.8-5.6-9-17-18.3-24.3-26.4 42-2.4 86.4 2.2 127.8-4l1.8-5.2z" style="fill:#30b2c1"></path><path d="m4223.8 3276.4 4.7 6a43.8 43.8 0 0 1 13.6 23.4c-8.4 4.2-18 2.4-27 2 .5-10.1-8-20.2-14.4-27.6 8-.7 15.5-1.1 23-3.8z" style="fill:#17a195"></path><path d="M4358.4 3309c29.5-.7 58.9-1.4 88.4-.6.1 2.4.9 4.9.5 7.3-.3 2.2-38.2 84.1-39.9 86.3-.5 4.3-.8 7.5-2.2 11.6-9.3-5.7-70-2.7-85.1-2.7 5.3-10.8 38.2-95 38.3-102z" style="fill:#254ca6"></path><path d="M4320 3410.9c15.2 0 75.9-3 85.2 2.7 7.5 18.5 6 43.3 10.7 63.6 2.7 11.4 14.7 36 12.5 45.4-29.5.3-61.2-1.7-90 3.5l-4.8-6.8c.2-12.3-7.4-28-9.3-41.1-3.3-22.6-1.3-45-4.2-67.3z" style="fill:#3a3f6d"></path><path d="M4107.3 3106.2c9.7 1.8 18.6 2.8 28.4 3 15 2.6 40.2 3.9 53 11 8.3.1 29.3-1.8 35.4 2.9 3.2-2 6.2-4.2 9.2-6.4l-.8-7.7c6.4-.2 14.4-1.4 20.4 1.1 12.2-1.3 48.5-6 58.4 1.1l.5.5c13.7-3.3 26.6-3.3 40.7-2.6 36.3-2 72.8-1.2 109.1-1.2l12.9 1 1 3.5c-31.7 45.9-57.7 62.4-46.2 125 2.1 11.7 13.8 33.9 11.4 44 9 5.6 16 12.7 23.5 20.1.1 3.4.7 3.5-1.5 6.3l-16 .6c-29.4-.8-58.8-.1-88.3.5l-11.4-1.1-.4-7.5a74 74 0 0 0-17.5-21.3c-16-.8-32 .1-48 .7l-2.2-3.2c-15 .2-37.2-2.3-50.4 5.8l-4.7-6c-7.6 2.8-15 3.2-23 3.9l-5.8-9.8-1.8 5.3c-41.4 6-85.8 1.6-127.8 3.9-11.8-28.7-11.5-54.2-20.6-79.3 16.3-28.7 13.6-60.7 45-79.8 7.9-4.4 13.5-5.8 17.5-14.3z" style="fill:#4fc8d7"></path><path d="M4329.1 3279c26.6-.6 89.4-7.1 111.6 2.4 9 5.6 16 12.7 23.5 20.1.1 3.4.7 3.5-1.5 6.3l-16 .6c-29.4-.8-58.8-.1-88.3.5l-11.4-1.1-.4-7.5a74 74 0 0 0-17.5-21.3z" style="fill:#30b2c1"></path><path d="M4311.8 3111.7c13.7-3.3 26.6-3.3 40.7-2.6 2.3 28.4-51.3 50.7-23.8 164.9.6 2.6.4 1.7.4 5-16-.8-32 .1-48 .7l-2.2-3.2c-10.7-44.5-13.4-89.2 11.7-129.2 6-9.5 17.3-22 20.4-32.7l.8-2.9z" style="fill:#1db4a4"></path><path d="M4232.5 3109c6.4-.2 14.4-1.4 20.4 1.1 12.2-1.3 48.5-6 58.4 1.1l.5.5-.8 3c-3 10.6-14.4 23-20.4 32.6-25.1 40-22.4 84.7-11.7 129.2-15 .2-37.2-2.3-50.4 5.8l-4.7-6c-7.6 2.8-15 3.2-23 3.9l-5.8-9.8c5.6-21.3-1.8-54.6 2-78.8 3.8-24 19.2-42.6 26-65l1-3.5c3.3-1.9 6.3-4.2 9.3-6.4l-.8-7.7z" style="fill:#f4a63c"></path><path d="M4232.5 3109c6.4-.2 14.4-1.4 20.4 1.1-2 21.1-26.7 51.4-31.5 76.2-6.2 32 6 61.9 4 84.4-.4 3-.6 3.2-1.6 5.7-7.6 2.7-15 3.1-23 3.8l-5.8-9.8c5.6-21.3-1.8-54.6 2-78.8 3.8-24 19.2-42.6 26-65l1-3.5c3.3-1.9 6.3-4.2 9.3-6.4l-.8-7.7z" style="fill:#1db4a4"></path><path d="M4107.3 3106.2c9.7 1.8 18.6 2.8 28.4 3 15 2.6 40.2 3.9 53 11 8.3.1 29.3-1.8 35.4 2.9l-1 3.5c-7 22.4-22.3 41-26 65-3.9 24.2 3.5 57.5-2 78.8l-1.9 5.3c-41.4 6-85.8 1.5-127.8 3.9-11.8-28.7-11.5-54.2-20.6-79.3 16.3-28.7 13.6-60.7 45-79.8 7.9-4.4 13.5-5.8 17.5-14.3z" style="fill:#4fc8d7"></path><path d="M4107.3 3106.2c9.7 1.8 18.6 2.8 28.4 3 15 2.6 40.2 3.9 53 11a985.9 985.9 0 0 1-98.9.3c7.9-4.4 13.5-5.8 17.5-14.3z" style="fill:#30b2c1"></path><path d="M4530.9 3106.2c68.1 2.8 136.9.7 205.1.7l336.2 1.2c43.7.3 125.1-5.6 165 1.3 2.8 19.7 1.4 74.9-9.5 91l-3.6 6.5c-1 13-27.6 46.4-36.5 57.6 5 4.5 5.4 5.5 12.4 6 9.7 5.1 17.9 11.2 20.8 22.4 1.4 5.2.4 9.7-1 14.9 9 0 18.4.6 27.5 0 9.8.6 13.8.4 22.2 6.1l2.7 7.2c-3 5.2-4.5 8.2-10.5 10-3 .8-6.4 1-9.4 1.2-1 6.9-30.5 54.8-36 59.6l-2 1.5-1.1 8.4c6.8 18.8-2.1 40 3.3 58.6 5.1 17.6 27.4 44.8 26.6 61.7 9.6.3 17.8.1 26.4 5.2l2.6 4.8c-1.8 6.5-3 8.3-8.3 12.5-18.5 9.8-524 3.5-594.7 3-9.5-6.1-31-3.2-42.7-3v-2.3c-1.7-8.7-11.8-16.2-18.8-20.7-20.4 5.6-52 1.3-73.6.9 1.4-7.2-3.9-15-6.6-21.4a253.2 253.2 0 0 1-19.7-87.5c-12.9-5.4-35.4-2.8-49.6-3l-2.2.9c-10.7.4-22.7 1.7-33.3.3-8.7-1.3-10-3.3-15.2-9.8 1.7-2.2 39.6-84.1 39.9-86.3.4-2.5-.4-5-.5-7.3l16-.6c2-2.8 1.5-2.9 1.4-6.3-7.4-7.4-14.4-14.5-23.5-20 2.4-10.2-9.3-32.4-11.4-44.1-11.5-62.6 14.5-79.1 46.1-125l-1-3.6-12.8-1v-.7c6.4-.2 13.4.2 19.8-.8 16 .3 33.6 2 49.5-.1z" style="fill:#202758"></path><path d="M4508.6 3410.5c21 .8 41.7 1.5 62.7.2 10.2 19.4 5.5 44 13.8 64.2 5.8 14.1 21 32 22.5 46.7-20.4 5.6-52 1.3-73.6.9 1.4-7.2-3.9-15-6.6-21.4a253.2 253.2 0 0 1-19.7-87.5l1-3z" style="fill:#254ca6"></path><path d="M4527.9 3307.8c32.5-2.4 77.2-5.6 109 .7-5.2 8.4-13.5 14.2-20.8 20.7-22.9 20.5-29.7 41.7-38.7 70.8a28 28 0 0 1-6.1 10.7c-21 1.3-41.7.6-62.7-.2l-.9 3.1c-12.9-5.4-35.4-2.8-49.6-3l-2.2.9c-10.7.4-22.7 1.7-33.3.3-8.7-1.3-10-3.3-15.2-9.8 1.7-2.2 39.6-84.1 40-86.3.3-2.5-.5-5-.6-7.3l16-.6 39.4.9 25.7-.9z" style="fill:#325cba"></path><path d="M4527.9 3307.8c5 .4 14.4 0 18.2 3l-.2 2.7 1-3-7.8 5.5 5.2-.1c-18.4 28.9-33.8 59.8-35.7 94.6l-.9 3.1c-12.9-5.4-35.4-2.8-49.6-3 3.6-27.4 16.2-52.9 29.8-76.5 4.9-8.4 11.7-16 14.3-25.4l25.7-.9z" style="fill:#254ca6"></path><path d="m4446.8 3308.4 16-.6 39.4.9c-2.6 9.3-9.4 17-14.3 25.4-13.6 23.6-26.2 49.1-29.8 76.5l-2.2.9c-10.7.4-22.7 1.8-33.3.3-8.7-1.3-10-3.3-15.2-9.8 1.7-2.2 39.6-84.1 40-86.3.3-2.4-.5-5-.6-7.3z" style="fill:#325cba"></path><path d="M4604.4 3382.2c11-13.5 22.7-29 37-39.2a60.9 60.9 0 0 1 30.9-11.8c36.2-3 74.3-.6 110.7-.6l218.6.2 166.8-.2c27.2 0 57.1-2.8 83.9 1.7-1 6.9-30.5 54.8-36 59.6l-2 1.5c-5.3-3.2-448-1.2-499-2-30.7-.5-68.9 3-98.8-3-4.9-1-8.4-3-12.1-6.2z" style="fill:#f0e2d4"></path><path d="M4604.4 3382.2c3.7 3.2 7.2 5.2 12 6.2 30 6 68.2 2.5 99 3 50.8.8 493.6-1.2 498.9 2l-1.1 8.4c6.8 18.8-2.1 40 3.3 58.6 5.1 17.6 27.4 44.8 26.6 61.7-51.4 6-136.2.5-190.9.5l-397.6-.6c-1.9-3-1-2.2-3.6-4.2-8.2-6.2-17-11.9-24-19.5-28.6-31.1-29.3-64.5-27.4-104.4a18 18 0 0 0 4.8-11.7z" style="fill:#f0e2d4"></path><path d="M4604.4 3382.2c3.7 3.2 7.2 5.2 12 6.2 30 6 68.2 2.5 99 3 50.8.8 493.6-1.2 498.9 2l-1.1 8.4c-56.3-2.2-113.6.2-170 .4-147.7.3-296.2 1.8-443.6-8.3a18 18 0 0 0 4.8-11.7z" style="fill:#dac2c8"></path><linearGradient id="a" x1="3159.6" x2="3148.9" y1="1771.8" y2="1845.2" gradientTransform="matrix(4 0 0 -4 -7483.3 10272.4)" gradientUnits="userSpaceOnUse"><stop offset="0" style="stop-color:#3665c4"></stop><stop offset="1" style="stop-color:#527ecf"></stop></linearGradient><path d="M4530.9 3106.2c68.1 2.8 136.9.7 205.1.7l336.2 1.2c43.7.3 125.1-5.6 165 1.3 2.8 19.7 1.4 74.9-9.5 91l-3.6 6.5c-1 13-27.6 46.4-36.5 57.6 5 4.5 5.4 5.5 12.4 6 9.7 5.1 17.9 11.2 20.8 22.4 1.4 5.2.4 9.7-1 14.9-51.2 5.8-118 0-170.9-.3-137-.7-275.2-3.7-412 1-31.8-6.3-76.5-3.1-109-.7l-25.7.9-39.5-.9c2.2-2.8 1.6-2.9 1.5-6.3-7.4-7.4-14.4-14.5-23.5-20 2.4-10.2-9.3-32.4-11.4-44.1-11.5-62.6 14.5-79.1 46.1-125l-1-3.6-12.8-1v-.7c6.4-.2 13.4.2 19.8-.8 16 .3 33.6 2 49.5-.1z" style="fill:url(#a)"></path><path d="M5177.8 3151.2c17.4-1.3 35.4-1.6 52.7-4.6 1.6 20.3-2.5 40.5-6.4 60.3-1 13-27.6 46.4-36.5 57.6h-1.7c-2.1-9.2-3.4-16.7-10.2-23.7.6-1.2 1.6-3.1 2-4.5 3.2-11 4.3-76.2.1-85.1z" style="fill:#0e918b"></path><path d="m4452.1 3238.7 507.6-.2c71.6.2 144.5 4.8 216 2.3 6.8 7 8 14.5 10.2 23.7-2 1.6-3.8 3.8-6.2 4.9-.6.2-639.1-2-698.8-2-4.6-9.9-20.5-21-28.8-28.7z" style="fill:#d2cbdc"></path><path d="M4452.1 3238.7a156.7 156.7 0 0 1-5.5-45.4c.9-14.1 5.1-26.1 16.5-35.3 9.1-7.3 18.9-6.4 30-7 52-2.7 104.8-1 156.9-1.1l282.7-.2 159.6-.1c27.7 0 58.2-2.5 85.5 1.6 4.2 8.9 3 74.1-.1 85.1-.4 1.4-1.4 3.3-2 4.5-71.5 2.5-144.4-2.1-216-2.3l-507.6.2z" style="fill:#fefefe"></path><path d="M3336.3 499.3c179-142.5 396.7-213.4 625.5-187.2a818 818 0 0 1 348.6 125.3c35 22.8 66.8 50.5 102.1 72.7 9-.3 19.7-1.8 28.3.3 46.5-.7 92.8-3.4 139.2-4.2 15.3 4.3 331.2 204 337.9 213.4 10 16.6 13.8 84.3 8.5 105.6l-1 3.7 4.2 3.7c1.4 1.7 5.2 5.4 5.9 7.3 5 15.6 2.5 107.8 0 128.4-.2 2.4-.5 4.7-1 7 15.9 5.6 28 11.2 35.7 27.2 8.8 18 10 54.4 3.2 73.3 219.8 56.2 446.6 208.7 563.7 405.5 147.2 247.6 103.3 515.2 35.6 779.3-11.5 44.8-57.7 238.9-76.8 265.1l-5.5 3.1c7 40.9-19.4 183-35.3 225.7-5.3 12.5-18.6 22.3-29.8 29.2 3.1 1.8 11.8 5.4 12.6 8.7 1.5 6.8-31.4 169-37.5 179.5-1.8 18.7-67.6 87.9-84.1 104.6 4.9 2.9 11.2 5.8 15.5 9.4.6 8.3 1.2 10-2.7 17.7l-3.6 4.8-3.3 1c-8.7-.5-17.6 0-26.3 0-19.6-1.3-39.2-.4-58.8 0-39.8-7-121.2-1-164.9-1.3L4736 3107c-68.2 0-137 2-205.1-.7-15.9 2.2-33.5.4-49.5 0-6.4 1.1-13.4.7-19.9.9l.1.8c-36.3 0-72.9-.7-109.1 1.2-14-.7-27-.8-40.7 2.6l-.6-.5c-9.8-7-46-2.4-58.3-1-6-2.6-14-1.4-20.4-1.2l.8 7.7c-3 2.2-6 4.5-9.2 6.4-6.1-4.7-27-2.8-35.4-2.8-12.8-7.2-38-8.5-53-11-9.8-.3-18.7-1.3-28.4-3.1-2.7-10.8-27.8-33.6-36-43-3.8-17.2-13-33.7-16.8-51.4-10.1-46.6-3.6-98.3 27.1-136.3 7.9-9.7 21.2-17.1 27.5-27.4l1.3-2.4c-.4-23.8-22.9-68.5-31.9-91.8-75.5-195.4-157.6-394-257.5-578.3a796.6 796.6 0 0 0-55-85.2c-10.3-14.4-23-28.6-31.4-44.3l-.8-1.7c-5.5-1.4-10.5-8.7-14.5-13l-20.6-22a642.3 642.3 0 0 0-194.2-128.6c-31.6-12.8-64.1-23.5-96.2-34.9-75.4-24.9-153-40.2-231.1-53.3-4.8-1-9.4-2.2-14.1-3.4-9.7-7.9-12.2-20.2-15.9-31.6-20.7-54.5-28-110-31.3-167.9 72-60.1 115.6-120.6 151-207.7l16-2.8c30.6-5.9 56.9-28.5 73.7-54 27-40.7 33.2-87.5 23.3-134.8 8.6-77.7-14-156.9-45.3-227.4-7.9-17.8-40-71.2-39.4-87l.8-1.8c-43.8-2.7-88.3-16.8-130.2-28.6-96.3-35-194.7-77.5-258-161.9-3.2-7.5-5.1-15.6-7.4-23.5 3.6-5 6-11.2 8.7-16.7 19.2-39 37.7-79 59.7-116.5l4.7-11.8A8559.2 8559.2 0 0 1 2820 382.1l29.9 6c148.3 21.3 295.7 50.4 444.1 70.9l42.2 40.3z" style="fill:#cee9ee"></path><path d="M5254.3 1352.4c10.7-1.3 19.4-2 29.4 3.4a42.8 42.8 0 0 1 20.6 25.6 38.4 38.4 0 0 1-4.5 31c-7.7 11.8-18.6 15.5-31.8 17.7-4.4.6-8.2.2-12.5-.9a39.9 39.9 0 0 1-26.3-17.8c-5-8.9-5.2-20-2.5-29.7 4.2-15.2 14.8-22 27.6-29.3z" style="fill:#fefefe"></path><path d="M4264.3 2564.3c-.2-14.3-4.3-28.5-4.1-43.2.2-21 2.4-48.1 19-63 15.2-13.8 31-11.9 50-11 2.6 18.5-16.9 32.5-18.1 52-1.3 21.3 12 38.8 12.3 58.5-17-.6-46.1-5.3-59.1 6.7z" style="fill:#ee642d"></path><path d="M4393.8 1979.5c16.2-2.6 30.6-4.1 45.8 4a58.6 58.6 0 0 1 28.4 36.3c4 14.6 2 30.7-6 43.6a57.3 57.3 0 0 1-37.7 26c-5.6 2.7-10.6 2.2-16.7 1.6-15.1-1.4-28.2-8-37.4-20.2a58.5 58.5 0 0 1-10.5-46.2c4-21.9 16.7-33.3 34-45.1z" style="fill:#4fc8d7"></path><path d="M4545.7 1753.8c15.8-2.1 31-4.8 46.3 1.7a79.7 79.7 0 0 1 8.7 4.5 62.7 62.7 0 0 1 25.6 32.7c5 14.7 4.2 31-3.5 44.7-9.2 16.2-22.9 23.4-40.1 27.6-8 3.9-19.8 2.6-28.3 1a50.2 50.2 0 0 1-33.8-22.4 61.2 61.2 0 0 1-8.8-47.4c4.6-21 17-31.4 34-42.4z" style="fill:#fac356"></path><path d="M4118.2 1739.2c1.3.4 3.4 1 4.7 1.6 12.8 6.7 65.3 60.8 69.3 72-4.6 13.5-60.4 64.9-73.3 73-17.3-4.5-55.7-59.6-79.6-72.3 25.5-14.8 58-52.2 78.9-74.3z" style="fill:#4fc8d7"></path><path d="M3547 884.2c6.9 1.3 15.3 1.7 20.2 7 6.8 56 .9 117.7.8 174.3 9.2 6 18.2 10.5 20.9 22-31.5 1.3-63.4 0-95-.1 8.4-42.8 11.4-157.2 29.3-187.6 5.6-9.3 13.6-13.2 23.8-15.6z" style="fill:#325cba"></path><path d="M3698.5 445.7c9.1-.4 18.4-.9 27.2 1.8a69.7 69.7 0 0 1 45.2 40 65.1 65.1 0 0 1 1 44.5c-8.8 24.8-26 36.7-49 47.2a73.2 73.2 0 0 1-44.4-8 65.5 65.5 0 0 1-31.3-41.8 67.7 67.7 0 0 1 4.8-46c10-20.5 25.6-30.4 46.5-37.7z" style="fill:#fefefe"></path><path d="M3700 480.4c12.6-.1 24 1.6 33.1 11.3a29 29 0 0 1 7.8 21.2c-.5 15.4-9 23.4-19.7 33-3.1 0-6.2.1-9.4-.2a37.7 37.7 0 0 1-27-14.5c-5-6.6-6.7-15-5.3-23.2 2.2-13.5 10.2-20 20.6-27.6z" style="fill:#cee9ee"></path><path d="M4145.4 2123h33.4l.4 2.8a80.6 80.6 0 0 1-14.8 53.2c19.9-3 42.4-5.7 60-15.9 1 1.7 2.2 3.5 3 5.3 5.4 15 3.5 59.2-3.6 73.8-17-6.6-39.5-8.4-57.8-11.6l2.4 3c8.9 12.2 11.2 40.4 8.6 55l-38-.2-38-.1c1.7-2 2.3-2.4 3.6-5 6-12.2 12-38.4 7.6-51.3-20 3.9-39.6 6.7-60 8.5 2-3.2 3.3-5.4 4.2-9 3.8-16 4.2-54.3-4.4-68.3a329 329 0 0 1 58.4 14.8c.9-2.1 1.3-3 1.8-5 3.3-15.6-3.6-37-12.2-49.7l45.4-.2z" style="fill:#f1724d"></path><path d="m4916 830 9.5-1.1 4.1 3.7c1.4 1.7 5.2 5.5 5.9 7.3 5 15.6 2.5 107.8 0 128.4-.2 2.4-.5 4.7-1 7 15.9 5.6 28 11.2 35.7 27.2 8.8 18 10 54.4 3.2 73.3 6 15 8 92.8 1.5 108.6-1 2.4-.8 1.8-1.9 3.8l-.7 1.5h-94.8c9.5-16.2 9.2-80.9 3.9-99.3-1-3.2-3-6.3-4.9-8.9 9.2-16 4-39.6 4.7-57.7.8-25.5 14.5-31.2 30.7-46.3l2.7-2.6c8.5-19.3 7.4-121.8 1.4-145z" style="fill:#254ca6"></path><path d="m4916 830 9.5-1.1 4.1 3.7c6.6 12.6 6.8 123.2 2.4 142-5.7.3-11.6.8-17.4.3 8.5-19.3 7.4-121.8 1.4-145z" style="fill:#202758"></path><path d="M4810.2 838.3c3.2-3.2 6.6-6.3 11-7.4 12.8-2.9 84.7-7 94.8-1 6 23.2 7.1 125.7-1.4 145l-2.7 2.6c-16.2 15-29.9 20.8-30.7 46.3-.7 18 4.5 41.7-4.7 57.7-16 1.2-45.6-8.6-58.3-18l-.8-4.4c-27-6.4-53.4-1.6-77.6-18 9.9-2.3 18.9-3.5 26.4-10.7 6.5-26.4 43.1-154.4 37.8-170.7l2-2.4c6.2-8 5.5-9.3 4.2-19z" style="fill:#fefefe"></path><path d="M4329.3 2447.1c83-1.7 166.3-.5 249.4-.5 47.2 0 96.5-2.8 143.3.8l-2.2 2.3c-25.3 25.6-41.2 33.8-41.2 73.6 0 9.7 2.3 22.5 0 31.8 16.2 17.3 24 32 47.6 40.2l10.3 3.7 15.4 4.4 1.4 5c-18.2-4.4-36.3-10.6-55.2-8.6-29.1-1.1-58.3-.5-87.5-.2-18.6-1.8-37-1-55.6-.3-30-2.2-61-.8-91 0-10-7.2-149.4-1.4-175.4-3.3-3.4-9-17.9-23.3-24.3-31.7 13-12 42-7.3 59.1-6.8-.4-19.6-13.6-37.1-12.3-58.4 1.2-19.5 20.7-33.5 18.2-52z" style="fill:#f78546"></path><path d="M4678.6 2555c16.2 17.4 24 32 47.6 40.3l10.3 3.7 15.4 4.4 1.4 5c-18.2-4.4-36.3-10.6-55.2-8.6-29.1-1.1-58.3-.5-87.5-.2-18.6-1.8-37-1-55.6-.3-30-2.2-61-.8-91 0-10-7.2-149.4-1.4-175.4-3.3-3.4-9-17.9-23.3-24.3-31.7 13-12 42-7.3 59.1-6.8 39.8 2.6 335.6 5.7 349.7 1.1 2-.6 3.7-2.3 5.5-3.5z" style="fill:#f1724d"></path><path d="M4722 2447.4c118.9-4.4 238.8-1.1 357.7-1.1h117.5c19 0 40.7-2.2 59.3.4 3.2 6.8 5.3 8.4 2.4 16-.6 1.6-1.5 2.9-2.4 4.3l19.2.8c1.9 7.6 1.3 13-2.6 20-2 3.3-4.5 6.3-7 9.2 5 15 3 38-2.5 52.8 5.1 8 11.2 19.5 9.4 29.4l-.8 2.3c3.7 4 6 5.3 6.8 10.7-19.4 8.3-434 1.7-504.6 1.8-12.5 3.5-25 4.1-37.9 5l-10.3-3.7c-23.6-8.2-31.4-23-47.6-40.2 2.3-9.3 0-22.1 0-31.8 0-39.8 16-48 41.2-73.6l2.2-2.3z" style="fill:#fefefe"></path><path d="M5263.6 2549.8c5.1 8 11.2 19.5 9.4 29.4l-.8 2.3c3.7 4 6 5.3 6.8 10.7-19.4 8.3-434 1.7-504.6 1.8-11.4-.4-25.8.2-36.4-4.4-8.2-3.6-12-8.7-15.1-16.7-4.4-8.3-11.3-14.4-17.8-21l403.2-.3c35.7 0 125.1 5.3 155.3-1.8z" style="fill:#dac2c8"></path><path d="M4722.9 2572.9c40.8 12.1 118 4.8 163.2 4.5 35-.2 374.1-3 382.8 1 1.3.6 2.2 2 3.3 3.1 3.7 4 6 5.3 6.8 10.7-19.4 8.3-434 1.7-504.6 1.8-11.4-.4-25.8.2-36.4-4.4-8.2-3.6-12-8.7-15.1-16.7z" style="fill:#d7372c"></path><path d="M4722 2447.4c118.9-4.4 238.8-1.1 357.7-1.1h117.5c19 0 40.7-2.2 59.3.4 3.2 6.8 5.3 8.4 2.4 16-.6 1.6-1.5 2.9-2.4 4.3l19.2.8c1.9 7.6 1.3 13-2.6 20-2 3.3-4.5 6.3-7 9.2-28.8-6.9-69.8-1.2-99.6-1.5l-325.2-.1c-44 0-93 5.4-136.2-1.2a193 193 0 0 0 0 57.7c6.5 6.6 13.4 12.7 17.8 21 3.2 8 6.9 13.1 15 16.7 10.7 4.6 25.1 4 36.5 4.4-12.5 3.5-25 4.1-37.9 5l-10.3-3.7c-23.6-8.2-31.4-23-47.6-40.2 2.3-9.3 0-22.1 0-31.8 0-39.8 16-48 41.2-73.6l2.2-2.3z" style="fill:#d2cbdc"></path><path d="M4722 2447.4c118.9-4.4 238.8-1.1 357.7-1.1h117.5c19 0 40.7-2.2 59.3.4 3.2 6.8 5.3 8.4 2.4 16-.6 1.6-1.5 2.9-2.4 4.3-124 4.2-249 .7-373.1.6-46.4-.1-99.1-5.5-144.7.9-9.8 1.4-14 4.3-20.7 11.4-4.4 4.7-8.5 9.6-13 14.3a193 193 0 0 0 0 57.7c6.6 6.6 13.5 12.7 17.9 21 3.2 8 6.9 13.1 15 16.7 10.7 4.6 25.1 4 36.5 4.4-12.5 3.5-25 4.1-37.9 5l-10.3-3.7c-23.6-8.2-31.4-23-47.6-40.2 2.3-9.3 0-22.1 0-31.8 0-39.8 16-48 41.2-73.6l2.2-2.3z" style="fill:#ee642d"></path><path d="M4288.6 2596c26 2 165.4-3.9 175.4 3.2 30-.7 61-2.1 91 0 .9 6-35.4 79-36 107.3a234.7 234.7 0 0 0 9.1 69.3c5 16.8 24.8 53.2 23.9 67.1-8 2.4-15.3 2.8-23.6 3-12.4-.7-25.3 0-37.8 0l-38.4-1.1c-19.4.3-38.9.7-58.3 1.3-57.8-5.2-168 9.3-216.3-3.6-4.6-18.2-32-35.8-39.2-63.1-12.5-46.7-11.4-98.1 14.1-140.5 39-65 81.2-27.8 132.5-41.8l3.6-1z" style="fill:#e04455"></path><path d="M4464 2599.2c30-.7 61-2.1 91 0 .9 6-35.4 79-36 107.3a234.7 234.7 0 0 0 9.1 69.3c5 16.8 24.8 53.2 23.9 67.1-8 2.4-15.3 2.8-23.6 3-12.4-.7-25.3 0-37.8 0l-38.4-1.1c-1-9.4-8.2-21.5-11.6-30.7-18-49-25-90-11.7-141.7 5.8-22.7 32-55.5 34.6-70.3l.5-2.9z" style="fill:#b4273c"></path><path d="M4177.6 2842.5c48.3 12.9 158.5-1.6 216.3 3.6 19.4-.6 38.9-1 58.3-1.3l38.4 1.2c-39.2 46.1-54.9 96.5-50.4 156.8 1.2 16 12 38.6 9.7 53.3 8.8 9.5 30.8 37.5 31.5 50.2-6.4 1-13.4.6-19.9.8l.1.8c-36.3 0-72.9-.7-109.1 1.2-14-.7-27-.7-40.7 2.6l-.6-.5c-9.8-7-46-2.4-58.4-1-5.9-2.6-14-1.4-20.3-1.2l.8 7.7c-3 2.2-6 4.5-9.2 6.4-6.1-4.7-27-2.8-35.4-2.8-12.8-7.2-38-8.5-53-11-9.8-.3-18.7-1.3-28.4-3.1-2.7-10.8-27.8-33.6-36-43-3.8-17.2-13-33.7-16.8-51.4-10.1-46.6-3.6-98.3 27.1-136.3 7.9-9.7 21.2-17.1 27.5-27.4l1.3-2.4c16.7-.5 53 4 67.2-3.2z" style="fill:#fac356"></path><path d="M4347 3056.2c10.9 11.8 24 35 28.7 50.3 28.3-.3 57.7-2 85.8.6l.1.8c-36.3 0-72.9-.7-109.1 1.2-14-.6-27-.7-40.7 2.6l-.6-.5c-9.8-7-46-2.4-58.3-1-6-2.6-14-1.4-20.4-1.2l.8 7.7c-3 2.2-6 4.5-9.2 6.4-6.1-4.7-27-2.8-35.4-2.8-12.8-7.2-38-8.5-53-11-9.8-.3-18.7-1.3-28.4-3.1-2.7-10.8-27.8-33.6-36-43 40.7-5.8 261.2 3.9 275.7-7z" style="fill:#f4a63c"></path><path d="M4135.7 3109.3c31.2-1 65.7-4.3 96.8-.3l.8 7.7c-3 2.2-6 4.5-9.2 6.4-6.1-4.7-27-2.8-35.4-2.8-12.8-7.2-38-8.5-53-11z" style="fill:#17a195"></path><path d="m4452.2 2844.8 38.4 1.2c-39.2 46.1-54.9 96.5-50.4 156.8 1.2 16 12 38.6 9.7 53.3 8.8 9.5 30.8 37.5 31.5 50.2-6.4 1-13.4.6-19.9.8-28.1-2.7-57.5-.9-85.8-.6a160.6 160.6 0 0 0-28.7-50.3c5-17.2-10.8-82.2-2.4-119.5 8-35.8 47.4-81.6 49.3-90.6 19.4-.6 38.9-1 58.3-1.3z" style="fill:#f78546"></path><path d="M5275.8 2445.8c38.5-39.5 70.8-82.3 116.2-115 16.1-11.6 78.5-47.5 85.7-59.9 20.1 27 20.3 211.2 15.2 247.8-.5 3.7-1.4 6.6-2.5 10.1 7 40.9-19.4 183-35.3 225.7-5.3 12.5-18.6 22.3-29.8 29.2 3.1 1.8 11.8 5.4 12.6 8.7 1.5 6.8-31.4 169-37.5 179.5-1.8 18.7-67.6 87.9-84.1 104.6l-.5-.6c-7.6-6-16.6-4.6-26-5.2-1.3-3.3-3.4-5.2-5.7-7.8-3.4-8.9-9.7-16-16.9-22l.6-2c1.7-10.7-6-37.5-11.7-46.5l1.1-2.5c4.2-10 3-14.8-.7-24.8 8-13.4 9.4-36.4 14.6-52.2 4-12.2 13-24.6 13.7-37.2 12.7-.7 27-.2 36.6-9.6 2.3-6.9 1.8-10.2-.1-17.1-12.7-13.7-36.3-8.7-54.1-9.5v-1.6c-1.9-8.7-13.8-15-20.8-19.2 0-11-10.7-26-14.4-36.9-6.7-19.7-10-39-10.1-59.8-.2-14.1-.1-29.3 3.4-43 4-15.5 19.3-38 18.4-52.6 11.5-5.4 22.5-10 34.7-13.6l9.6-2.2 3.4-5.3c-3.2-7.1-6.2-8.5-12.4-13-.7-5.5-3.1-6.9-6.8-10.8l.8-2.3c1.8-10-4.3-21.3-9.4-29.4a90.8 90.8 0 0 0 2.5-52.8c2.5-2.9 5-5.9 7-9.2 3.9-7 4.5-12.4 2.6-20l-19.2-.8c.9-1.4 1.8-2.7 2.4-4.3 2.9-7.6.8-9.2-2.4-16l19.3-1z" style="fill:#1db4a4"></path><path d="m5256.5 2446.7 19.3-1c6 4.2 7.1 3.8 8.7 11.2-2.7 4-5.2 7.7-8.8 11l-19.2-1c.9-1.3 1.8-2.6 2.4-4.2 2.9-7.6.8-9.2-2.4-16z" style="fill:#fac356"></path><path d="M5284.1 3062.9c.6-.5 1.3-1 1.8-1.6 14.5-15.6 9.8-62.5 10.3-83 1.7-78.2 76.3-143.8 129-194.6 3.2 1.8 11.9 5.4 12.7 8.7 1.5 6.8-31.4 169-37.5 179.5-1.8 18.7-67.6 87.9-84.1 104.6l-.5-.6c-7.6-6-16.6-4.6-26-5.2-1.3-3.3-3.4-5.2-5.7-7.8z" style="fill:#17a195"></path><path d="M4210.5 671.5c3.7-1 6.5-3 10-1 27.8 15.6 240.2 159.4 251 173.9 45-1.1 315.9-17.6 337.3-11.3l1.4 5.2c1.3 9.7 2 11-4.1 19l-2 2.4c5.2 16.3-31.4 144.3-37.9 170.7-7.5 7.2-16.6 8.4-26.4 10.8-72.4 29-185.1 27.9-261.2 15-34.2-5.7-67.4-15.8-101.4-22a12.1 12.1 0 0 0-5.4-5c-51.5-24.5-103.3-44.2-148.7-79.8-28.5-22.4-54.2-53.4-84.5-72l2.2-2.2c10.7-11.2 65.5-168.7 65-186.4 4.6-7.5 5-8.6 4.7-17.3z" style="fill:#254ca6"></path><path d="M4210.5 671.5c3.7-1 6.5-3 10-1 27.8 15.6 240.2 159.4 251 173.9 45-1.1 315.9-17.6 337.3-11.3l1.4 5.2c1.3 9.7 2 11-4.1 19l-2 2.4c-13.8 6.9-317.8 36.1-354.7 40-8.3-25-211.9-176.8-243.5-211 4.5-7.4 4.8-8.5 4.6-17.2z" style="fill:#3a3f6d"></path><path d="M5279 2592.2c6.2 4.6 9.2 6 12.4 13l-3.4 5.4-9.6 2.2a230.3 230.3 0 0 0-34.6 13.6c.8 14.6-14.4 37.1-18.4 52.5-3.6 13.8-3.7 29-3.5 43.1.2 20.9 3.4 40.1 10.1 59.8 3.7 10.9 14.4 25.9 14.4 36.9 7 4.2 19 10.5 20.7 19.2.1.5 0 1 0 1.6-12.8 6-464.6 5.5-504.3 2.7-20.8 2.9-43 .8-64 0-33.8 3-69.5.6-103.4-.2-14.2 1.4-29.1.7-43.4 1 .9-14-19-50.4-23.9-67.2a237 237 0 0 1-9-69.3c.5-28.3 36.8-101.3 36-107.2 18.5-.6 37-1.5 55.5.3 29.2-.3 58.4-1 87.5.2 19-2 37 4.2 55.2 8.6l-1.4-5-15.4-4.4c13-.9 25.4-1.5 38-5 70.5-.1 485.1 6.5 504.5-1.8z" style="fill:#f0e2d4"></path><path d="M5279 2592.2c6.2 4.6 9.2 6 12.4 13l-3.4 5.4-9.6 2.2a230.3 230.3 0 0 0-34.6 13.6c-160 0-321.3-4.3-481.1.3l-2.2 2.6c-5.6 6.4-13.2 10.7-18.9 17.1-18 20-25.4 53.8-23.7 80 1.6 26.7 10.6 56.6 29.6 76 4.2 4.4 13.4 10.8 15.9 16 160.4 4.4 322.5 2.5 483 .3 7 4.2 19 10.5 20.7 19.2.1.5 0 1 0 1.6-12.8 6-464.6 5.5-504.3 2.7-20.8 2.9-43 .8-64 0-33.8 3-69.5.6-103.4-.2-14.2 1.4-29.1.7-43.4 1 .9-14-19-50.4-23.9-67.2a237 237 0 0 1-9-69.3c.6-28.3 36.8-101.3 36-107.2 18.5-.6 37-1.5 55.5.3 29.2-.3 58.4-1 87.5.2 19-2 37 4.2 55.2 8.6l-1.4-5-15.4-4.4c13-.9 25.4-1.5 38-5 70.5-.1 485.1 6.5 504.5-1.8z" style="fill:#d7372c"></path><path d="M5279 2592.2c6.2 4.6 9.2 6 12.4 13l-3.4 5.4-9.6 2.2c-22.1-7.2-115.7-2-143.6-2-125.9-.4-251.7-.2-377.5.7l-4-3-1.4-5.1-15.4-4.4c13-.9 25.4-1.5 38-5 70.5-.1 485.1 6.5 504.5-1.8z" style="fill:#f1724d"></path><path d="M4698.1 2599.8c19-2 37 4.2 55.2 8.6l4 3c-3.7 2.8-7.4 5.6-11.2 8.2-24.3 16.2-39.7 46.8-45.3 74.9a128 128 0 0 0 18.5 96.5c8.3 12.4 41.5 41.4 43.5 51.2-20.8 2.9-43 .8-64 0 .4-4.7-37.7-81.4-37.7-121-.1-30.7 9.8-65.3 23.4-92.6 3.6-7.4 10.2-14.4 13.1-21.8 1-2.5.7-4.4.5-7z" style="fill:#e04455"></path><path d="M4555 2599.3c18.6-.6 37-1.5 55.6.3 29.2-.3 58.4-1 87.5.2.2 2.6.5 4.5-.5 7-2.9 7.4-9.5 14.4-13.1 21.7a219.6 219.6 0 0 0-23.4 92.7c0 39.6 38.1 116.3 37.7 121-33.8 3-69.5.6-103.4-.2-14.2 1.4-29.2.7-43.4 1 .9-14-19-50.4-23.9-67.2a237 237 0 0 1-9-69.3c.5-28.3 36.8-101.3 36-107.2z" style="fill:#b4273c"></path><path d="M4555 2599.3c18.6-.6 37-1.5 55.6.3l-.7 2.7c-3 9.7-14 21.6-19 31.3a198 198 0 0 0-16.4 149c4.8 17.2 21.1 43.7 20.8 59.4-14 1.4-29 .7-43.3 1 .9-14-19-50.4-23.9-67.2a237 237 0 0 1-9-69.3c.5-28.3 36.8-101.3 36-107.2z" style="fill:#e04455"></path><path d="M4440.8 510.4c46.5-.7 92.8-3.4 139.2-4.2 15.3 4.3 331.2 204 337.9 213.4 10 16.6 13.8 84.3 8.5 105.6l-1 3.7-9.4 1c-10.1-6-82-1.9-94.8 1-4.4 1-7.8 4.2-11 7.4l-1.4-5.2c-21.4-6.3-292.4 10.2-337.4 11.3-10.7-14.5-223.1-158.3-250.9-174-3.5-2-6.3 0-10 1 0-2.5-.7-5.3-1.2-7.8-28.5-25.7-62.7-47.4-93.8-69.8-30.5-22.1-61.7-48.4-95-66.1 99.9-1.6 199.9-7.5 299.7-11.4 32-1.3 92.6 2 120.6-6z" style="fill:#325cba"></path><path d="M4482.3 646.1c25.5-3.6 48.6 4.3 72.1 13.7 16.1 6.5 42.5 16.8 49.7 34-1.7 8.2-3 7.8-9.7 12.4-8 3.7-19.2 1-27.6-.6-24-4.6-71.6-19-84.5-42-3.9-7-2.2-10.5 0-17.5z" style="fill:#050f45"></path><path d="M4930.2 1751c70.7-8.2 142.9 9.2 199 54a265 265 0 0 1 26.2 24.6 236.9 236.9 0 0 1 34.8 48.7 267.5 267.5 0 0 1 14.8 32.8 221.1 221.1 0 0 1 9.8 34.6 259.4 259.4 0 0 1 3.7 23.7c7.2 64.5-12 127.2-52.8 177.6-36.5 45.3-93.6 83.3-152.4 89.6-1.1.4-2.7 1.1-4 1.4-50 13-120.4-8.5-162.5-35.2a233.7 233.7 0 0 1-47.5-39 265.4 265.4 0 0 1-23.3-28.5 235.5 235.5 0 0 1-28.4-54.5 229.4 229.4 0 0 1-10.2-35.5c-13.7-65.8-2.3-137.3 35.5-193.4 37.4-55.6 92.6-88 157.3-101z" style="fill:#fefefe"></path><path d="M5111 2029.3c4.8-.4 9.5-.2 14.2-.1 6.5 3.9 8.4 4.3 11.6 11.3-3.2 8-4.5 8.4-11.8 13-7.7.5-11.1-1-17-5.8-1.4-8.6-.4-10.2 3-18.4zM5047.8 2105.5c4.1-1 9-2.6 13.3-2.4 7.8.3 11.7 3.4 16.5 9-1.6 7.7-3.1 8.5-8.5 14-2.3 2.7-4.8 3.4-8 4.8l-6.6-2.9c-6-7.8-6.7-12.8-6.7-22.5zM5108.7 1941.4c5.2-1 10-1 15.3-1 7.6 4 9.5 4.2 13.4 12.1-2.3 7.2-3.8 8-9.2 12.9l-3 .6c-7.4.8-10-1.6-15.6-5.6-2.8-8.4-2.6-10.3-.9-19zM5056.2 1859.3c5.3-.3 11.1-.5 15.6 3 5.6 4.6 6.1 7.6 6.4 14.5-4.8 7.8-6.7 7.9-15.5 11.4-6.8-1.6-8.8-2.9-13.4-8.2-1-8.9 2.3-13.3 6.9-20.7zM4967.7 1830c5.7-1.5 11-3 16.7-.1 6.7 3.5 8.5 8 10.7 14.6-2.6 8.8-3.1 9.4-10.4 15-2 .7-2.9 1.1-5.1 1.3-6.4.4-9.2-2.3-13.5-6.5-2.7-9.5-1.5-15 1.6-24.3zM4879.7 1859.3c7.5-1 10.7-.5 17.4 3 5.6 7.3 6.3 8.4 7 17.6-4.5 8.4-5.3 9-13.8 13.3-7.4-2-11.5-5.9-15.7-12.1-.7-10 .8-12.5 5.1-21.8zM4884 2096.7c6.8-1.4 9.5-1.3 16 1 4.4 5.4 8 8.8 6.5 16.4-1.6 8.4-6.6 11.1-13 15.6-1.3.1-2.6.4-3.9.3-6.7-.3-9.4-3.6-13-8.6-.9-10.1 2.8-16.2 7.4-24.7zM4968.5 2126c7.3-.7 13.3-2.5 19.4 2.8 5.9 5.2 6.4 9.1 7.1 16.3-4 8.7-5.1 8.7-13.7 13.1l-1.6.2c-7-.7-9.5-2.5-14-7.6-2.5-9.5-.2-15.8 2.8-24.8zM4824.5 2029.3c6.5-1 14.9-3 20.6 1.2 6.4 4.7 7 7 7.6 14.6-4.9 7.6-7 8.4-15.2 12.4-6.3 1.5-7.4 1.7-13.5-.1-1.4-2-3.2-4.2-3.8-6.6-2.3-8.8.7-13.8 4.3-21.5zM4816.5 1932.6c7.4-1.8 14.2-3.5 21.3.2 7.9 4.1 9.5 6.4 12.4 14.3-2.5 7.5-3.6 8.2-9.5 13-2.6.4-5.5 1-8.2.7-8.2-1-11-3.5-16.5-9a26.7 26.7 0 0 1 .5-19.2zM4951.4 1894.5c28.1-3.9 54.8-2.1 79.3 13.5 23.4 14.9 39.1 39.7 44.7 66.7 5.4 27 .8 56-14.8 79a98.8 98.8 0 0 1-64.9 40.8 112.7 112.7 0 0 1-60.4-6 98.4 98.4 0 0 1-57.5-69 87.2 87.2 0 0 1-2.5-15.5 116.2 116.2 0 0 1 .2-20.9 87.3 87.3 0 0 1 2.8-15.4 159.4 159.4 0 0 1 5.2-14.8c13.7-31.3 37-46.6 68-58.4z" style="fill:#325cba"></path><path d="m2820.1 382 29.9 6c148.3 21.4 295.7 50.5 444.1 71l42.2 40.3L3562 726.6l18 18.8V885c21.5 17.7 22 39.6 24.6 65.8 4.3 43.5 11.5 91.1 9.9 134.7-6.5 4.2-18 2.3-25.5 2.1-2.7-11.5-11.7-16-21-22 .2-56.6 6.1-118.4-.7-174.3-5-5.3-13.3-5.7-20.2-7 .4-41.4.5-82.8.5-124.2-49.6-11.6-100.7-18.5-149.5-32.8-23.3 37.5-44.7 88.4-60 129.7-4 7-8.6 17.3-17.2 19.3-8 1.7-17.4.4-25.6-.2l.8-1.8c-43.8-2.7-88.3-16.8-130.2-28.6-96.3-34.9-194.7-77.5-258-161.9-3.2-7.5-5.1-15.6-7.4-23.5 3.6-5 6-11.2 8.7-16.7 19.2-39 37.7-79 59.7-116.5l4.7-11.8A8566.2 8566.2 0 0 1 2820 382.1z" style="fill:#254ca6"></path><path d="m2973.5 515.2 2.7 2c48.3 35.3 142.2 140.7 189 160.2 26.3 11 58.4 14 86.5 19 41.4 9 106.7 28.4 146.3 30.8-23.3 37.5-44.7 88.4-60 129.7-4 7-8.6 17.3-17.2 19.3-8 1.7-17.4.4-25.6-.2l.8-1.8c-43.8-2.7-88.3-16.8-130.2-28.6 29.9-37 52.1-89.2 75-131.3-22.9-14-55.8-10.4-80.6-21.3-35.8-15.7-116.2-100.6-145.8-129.8-13.8-13.6-27.3-29-45.6-36.2l4.7-11.8z" style="fill:#138cdb"></path><path d="M3251.7 696.4c41.4 9 106.7 28.4 146.3 30.8-23.3 37.5-44.7 88.4-60 129.7-4 7-8.6 17.3-17.2 19.3-8 1.7-17.4.4-25.6-.2l.8-1.8c15-11.3 56.1-107.4 68.8-131.5-40.4-10.9-81.8-17-122-28.7l8.9-17.6z" style="fill:#217fcd"></path><path d="M2968.8 527c18.3 7.1 31.8 22.6 45.6 36.2 29.6 29.2 110 114.1 145.8 129.8 24.8 10.9 57.7 7.4 80.7 21.3-23 42.1-45.2 94.2-75.1 131.3-96.3-35-194.7-77.5-258-161.9-3.2-7.5-5.1-15.6-7.4-23.5 3.6-5 6-11.2 8.7-16.7 19.2-39 37.7-79 59.7-116.5z" style="fill:#3a9ce0"></path><path d="M2850 388c148.3 21.4 295.7 50.5 444.1 71l42.2 40.3L3562 726.6c-58 1-123-20.5-179.5-33.3-44.8-10.1-89.6-20-134.5-29.6-23-5-50.1-8.5-71.8-17.4-38-15.6-154.2-122.7-193.6-155-43.3-35.5-88.2-69.1-132.5-103.3z" style="fill:#325cba"></path><path d="M5267.2 2839.5c17.8.8 41.4-4.2 54 9.5 2 7 2.5 10.2.2 17.1-9.6 9.4-23.9 8.9-36.6 9.6-.6 12.6-9.7 25-13.7 37.2-5.2 15.8-6.6 38.8-14.6 52.2 3.7 10 5 14.9.7 24.8l-1.1 2.5c5.6 9 13.4 35.8 11.7 46.4l-.6 2.1c7.2 6 13.5 13.1 16.9 22 2.3 2.6 4.4 4.5 5.7 7.8 9.4.6 18.4-.7 26 5.2l.5.6c4.9 2.9 11.2 5.8 15.5 9.4.6 8.3 1.2 10-2.7 17.7l-3.6 4.8-3.3 1c-8.7-.5-17.6 0-26.3.1-19.6-1.4-39.2-.5-58.7 0-39.9-7-121.3-1-165-1.4L4736 3107c-68.2 0-137 2-205.1-.7-15.9 2.2-33.5.4-49.5 0-.7-12.6-22.6-40.6-31.5-50 2.3-14.8-8.5-37.4-9.7-53.4-4.5-60.3 11.2-110.7 50.4-156.8 12.5 0 25.4-.8 37.8 0 8.3-.3 15.6-.7 23.6-3 14.3-.3 29.2.4 43.4-1 33.9.8 69.6 3.2 103.4.1 21 .9 43.2 3 64 .1 39.7 2.8 491.5 3.3 504.4-2.7z" style="fill:#f0e2d4"></path><path d="M5256 2992.4c-19.6-7.7-107-2.2-131.8-2.3l-323.3-.6c-63.4-.2-128.6 2.6-191.7-3l-1-4-4.8 2.2c10-6.6 28.6-7.3 40.4-8 50.6-2.7 103.8.8 154.7.8l356.1-.7c23-.1 85.2 6 102.5-2.7l-.6-9c3.7 10 5 14.9.7 24.8l-1.1 2.5z" style="fill:#dac2c8"></path><path d="M5267.2 2839.5c17.8.8 41.4-4.2 54 9.5 2 7 2.5 10.2.2 17.1-9.6 9.4-23.9 8.9-36.6 9.6l-475.2.8-141.4.6c-22.6 0-47.7-2-70 1.2-8.5 1.1-16 4.5-22.2 10.5-7.4 7.2-13.9 15-22 21.4l-.3 1.7c-1.9 12.3-8 23.2-11.3 35-9.5 34.2 6.4 63.1 15.6 94.8 60.7-3.4 122.9-.7 183.7-.5l342.2 1.1c52.1.2 135.2 5.7 183.3-1.4 7.2 6 13.5 13.1 16.9 22 2.3 2.6 4.4 4.5 5.7 7.8 9.4.6 18.4-.7 26 5.2l.5.6c4.9 2.9 11.2 5.8 15.5 9.5.6 8.2 1.2 10-2.7 17.6l-3.6 4.8-3.3 1c-8.7-.5-17.6 0-26.3.1-19.6-1.4-39.2-.5-58.7 0-39.9-7-121.3-1-165-1.4L4736 3107c-68.2 0-137 2-205.1-.7-15.9 2.2-33.5.4-49.5 0-.7-12.6-22.6-40.6-31.5-50 2.3-14.8-8.5-37.4-9.7-53.4-4.5-60.3 11.2-110.7 50.4-156.8 12.5 0 25.4-.8 37.8 0 8.3-.3 15.6-.7 23.6-3 14.3-.3 29.2.4 43.4-1 33.9.8 69.6 3.2 103.4.1 21 .9 43.2 3 64 .1 39.7 2.8 491.5 3.3 504.4-2.7z" style="fill:#f78546"></path><path d="m4497.7 3051 2.5 2.7c6.4 12.9 30 40.4 30.7 52.5-15.9 2.2-33.5.4-49.5 0-.7-12.6-22.6-40.6-31.5-50 14.7.7 33.9-.1 47.8-5.2z" style="fill:#f4a63c"></path><path d="M4490.6 2846c12.5 0 25.4-.8 37.8 0 1 13-33.6 63.5-37.6 86.7a264 264 0 0 0 1.4 87c1.7 10 5.4 21 5.5 31.3-14 5-33 6-47.8 5.1 2.3-14.7-8.5-37.3-9.7-53.3-4.5-60.3 11.2-110.7 50.4-156.8z" style="fill:#fac356"></path><path d="M4558 3041.7c60.7-3.4 122.9-.7 183.7-.5l342.2 1.1c52.1.2 135.2 5.7 183.3-1.4 7.2 6 13.5 13.1 16.9 22 2.3 2.6 4.4 4.5 5.7 7.8-11.3 4-647 2.7-706.7.7-2-8.4-18.7-22.8-25-29.7z" style="fill:#f8d7ab"></path><path d="M3338 856.9c32.2 43.3 66.6 86.4 84.4 138 27.7 80.4 7 143.4 65.8 219.7 52.6 68.3 177.8 97.5 200.4 176.3 4.2 14.6 4.7 30 2.5 45-6.9 46.3-35.6 89-3.7 133.2 15.8 22 41 39 61.5 56.8 63.8 55.2 88.8 125.8 76.3 209.3-12.8 84.6-65.7 134.1-91.4 209.2-5.5-1.4-10.5-8.7-14.5-13l-20.6-22a642.3 642.3 0 0 0-194.2-128.6c-31.6-12.8-64.1-23.5-96.2-34.9-75.4-24.9-153-40.2-231.1-53.3-4.8-1-9.4-2.2-14.1-3.4-9.7-7.8-12.2-20.2-15.9-31.6-20.7-54.5-28-110-31.3-167.9 72-60.1 115.6-120.6 151-207.7l16-2.8c30.6-5.9 56.9-28.5 73.7-54 27-40.7 33.2-87.5 23.3-134.8 8.6-77.7-14-156.9-45.3-227.4-7.9-17.8-40-71.2-39.4-87 8.2.6 17.6 2 25.6.2 8.6-2 13.2-12.4 17.3-19.3z" style="fill:#050f45"></path><path d="M3698.7 2009.4c29-70.4 75.2-127.7 77.6-207.5 3.7-121.7-66.3-117.3-128.4-184.6-66.4-71.8-11.2-116.8-9-184.4 2.3-73.5-104-107-148.4-154.7-24.3-26-48.6-72.6-47.3-109.4 70.8 140.4 159.4 118.6 219.8 204.4 39.2 55.7-19 112.7-4.3 171.4 21.3 85.6 141.5 96 153.6 225.6a261.2 261.2 0 0 1-12.7 104.8c-18.6 56.3-56.7 102.6-80.3 156.4l-20.6-22z" style="fill:#cee9ee"></path><path d="M3384.2 1310.4c16.8-35.5 26.7-67.1 38.5-104.3 3.1-9.6 10.7-37.5 19.4-42l1 4.7c-1.2 36.8 23 83.3 47.4 109.4 44.3 47.7 150.7 81.2 148.4 154.7-2.2 67.6-57.4 112.6 9 184.4 62.1 67.3 132.1 62.9 128.4 184.6-2.4 79.8-48.6 137.1-77.6 207.5a642.3 642.3 0 0 0-194.2-128.6c21.4-16.3 51.3-64.6 55.6-91.5 22.7-143-161-125.5-200-182.7-35.6-52.4 49.3-132.8 58.4-185.1 7.8-45-9.4-75.5-34.3-111.1z" style="fill:#202758"></path><path d="M4377.2 1034.2c34 6.2 67.2 16.3 101.4 22 76 12.9 188.8 14 261.2-15 24.2 16.3 50.6 11.5 77.6 18l.8 4.2c4.3 28-.9 121.8-1 156.5-.3 109.3 3.5 219.8 0 329a41.6 41.6 0 0 1-4.5 19.2c-103-2.3-206.6-.1-309.7-.1l-603.5.1-.1-531.3c55.5 0 461 5.1 477.8-2.6z" style="fill:#f4a63c"></path><path d="M4679 1094.5c21-3.7 46.2-1.7 67.8-1.7 1.3 2.1 2.5 4.1 3.2 6.6 4.7 16.8 2.4 331.5.6 369.4-.3 5.3-1.3 8-3.8 12.7l-2 2.3c-17.7 5.8-49 1.8-68.1 1.6.4-.7 1-1.4 1.3-2.2 5.9-11.4 7.9-364.8 1-388.7z" style="fill:#0d8085"></path><path d="M3937.3 1081.1c222.1-.5 444.2.5 666.3 3 2 3.2 3.6 6.2 4.3 10 6 36 1 96 1 134.3 0 83.2 4.4 169-.3 251.9-.4 6-1.8 10.6-5 15.7-21.8 6.4-142.9 1.2-172.9 1.2l-493.3.3-.1-416.4z" style="fill:#fac356"></path><path d="M4003 1172.8c67.1-6.5 139.8-1.2 207.5-1 94 0 189.3-3.4 283-.3 6.7.2 15.2-.6 20.6 3.7 1.4 9.1 1.7 16.7.5 25.9l-7.9 5.3c-168.1-2.4-336.9-1.3-505.1-.1 6-10.3 4.2-22.5 1.4-33.5zM4002 1246c55.5-3.9 113.2-.9 168.9-1l340.2.3c.9 1.7 1.6 3.4 2.2 5 3.9 10.7 1.2 19-3.5 28.8-12.5 6.1-461.8 1.8-507.5 2 5.4-10.2 2.2-24.5-.3-35.1zM4003 1321.8c54.9-6.2 115-1.5 170.7-1.5l337.8.7c1.1 2.2 2 4.3 2.7 6.7 3.2 10.6 1 18.3-4.2 27.6-29.5 6.5-110 1.4-144 1.4l-363 .2 1.6-3c5-10.2 1.6-22-1.7-32z" style="fill:#fefefe"></path><path d="M2616.8 802.3c75.9-87.3 174.5-150 292.3-158.8-2.7 5.5-5.1 11.7-8.7 16.7 2.3 7.9 4.2 16 7.5 23.5 63.2 84.4 161.6 127 257.9 162 42 11.7 86.4 25.8 130.2 28.5l-.8 1.8c-.6 15.8 31.5 69.2 39.4 87 31.2 70.5 53.9 149.7 45.3 227.4 10 47.3 3.6 94-23.3 134.9-16.8 25.4-43 48-73.7 54-5.3 1-10.7 1.7-16 2.7-35.4 87-79 147.6-151 207.7 3.4 57.9 10.6 113.4 31.3 167.9 3.7 11.4 6.2 23.8 15.9 31.6 4.7 1.2 9.3 2.5 14 3.4 78.3 13.1 155.8 28.4 231.2 53.3 32 11.4 64.6 22.1 96.2 34.9a642.3 642.3 0 0 1 194.2 128.6l20.6 22c4 4.3 9 11.6 14.5 13l.9 1.7c8.3 15.7 21 29.9 31.4 44.3 19.7 27.4 38.9 55.5 55 85.2 99.8 184.3 182 382.9 257.4 578.3 9 23.3 31.5 68 32 91.8l-1.4 2.4c-6.3 10.3-19.6 17.7-27.5 27.4-30.7 38-37.2 89.7-27.1 136.3 3.8 17.8 13 34.2 16.8 51.4 8.2 9.4 33.3 32.2 36 43-4 8.5-9.6 10-17.5 14.3-31.4 19.1-28.7 51.1-45 79.8 9.1 25.1 8.8 50.6 20.6 79.3 7.4 8 18.7 17.4 24.3 26.4-14 10.9-31.3 25.2-47.7 32-88.3 54.2-270 118.5-372.5 135.3-14 1.5-28.1 3.3-42.2 4.4-37.4-5.7-78.4-.6-116.3-1.6l6.3-21.6c-378.6 10.4-757.8-1.2-1136.5 3.3-43-2-87-.3-130.2-.6l-18 2.4 8.5 20.8c-37.1-1.4-72.2-5.7-107.7 7.7-8.8 15.2-12 26.8-7.6 44.7a99 99 0 0 0 2 7c-30.3-.6-80.9 4-108.4-5-.7-7-2.8-11.9-5.8-18.2-9 0-17.3-4.2-25.5-7.4l-11.3 22.2c-6.5 21-8.5 38.2-6.8 60-53.4-19.8-136.9-36.5-193.8-50.2-41.1 7.6-85 4.8-126.8 4.8l-185.8-.2c-60.5 0-126.3 5.3-186.4-.8-41.4 2.4-83.6.6-125 .6l-217.3-.3c-10.5-6.6-20.5-13.9-30.5-21.2-58.4-39.6-94-101.3-129.1-160.4.2-6.6-3.7-14.8-5.7-21.1a649.2 649.2 0 0 1-25.9-117.4l1-13.6c-3.7-36.3 3-72.4 9-108l3.4-9.7c3.6-26 11.2-52.5 17-78.2l38-.4c-18-31.5-187.6-154.3-231.2-181.4a934.7 934.7 0 0 0-82.7-46l.5-8-1.5-1.2c-40-66.2-66.4-145.2-89.8-218.7l-2.6-5c-20-62.2-42.5-134.4-47.8-199.6l-.8-2.5c-17.2-60.5-26.7-184.2-26.2-249.5 7-2 17.5 3.9 24.5 6.4 1.7-3.3 17.7-129.2 22.9-150.8 40.6-169.8 148.2-330.8 276.2-447.3 23.4-21.3 48.8-45 75.8-61.7l-.1-50.9c54.8.4 109.5 0 164.3-1 24.5-15.6 67.3-25.8 85.7-47l.7-.7c24.7-21.3 255.1-116.8 300-135.9-25.6-60.9-57.3-120.8-85-181 44.2-14.2 85-43.5 129.3-59.9l-.1-220.6 152 .7c34.4-.7 108.5-6 139.2 1.2a227.8 227.8 0 0 0-1 38.1c42.4-18.4 93-39.7 138.2-49 6.3 17.1 14 34.7 17 52.7l-3 6.5 3 12c42.5-13.3 84.3-29.4 127.1-41.2 155-42.9 284.5-30 439.7 2.4 95.8 20 182 35 280.4 25.9z" style="fill:#cee9ee"></path><path d="M1380 1792.4c14 0 24.8-.3 35.6 10.4 4.2 4 6.4 8.4 8.5 13.8-.5 7.7-.9 8.6-5.6 14.8-9.1 5.3-17.7 4.4-27.9 3.6l-1.6-1.5c2.2-17-7.2-25-9-41.1z" style="fill:#f78546"></path><path d="M1434.6 3116.3c16.9-3.9 34.5-4.6 51.7-6.1-13.9 23.3-27.5 46.9-42.8 69.4-4.4-20.7-6.2-42.3-8.9-63.3z" style="fill:#ee642d"></path><path d="M1564 3414.5c10.8-5.6 20.2-7.9 32.3-10l-8.2 24.6c-3.3 16.3-6.5 32.6-9 49.1-8-2.4-15.8-5.3-23.6-8-.4-19.7 3.4-36.7 8.4-55.7z" style="fill:#fefefe"></path><path d="M1485.3 3429.5c26-6.2 52.2-10.7 78.6-15-5 19-8.8 36-8.4 55.7a884.3 884.3 0 0 1-70.2-40.7z" style="fill:#325cba"></path><path d="M2121.9 952.2c14.4-10.2 30-24 49-20.3 5.3 1 10.1 3.7 13 8.4 4.5 7 3.5 16.3 1.2 23.8-2.4 8-9 19.8-16.9 23.6-6.7 3.2-13.6 1.7-20.2-1.2-3.1-1.3-6.1-3.6-8.9-5.6l-1.5-6.7a34.3 34.3 0 0 1-13.4-12.6l-3.3-3.4 1-6z" style="fill:#f78546"></path><path d="M1336 1793.7c-4.3-8.5-9-17-5.4-26.6a21 21 0 0 1 11.2-12.5c6.4-3 15.2-1.7 21.3 1.3 7.3 3.6 13.4 11 15.6 18.8a59.7 59.7 0 0 1 1.3 17.7c1.8 16 11.2 24.1 9 41.1l1.6 1.5c5.6 11 10 22.8 14.6 34.3-14.6 7-28.4 15.5-44.9 10.2-16.2-12-15.8-28.5-21.2-46l-.5-1.6c-5.2 4.6-10 9-17.4 8.4-7.5-.7-14-4.9-18.4-10.9-4.5-6.2-7.5-15-6-22.8 1.3-5.7 4.3-9.6 9-12.8 9-6.2 20.5-2.4 30.2-.1z" style="fill:#ee642d"></path><path d="M2100.9 949.5c-4.7-10.2-12.8-24-12.5-35.4.2-9.1 3-14.5 9.2-21 5.2-2.8 9.5-4.3 15.5-4a41 41 0 0 1 28.6 14.5c5 17.3-11.7 33.8-19.8 48.6l-1 6 3.3 3.4c4.1 6 7 9 13.4 12.6l1.5 6.7-1.2 3.8c3.5 11.8 5.8 24.7 1.5 36.7-2.2 6.2-5 6.7-10.3 9.5-11.4.5-27-1.5-36.7-8-20.1-13.4 4.2-28.9 2-43.9-11.2 6-21.9 13-35 12.5-6.6-4.2-9.1-11.3-10.9-18.8-3-13.2-3.1-26.3 4.4-38 2.7-1.9 6.3-5 9.5-5.3 16-1.3 27.3 10.5 38.5 20.1z" style="fill:#f1724d"></path><path d="M1596.3 3404.6c131.2 32.4 261.9 67.2 391.8 104.6l-11.3 22.2c-87.3-26.4-178.5-47-267.1-69.2-38.5-9.5-86.4-16-121.6-33.1l8.2-24.5z" style="fill:#f78546"></path><path d="m2340.4 1295.7 1.1.7c-5.3 13.1-86.7 54-108.8 113-23.5 62.8 25.8 129-3 179l-2.4 4c-12.5 19.2-31.2 32.6-49 46.3-46.7 35.9-99.1 72.7-120.4 130.2-20.7 56-10.2 116.8 18.2 167.7 9.5 17 22.1 32.8 30 50.5l.8 1.8a320 320 0 0 1-61-94.5 198.5 198.5 0 0 1-12.7-91.7c13.6-138.7 155.5-156.3 185-233.1 15.7-41-24.8-106.5-1-168.9 20.5-53.5 73.9-82.6 123.2-105z" style="fill:#050f45"></path><path d="M732.2 1647.3c11.7-.5 22.6.5 33.6 4.7a70.3 70.3 0 0 1 41.5 94.2c-10.5 26-30 38.8-54.8 49.8a82.2 82.2 0 0 1-51.8-13.4 74.2 74.2 0 0 1-31.7-69.9 76.7 76.7 0 0 1 8.8-28c12.4-22 30.8-31 54.4-37.4z" style="fill:#fefefe"></path><path d="M731.6 1695.8c8 .8 16.2 1.8 22.5 7.5 5.6 5.2 8 10.5 7.7 18.1-.3 8-7.4 13.4-13 18.3a31 31 0 0 1-20.2-3.5c-4.3-5.3-6.4-7.3-7.1-14.4-1.2-10.5 4-18 10-26z" style="fill:#cee9ee"></path><path d="M1588.1 3429.1c35.2 17.2 83.1 23.6 121.6 33.1 88.6 22.1 179.8 42.8 267.1 69.2-6.5 21-8.5 38.2-6.8 60-53.4-19.8-136.9-36.5-193.8-50.2-36.4-11.9-171.6-37.8-192.6-52.4-4.1-3-3.6-5.8-4.6-10.6 2.6-16.5 5.8-32.8 9.1-49.1z" style="fill:#ee642d"></path><path d="M771.1 2036.2c15.6-51.4 79.3-214.2 116.8-245.6l5.7 1c-3.2 14.5 6 38.5 9.6 53.5 16.8 70.1 33 140.4 48.7 210.7 7.4 34.6 12.3 69.8 20.4 104.1-29.2-7.2-166-101.6-201.2-123.7z" style="fill:#0e918b"></path><path d="m691.7 2309 28.6 22.8c29 19.5 104.7 94.9 122.6 125.8-6.2 6.8-62.2 262.3-64.8 291.1-33.3-62.8-69.6-123.9-108.8-183.2 11.2-85 16.3-171 22.4-256.4zM357 2355.4c64 12.7 128.2 24.6 191.7 39.3 47.5 59.2 87.4 127.4 128.1 191.5-89.8-14.3-182.7-14.5-272-31.2-20-62.3-42.5-134.4-47.8-199.6z" style="fill:#17a195"></path><path d="m1620.8 2434 4.7 1c8.7 43 6.7 153.8 2.3 200.4-38.8 8.2-77 19.9-114.5 32.7-19.7 6.8-40 15.6-60.2 20.6-4.3 1-7.4.6-11.6-.5l-4.7-5c-34.1 41.4-61.4 88-95.2 129.9 1.3-46.5-7.2-147-21.4-189.4 6.3-10.4 22-21.5 31.5-29.5 78.3-66.4 172.7-124.3 269.1-160.2z" style="fill:#f78546"></path><path d="m1620.8 2434 4.7 1c8.7 43 6.7 153.8 2.3 200.4-38.8 8.2-77 19.9-114.5 32.7-19.7 6.8-40 15.6-60.2 20.6-4.3 1-7.4.6-11.6-.5l-4.7-5 5-5.6c42.4-79.2 128-164.4 179-243.6z" style="fill:#ee642d"></path><path d="M1441.7 2677.6c36.8-13.2 151.8-59.8 182.3-52.4l3.8 10.2c-38.8 8.2-77 19.9-114.5 32.7-19.7 6.8-40 15.6-60.2 20.6-4.3 1-7.4.6-11.6-.5l-4.7-5 5-5.6z" style="fill:#d7372c"></path><path d="M769.8 2041.4c48.4 30.6 157 106.8 203.5 124.5 10.2 25.4 50.1 198.8 46.7 221-4 7.4-4.2 11.5-2.8 19.8l-5.6 3.5-4.7-3c-36.4-36.5-224-130.3-279.5-160a1564 1564 0 0 1 42.4-205.8z" style="fill:#0e918b"></path><path d="M407.4 2560c31.2 1.1 62.7 6.5 93.8 10.3 58.4 7.1 117.3 14.6 176 18.5 47.9 65.3 89.5 145.5 127.7 217-59.1-4.3-118.1-9.4-177.1-15.4-43-4.5-87.4-12-130.6-11.7-40-66.2-66.4-145.2-89.8-218.7z" style="fill:#17a195"></path><path d="m1639 3061.3.6 1.4c9 18.7 9 39.3 22.5 56.5 66.7 85.1 324.2 197.8 428.2 246.5-5.6 44.1-8.1 81.6 14.8 121.5a91.7 91.7 0 0 1-17.1-4.2c-39.4-12.8-78.2-32.5-116.3-49.2-93.3-41-196.2-81.8-280.8-139-23.1-15.5-50.8-37.6-63.3-63.4-26.8-55.1-7-115.9 11.3-170.1z" style="fill:#217fcd"></path><path d="M356.2 2352.9c-17.2-60.5-26.7-184.2-26.2-249.5 7-2 17.5 3.9 24.5 6.4 119.4 46.7 236 110.7 333 195-7 86-10.6 172.2-21 258C604.3 2462 535 2355.8 461 2263.6l-1.2.8c9 25 67.2 97.7 85.8 124-62.8-10.8-126.4-28.5-189.5-35.6z" style="fill:#17a195"></path><path d="M1320.2 2623.7c14.2 42.5 22.7 143 21.4 189.4 33.8-41.8 61-88.5 95.2-130l4.7 5.1c4.2 1.1 7.3 1.6 11.6.5 20.2-5 40.5-13.8 60.2-20.6a985.2 985.2 0 0 1 114.5-32.7c-3.5 47.7-9.2 95-17 142.2l-3.6 15.2c-9.5 47.6-22.4 94.1-37 140.5l-6.3 14.4a869.5 869.5 0 0 1-70.2 150.6l-7.4 11.9c-17.2 1.5-34.8 2.2-51.7 6l-4.8-14.7c-.6-28.3-16-62.2-26.2-88.7-32.9 2.2-65.7 2.4-98.6 2.6l-66-.2c-51-.7-102.2 0-153.2.2l8-31.3a1038 1038 0 0 1 69.4-165.3l7.8-15.3a766.6 766.6 0 0 1 140.6-174.5l8.6-5.3z" style="fill:#ee642d"></path><path d="M1338.8 2830.6c88.9-18.8 180.4-52.5 272-53l-3.6 15.2c-88.6 2.7-170 35.2-255.8 51-6.9 1.3-9.5 2.8-15.5-1.2l-3.4-7.8 6.3-4.2zM1171 2803.5c21 41 43.6 137.2 56.4 186 1 4.8 1.5 9.3 3.5 13.7 27.3-4 54.3-13.3 81-20 81.8-20.9 174.2-48.5 258.3-50l-6.3 14.5c-67.1 7.7-132.4 21.6-198.1 36.8-40 9.3-86.8 29-127.5 28.2-6.5.4-12.2 1.1-18.4-1.4l3.2-4.2c-23.2-61.7-39.2-125.8-59.9-188.3l7.8-15.3z" style="fill:#d7372c"></path><path d="M1093.8 2984.1a1038 1038 0 0 1 69.4-165.3c20.7 62.5 36.7 126.6 60 188.3l-3.3 4.2c6.2 2.5 12 1.8 18.4 1.4l.8 2.5c-51.1-.7-102.3 0-153.3.2l8-31.3z" style="fill:#f78546"></path><path d="M1238.3 3012.7c40.7.8 87.5-19 127.5-28.2 65.7-15.2 131-29.1 198-36.8a869.5 869.5 0 0 1-70 150.6l-7.5 11.9c-17.2 1.5-34.8 2.2-51.7 6l-4.7-14.7c-.7-28.3-16-62.2-26.3-88.7-32.9 2.2-65.7 2.4-98.6 2.6l-66-.2-.7-2.5z" style="fill:#ee642d"></path><path d="M1429.9 3101.5c21.5-2.3 42.1-4.2 63.8-3.2l-7.4 11.9c-17.2 1.5-34.8 2.2-51.7 6l-4.7-14.7z" style="fill:#d7372c"></path><path d="M1311.6 2629c4.6 68.7 15 136.7 19 205.7a1859.7 1859.7 0 0 0-64.1 93.6c-12.8 20-24.7 42.4-39 61.2-12.9-48.7-35.6-145-56.5-186a766.6 766.6 0 0 1 140.6-174.5z" style="fill:#f78546"></path><path d="M893.6 1791.6c85 51.4 159.6 135.8 218.3 215-19 20.6-105.7 107.6-113.5 127.7 6.4-9.5 21-20.5 29.8-29.7 29.2-30.6 57-62.9 87.3-92.4a1024.3 1024.3 0 0 1 109.6 183.4c-34.5 24.8-138.9 149.9-168.4 189v1.7c59-59.9 114-126 169.2-189.4a1072.1 1072.1 0 0 1 70.9 216c-16.1 17.3-195.4 251.6-196.5 255-8.1 13.2-18.4 23.4-27.4 35.6-6.6-23.7-8.3-50.9-11.7-75.3-7.5-55-16.2-109.7-26-164.3-4.4-25.1-7.2-52.9-15.2-77 3.4-22.2-36.5-195.6-46.7-221 4.8-8.9 12.5-15 17-24.6l-18 18.6c-8-34.3-13-69.5-20.4-104-15.6-70.4-31.9-140.7-48.7-210.8-3.5-15-12.8-39-9.6-53.5z" style="fill:#0d8085"></path><path d="M1652 1856.1c47.2-5 100.5 11.8 139.6 37.6a233.2 233.2 0 0 1 106.5 199.4 238.8 238.8 0 0 1-24.6 104 241.5 241.5 0 0 1-18.1 31c-41.4 59.8-98.6 88.8-168.7 101.5-62.2 2-115.8-9-165.7-48.6a231.2 231.2 0 0 1-70-92.5 231.4 231.4 0 0 1-18-80.2 254 254 0 0 1 56.3-172.2c40-48.5 101.3-74 162.7-80z" style="fill:#fefefe"></path><path d="M1820.8 2048.5c4.8.5 8 2 12.3 4-11 13.8-29.5 14.9-46.1 18-4.3 0-7.1-1.6-11-3.4l2-4.3c13-7.3 28.4-10.4 42.8-14.3zM1658.9 1913.8c6.1 1.4 6.8 1.4 11 6 4 17.7 1.6 36.7.6 54.6l-6.4.2c-10.2-13-5.6-44.4-5.2-60.8z" style="fill:#f4a63c"></path><path d="M1598 2193.8c3.3 3 3.2 4.2 4.4 8.3a94.5 94.5 0 0 1-32 46.2c-1.9-3.1-4.2-5.5-4.4-9.3-.5-13.2 23.3-35.4 32-45.2zM1762.6 2139l1.7-.2c16-.7 40.1 10 51.9 20.8 4.5 4.2 3.4 6.8 3.7 12.7a123.8 123.8 0 0 1-32.1-11.4c-11.7-5.4-20.6-9.6-25.2-22z" style="fill:#fac356"></path><path d="m1577.1 2038.3.8 1.5c6 11.8 7.9 25 12.5 37.3 8.5 22.1 33.8 45.2 56 53a78.7 78.7 0 0 0 61-5.9c36.4-18.3 37.9-44.7 49.3-53.6 2-1.5 4.6-1.7 7-2.5 2 22.7-1 45.6-11.1 66.3a95 95 0 0 1-71.4 52.3 99.2 99.2 0 0 1-62.3-10 100.1 100.1 0 0 1-50.3-58.6 108 108 0 0 1 8.5-79.8z" style="fill:#f4a63c"></path><path d="M1577.1 2038.3a91.8 91.8 0 0 1 55.6-47c26.9-8.1 57.1-6 81.9 7.7a98 98 0 0 1 46.8 60.2c.8 3 1.6 6 2.2 9-2.3.7-5 .9-6.9 2.4-11.4 9-12.9 35.3-49.3 53.6-18.8 9.4-41 13-61 6-22.2-8-47.5-31-56-53-4.7-12.4-6.5-25.6-12.5-37.4l-.8-1.5z" style="fill:#fac356"></path><path d="M980 1350.4c24.7-21.3 255.1-116.8 300-135.9l13.6 28.7c10.6 21 26.6 46.2 32.5 68.6.3 16.6 1 33.3-1.2 49.8 78.1-6.4 158.3 1.6 236.9-1.7l2.3.5 44.3-.1.3 34.5c15.1-.3 30.9-1.6 46-.4 47.8-5.7 98.4 3.9 146-3.5 0-7-4.6-16-7-22.8 6.9-10 133.8-50.5 155.1-59.2 4.1 14 8.6 28 12.3 42.2-30.5 19.9-70.2 22.9-99 43.5h191.5l.1 126c-441.4-3.1-882.9-3.1-1324.3 0V1450l-.1-50.9c54.8.4 109.6 0 164.3-1 24.5-15.6 67.3-25.8 85.7-47l.7-.7z" style="fill:#325cba"></path><path d="m1564.1 1360.4 44.3-.1.3 34.5c-17.8 4.5-37.4 3-55.7 3.1 1.8-12.4 2.5-28.2 11.1-37.5z" style="fill:#325cba"></path><path d="m979.3 1351 .7-.6c3.6 9.3 7 18.6 11 27.6l10 20.5c-35.8.5-71.6.3-107.4-.4 24.5-15.6 67.3-25.8 85.7-47z" style="fill:#cee9ee"></path><path d="M1948.8 1308.9c4.1 14 8.6 28 12.3 42.2-30.5 19.9-70.2 22.9-99 43.5-68.5 1-139.2 4.8-207.4-.2 47.8-5.7 98.4 3.9 146-3.5 0-7-4.6-16-7-22.8 6.9-10 133.8-50.5 155.1-59.2zM1561.8 1360l2.3.4c-8.6 9.3-9.3 25-11 37.5-75.8-.3-151.5 0-227.2 1.2.2-12.6-.3-25-1-37.5 78.1-6.4 158.3 1.6 236.9-1.7z" style="fill:#217fcd"></path><path d="M980 1350.4c24.7-21.3 255.1-116.8 300-135.9l13.6 28.7c10.6 21 26.6 46.2 32.5 68.6.3 16.6 1 33.3-1.2 49.8.7 12.5 1.2 25 1 37.5-108.2-1.8-216.6-.5-324.9-.6l-10-20.5c-4-9-7.4-18.3-11-27.6z" style="fill:#fac356"></path><path d="M1293.6 1243.2c10.6 21 26.6 46.2 32.5 68.6.3 16.6 1 33.3-1.2 49.8-3-.2-2 .3-4.5-1.8-10.6-8.6-38.3-91.5-40.8-110l14-6.6z" style="fill:#f4a63c"></path><path d="M980 1350.4c24.7-21.3 255.1-116.8 300-135.9l13.6 28.7-14 6.7c-96.5 42-192.7 84.7-288.6 128.1-4-9-7.4-18.3-11-27.6z" style="fill:#0e918b"></path><path d="M727 2251.4c60 33.1 120.2 65.9 179.8 99.7 32 18.2 66.3 42.4 100.1 56.1l4.7 3 5.6-3.5c-1.4-8.3-1.2-12.4 2.8-19.9 8 24.2 10.8 52 15.2 77.1 9.8 54.6 18.5 109.4 26 164.3 3.4 24.4 5 51.6 11.7 75.3 9-12.2 19.3-22.4 27.4-35.5 16-11.7 31-35 43.8-50.6 52.8-65 102.8-131.8 152.5-199.2 14.9 69.5 17.4 139.9 15 210.8a766.6 766.6 0 0 0-140.6 174.5l-7.8 15.3a1038 1038 0 0 0-69.4 165.3l-8 31.3-30.2-.2c-81.3-.5-162.3-1-243.5 0-18-31.4-187.6-154.2-231.2-181.3a934.7 934.7 0 0 0-82.7-46l.5-8c32-2 68.5 6.5 100.2 10.5 67.8 8.5 138.7 17.4 207 16 25.6 40.7 47.6 84.3 69.3 127 9.5 18.6 19.8 48.4 33.2 63.7a621.3 621.3 0 0 0-35.6-78.7c30-60.3 55.4-160.5 76.6-227 5-15.4 10.6-27.9 13.6-44.2l-2.4-.8 1.2-1.2c-14 35.3-23.1 71.8-34.7 107.9a4006 4006 0 0 1-56.6 160.9L780 2747c23.6-95.1 42-191.3 64-286.8l-1-2.6c-17.9-31-93.5-106.3-122.6-125.8 1.2-27 4-53.6 6.7-80.4z" style="fill:#17a195"></path><linearGradient id="b" x1="2199.9" x2="2088.9" y1="1967.9" y2="2024.9" gradientTransform="matrix(4 0 0 -4 -7483.3 10272.4)" gradientUnits="userSpaceOnUse"><stop offset="0" style="stop-color:#0a777b"></stop><stop offset="1" style="stop-color:#139491"></stop></linearGradient><path d="M727 2251.4c60 33.1 120.2 65.9 179.8 99.7 32 18.2 66.3 42.4 100.1 56.1l4.7 3c20.8 22.1 46.7 241.8 52.7 288.3-31.3-20.9-75.1-40.8-100.6-67.9-36.4-38.5-76.3-143.8-119.8-170.4l-1-2.6c-17.9-31-93.5-106.3-122.6-125.8 1.2-27 4-53.6 6.7-80.4z" style="fill:url(#b)"></path><path d="M1296.6 2418.2c14.9 69.5 17.4 139.9 15 210.8a766.6 766.6 0 0 0-140.6 174.5l-7.8 15.3a1038 1038 0 0 0-69.4 165.3l-8 31.3-30.2-.2c-1-12.8-1.8-25.5-1.9-38.3 5.7-1.4 14.6 7.8 21.7 9.6l.6-1.8-24.2-19.6c-14.3-110.5-40.2-220.6-86.5-322.1 30 21 72.2 37.3 97 64 18.7 20 15 170.5 27.8 207l.7 2c10.3-28.5-13.3-173.6-18-212.5 9.1-12.2 19.4-22.4 27.5-35.5 16-11.7 31-35 43.8-50.6a5402 5402 0 0 0 152.5-199.2z" style="fill:#0d8085"></path><path d="M812 3015.3c81.3-1.2 162.3-.6 243.6-.1l30.2.2c51-.1 102.2-1 153.3-.2l65.9.2c33-.2 65.7-.4 98.6-2.6 10.3 26.4 25.6 60.4 26.3 88.7l4.7 14.8c2.7 21 4.5 42.6 9 63.3 3.4 114.4-17.8 223.7-98.4 310a327.4 327.4 0 0 1-68 55.4c-41.4 2.4-83.6.6-125 .6l-217.3-.4c-10.5-6.5-20.5-13.8-30.5-21-58.4-39.7-94-101.4-129.1-160.5.2-6.6-3.7-14.8-5.7-21.1a649.2 649.2 0 0 1-25.8-117.4l.8-13.6c-3.6-36.3 3-72.4 9-108l3.5-9.7c3.6-26 11.2-52.5 17-78.2l38-.4z" style="fill:#fac356"></path><path d="M1056 3046c10.3-.8 22-2.7 30.6 4.4 5.2 4.3 5.6 6.9 7.4 13.1-1.5 7.8-4 13.5-10.6 18.3-6.5 4.7-14 7.2-21.7 8.8 1.8-5.3 3.5-10.9 4.5-16.4 2-11.9-3.7-19.1-10.3-28.2z" style="fill:#fac356"></path><path d="M1061.7 3090.6c-47.9 3.9-96.2-1.5-144.2.5-99.3 4-41.1 105-76.3 142.6a30.2 30.2 0 0 1-15.5 4.6 19 19 0 0 1-14.4-6.6c-20-23.2-10.1-88.2-6-117 2.6-19.1 8.7-53.4 26.3-65 20-13.2 193.5-8.1 224.3-3.7 6.6 9 12.4 16.3 10.3 28.2-1 5.5-2.7 11-4.5 16.4z" style="fill:#f8d7ab"></path><path d="M1305 3015.4c33-.2 65.7-.4 98.6-2.6 10.3 26.5 25.6 60.4 26.3 88.7l4.7 14.8c2.7 21 4.5 42.6 9 63.3 3.4 114.4-17.8 223.7-98.4 310a327.4 327.4 0 0 1-68 55.4c-41.4 2.4-83.6.6-125 .6l-217.3-.3c-10.5-6.6-20.5-13.9-30.5-21.2 13.4-3 28.9-2 42.7-2.7 32.4-1.7 64.5-4.1 96-12.2 92.3-23.8 170.9-88 218.8-169.5 59.1-100.5 72-212.4 43-324.3z" style="fill:#f4a63c"></path><path d="M1614.3 793c42.5-18.4 93.1-39.7 138.3-49 6.3 17.1 14 34.7 17 52.7l-3 6.5 3 12c15.3 33.2 26.7 68.8 39.2 103.2L1884 1125c12.4 34 23.3 69.7 37.5 103 2.8 8 6.3 16.1 7.6 24.5 3.5 9.6 6.6 20.7 11.2 29.8l8.5 26.6c-21.3 8.7-148.2 49.2-155 59.2 2.3 6.8 6.9 15.7 6.9 22.8-47.6 7.4-98.2-2.2-146 3.5-15.1-1.2-30.9 0-46 .4l-.3-34.5H1564l-2.3-.4c-78.6 3.3-158.8-4.7-236.9 1.7 2.2-16.5 1.5-33.2 1.2-49.8-5.9-22.4-21.9-47.7-32.5-68.6l-13.6-28.7c-25.6-60.9-57.3-120.8-85-181 44.2-14.2 85-43.5 129.3-59.9l-.1-220.6 152 .7c34.4-.7 108.5-6 139.2 1.2a227.6 227.6 0 0 0-1 38.1z" style="fill:#3a9ce0"></path><path d="M1776.6 905.6c8.2 3 8 4.4 12.2 11.7-.4 1-.6 2.1-1.1 3.1-8 17-86.6 39.3-106 46.5l-4.7-1c-4-6.6-5.7-9.9-5.1-17.7 14.3-20.7 79.1-34.4 104.7-42.6z" style="fill:#d2cbdc"></path><path d="M1921.5 1228c2.8 8 6.3 16.1 7.6 24.5-52.2 19.4-105 37.1-157.2 56.5-4.2-8.2-6.8-17.3-9.7-26 53.6-15.5 106.7-36.5 159.3-55z" style="fill:#acbce1"></path><path d="M1771.9 1309c52.2-19.4 105-37.1 157.2-56.5 3.5 9.6 6.6 20.7 11.2 29.8l8.5 26.6c-21.3 8.7-148.2 49.2-155 59.2-2.8-8.6-6.5-17-9.7-25.5-2.8-11.3-8-22.7-12.2-33.6z" style="fill:#217fcd"></path><path d="M1784.1 1342.6c42.5-26.8 108.4-42.2 156.2-60.3l8.5 26.6c-21.3 8.7-148.2 49.2-155 59.2-2.8-8.6-6.5-17-9.7-25.5z" style="fill:#acbce1"></path><path d="M1614.3 793c42.5-18.4 93.1-39.7 138.3-49 6.3 17.1 14 34.7 17 52.7l-3 6.5c-12.7 16.2-129.5 54.3-156.7 64.7-1.4-17.3-6.4-61.6 4.4-74.9z" style="fill:#325cba"></path><path d="M1609.2 869.4c2.7 2.4 4.9 4 6.6 7.4 14.7 28.6 22.2 67.2 33.3 97.9l68.8 186.9c14.7 40.2 28 81.7 44.3 121.3 3 8.8 5.5 17.9 9.7 26.1 4.2 11 9.4 22.3 12.2 33.6 3.2 8.4 6.9 17 9.6 25.5 2.4 6.8 7 15.7 7 22.8-47.6 7.4-98.2-2.2-146 3.5-15.1-1.2-30.9 0-46 .4l-.3-34.5c1.1-163.6-1.6-327.3.8-490.9z" style="fill:#cee9ee"></path><path d="m1324.2 753 152 .7c30.6 2 61.5 1.5 92.2 1.4-.2 13.6.3 26-5 38.8l1.1 6.1c1.2 19.1 2.7 46.8-2.6 65 0 8.4-.6 17 .3 25.3 8.1 24.1 1.6 303.2 1.6 355l-.2 25.2-1.8 89.4c-78.6 3.3-158.8-4.7-236.9 1.7 2.2-16.5 1.5-33.2 1.2-49.8-5.9-22.4-21.9-47.7-32.5-68.6l-13.6-28.7c-25.6-60.9-57.3-120.8-85-181 44.2-14.2 85-43.5 129.3-59.8l-.1-220.7z" style="fill:#76bdf5"></path><path d="M1526 1245c12.5 0 25.4-.7 37.8.4l-.2 25c-65 .8-131.3 3.2-196.3-1 51-4.3 104.6 5.5 155-2.2 4.6-6.5 3.4-14.5 3.8-22.3z" style="fill:#d2cbdc"></path><path d="m1367.3 1269.4-3.8-2.3a46 46 0 0 1 .7-20.4c48.5-7 111.8-1.8 161.9-1.8-.4 7.8.8 15.8-3.8 22.3-50.4 7.7-104-2-155 2.2zM1562.2 890.3c-51.6.4-144.4 5-192.6-1.3-1.3-2-2.3-3.5-3.1-6-1.8-5.6 1.2-9 4.5-13 22.2-10.7 153.6-4.8 191-5-.2 8.4-.7 17 .2 25.3zM1564.5 800c-.9 5.8-1.2 10.5-5 15.2-7.4 3-15.1 4-23 4.6-19.4 1.2-38.9-1.7-58.2-1.8-24.9-.3-92.4 9.5-111.5-7.3 0-7.3.7-7.3 5-12.8a62.5 62.5 0 0 1 22.6-6c21.2-1.8 154.3-.7 169 2l1.1 6.1z" style="fill:#fefefe"></path><path d="m1324.3 973.6 1 207.2c.5 43.6 2.9 87.5.8 131-5.9-22.4-21.9-47.7-32.5-68.6l-13.6-28.7c-25.6-60.9-57.3-120.8-85-181 44.2-14.2 85-43.5 129.3-59.9z" style="fill:#cee9ee"></path><path d="M2616.8 802.3c75.9-87.3 174.5-150 292.3-158.8-2.7 5.5-5.1 11.7-8.7 16.7 2.3 7.9 4.2 16 7.5 23.5 63.2 84.4 161.6 127 257.9 162 42 11.7 86.4 25.8 130.2 28.5l-.8 1.8c-.6 15.8 31.5 69.2 39.4 87 31.2 70.5 53.9 149.7 45.3 227.4 10 47.3 3.6 94-23.3 134.9-16.8 25.4-43 48-73.7 54-5.3 1-10.7 1.7-16 2.7-35.4 87-79 147.6-151 207.7-35.5 28.7-81 53.9-126.5 60.5-86.7 12.7-165.6-39.3-232-88-.5 18.3-.7 36.7-2 55-6 35.4-30.6 151.2-56.2 173.7-2.2 1.9-5 2.8-7.8 3.7-38.7-5-188.1 35.6-233.3 48-102.3 34.6-193.2 72.8-278 141.4a67.7 67.7 0 0 1-21.6 19.4 214.1 214.1 0 0 1-77.6-134.7c-22.5-166.8 142.4-162.3 173.5-258 22.9-70.6-27.8-144.8 13.9-215.2 28.6-48.3 91.2-54.2 122.9-97.4 34.4-46.9-17.8-111.9-24.7-162.3-3.1-23-.1-45.7 13.2-65.2 33.4-48.8 103-21.3 131.9-56.2 16-19.3 26.2-71.5 37-96.8a520.8 520.8 0 0 1 68.2-115.4z" style="fill:#202758"></path><path d="M3081.5 892c-37.1 58.7-125.3 110.5-192.2 129.3-41.9 17.7-215.7 74.1-252 62.1 26.5-9.7 56-12.7 83.3-20.2a2113.2 2113.2 0 0 0 164.3-53.4c72.7-38.2 134-62.5 196.6-117.8z" style="fill:#3a9ce0"></path><path d="M2549.7 1091.8a502.2 502.2 0 0 1 20.4-119.6 517.4 517.4 0 0 1 28-72 498.1 498.1 0 0 1 87.6-126.8c54.3-56.9 133.8-111.3 214.8-113.2 2.2 7.9 4.1 16 7.4 23.5-39.3 7.1-78.5 22-113.4 41.4-93.5 51.8-166.3 146.6-206 244.7-16.2 39.7-27 80.9-38.8 122zM2480.1 1751.9c33.5.5 67.2-.5 96.1-19.8 22-14.7 38.5-39.8 43.4-65.7 13-69.5-45.8-140.3-81.8-194.1-15.2-22.8-30.5-50.9-24-79.1a60 60 0 0 1 29.5-38.6c19.6 14.4 38.2 23 63.1 19.5 6.7-1 13.3-3.3 19.7-5.5 31.7 76.6 68 138.7 131.3 193.6-.5 18.3-.7 36.7-2 55-6 35.4-30.6 151.2-56.2 173.7-2.2 1.9-5 2.8-7.8 3.7-38.7-5-188.1 35.6-233.3 48-102.3 34.6-193.2 72.8-278 141.4v-3.9c0-19 23.7-42.7 27.5-64.1 5-28.7 7.2-57.9 16.3-85.8 37.8-116.1 129-46.7 216.2-128.3 101.1-94.5-24.8-151.4-21.7-221.9.4-8 1.4-17.3 7.7-22.8 9.8 5 17.1 26.8 25.2 36.7 15.8 19.4 35.5 36 52.6 54.3 23 24.5 39.8 55.8 38.4 90.1-1.9 45.2-30.3 84-62.2 113.6z" style="fill:#050f45"></path><path d="M3105.7 886.4c87.7 90 135.8 200.7 164.5 321.1 8-22.7 16.3-40.6 38.4-52.6 10.8-6 24-8 35.8-3.8 18.6 6.8 27.6 22.6 35.5 39.3 10 47.3 3.6 94-23.3 134.9-16.8 25.4-43 48-73.7 53.9l-16 2.8c-35.4 87-79 147.6-151 207.7-35.5 28.7-81 53.9-126.5 60.5-86.7 12.7-165.6-39.3-232-88-63.3-55-99.6-117-131.3-193.6-6.4 2.2-13 4.5-19.7 5.5-25 3.6-43.4-5.1-63-19.5l-2.4-2.7a159.2 159.2 0 0 1-40-100 155.8 155.8 0 0 1 .2-15.8c2-25.6 11.9-56 32.7-72.6a47.2 47.2 0 0 1 37-11.3c21.4 2.9 31.2 15.6 43.2 31.7 3.5-27.8 9.6-50.6 24.2-74.7 115.4-19.3 233.8-21.2 339.9-77.4 61.8-32.7 106.7-78.1 127.5-145.4z" style="fill:#f9ac7b"></path><path d="M2957.9 1250c2.8 2.3 2.8 2 5.3 5 5.7 7.1 5.9 19.3 5 27.8-3.3 29.8-23 54.9-45.6 73l-7-4.8c.5-13.8 25.2-30.6 31.6-44.6 7.5-16.8 7.6-38.4 10.7-56.5z" style="fill:#ee642d"></path><path d="M3105.7 1236c13.8.8 23.5 3.4 33 14a39.2 39.2 0 0 1 9.8 31c-1.6 15-9.9 23.3-21.1 32-2.8.2-5.7.3-8.5.3a33 33 0 0 1-26-11.3c-7.3-8-9.5-18.3-8.9-28.8 1.1-17.6 9-26.5 21.7-37.2zM2766 1236.4c2 0 4 0 5.9.2 12.3 1 21.7 5.7 29.4 15.5a42.1 42.1 0 0 1 8.3 34.7c-2.8 15.3-11.2 23-23.3 31.3-15.5-1.7-27.7-5-37.6-18.3a39.8 39.8 0 0 1-6.8-31.3c2.9-15.7 11.8-23.5 24-32.1zM2790.2 1129.3c10.3-.8 22.7.2 32.8 2.4 12.3 2.5 25 8.4 31.3 19.8 3.4 6.3 3.7 9 1.9 15.7-20 17.9-72.1.1-98.6 2-10.7 3.1-21.8 6.7-32.7 8.8-9.4 1.7-21.1 2.1-29.4-3.4.4-5 .3-5.8 3.6-9.7 21.2-25 60.3-32.6 91.1-35.6zM3094.4 1129c35.7-2 81.3 8.1 108.7 32.4 9 8 14.3 14.3 15 26.6l-4.3 4.6c-10.2.7-14.4-2.4-23.2-6.8-55.8-26.4-101.8-4.5-126.3-16.5-6.6-3.2-7.7-6.4-10-13 1-5 1.8-10.1 4.8-14.3 7.4-10.2 23.7-11.2 35.3-13z" style="fill:#050f45"></path><path d="M3282.5 1245.5c3.2-15.5 11-34.6 25-43.4 5.5-3.6 11.8-4.6 18.3-3 11 2.8 17.2 14.5 22.9 23.4.3 29 2.1 68.9-20.2 91-3.7 3.7-7.9 6.1-12.5 8.2l-14.6-11.4-22.9 29.5c4-20.9 14.4-42.3 9.4-63.7-3.4-4-7.9-8.5-9.6-13.5-2.1-6.3 1.7-11.4 4.2-17.1z" style="fill:#f1724d"></path><path d="M3288.2 1250.4c1-7.7.9-14.5 7.6-19.7 5.2-4 8.3-3 14.2-2.4 9.7 5.4 13.3 11.6 16.4 22.3 5.3 17.9-.3 35.3-4.5 52.9-4-10-5-20.7-6.7-31.2-.1-8.7.2-16.8-3-25-7.6-2.2-9.6.1-16.6 3.2l10.7 30c-1.3 9.7-2 20.4-4.9 29.8l-22.9 29.5c4-20.9 14.4-42.3 9.4-63.7-3.4-4-7.9-8.5-9.6-13.5-2.1-6.3 1.7-11.4 4.2-17.1l5.7 4.9z" style="fill:#d7372c"></path><path d="m2610.1 1321.9.6 3.7a51.9 51.9 0 0 1-32.4-.7c-12-4.6-1-21.8-7.4-29-10.3-11.8-28.7-6.3-35.7-23.9-6.4-16.1-3.7-47.7 4-63.1 3.3-6.8 6.9-9.5 13.8-11.9 12 .3 19.7 5.2 28.1 13.6 23 22.9 26.3 50.4 26.8 81.2 1.4 10.2 2.8 19.8 2.2 30.1z" style="fill:#f1724d"></path><path d="m2610.1 1321.9-5.2-3.3c-8.4-32-39.7-51.3-48-81.7-1.8-6.3-1.2-6.8 2.1-12.2 14.9 4.2 38.6 52 48.9 67.1 1.4 10.2 2.8 19.8 2.2 30.1z" style="fill:#d7372c"></path><path d="M3119.8 1328.1c9.5 0 18.9 0 28.1 2.7a55.3 55.3 0 0 1 34 29.5 40.6 40.6 0 0 1 .5 28.4c-5.8 16.6-18.5 23.8-33.2 31.3a82 82 0 0 1-22.6-.5 52.3 52.3 0 0 1-39.7-33.5 42.6 42.6 0 0 1 .5-27.6c5.7-16 18-23.4 32.4-30.3zM2768.2 1328.5a44.8 44.8 0 0 1 35 13.3 42 42 0 0 1 11.2 23.1 50.2 50.2 0 0 1-9.8 36.6c-10.9 14.2-23.7 16.5-40.3 18.3a68.3 68.3 0 0 1-32-10 44.1 44.1 0 0 1-20-30.8 42.6 42.6 0 0 1 10.6-32.4c12.3-14.5 27.6-16.3 45.3-18z" style="fill:#f1724d"></path><path d="M2852.8 1419.8c71 12 127.5 13 198.6 0a208.7 208.7 0 0 1-19.8 40 88.8 88.8 0 0 1-32.8 18.8 127.2 127.2 0 0 1-61 5.9 131 131 0 0 1-24-5.8c-30.8-11-47.5-30-61-58.9z" style="fill:#fefefe"></path><path d="M2757.4 1562.2c66.4 48.7 145.3 100.7 232 88 45.5-6.6 91-31.8 126.5-60.5 3.4 57.9 10.6 113.4 31.3 167.9 3.7 11.4 6.2 23.8 15.9 31.6 4.7 1.2 9.3 2.5 14 3.4 78.3 13.1 155.8 28.4 231.2 53.3l-131 213.6c-23.8 38.5-46.5 78.8-72.4 115.8-31.2-14-241.8-118.9-253.6-118.7 1.2 158.8 1.4 317.5.5 476.2l-28.5-.2h-598.7c-30.3-.7-60.8-.3-91.1-.4h-86.3c-23.5 0-48-2.3-65.6 16.6-12.4 13.3-13 32.6-12 49.9 4.8 73.8 22.3 150 32.9 223.3 6 41.8 10.6 83.9 17 125.6 7.8 51.4 15.5 103.2 20.4 155l1.3 3c1.8 40.6 9.4 81.4 15.1 121.6-35.1 37.2-56.5 88.4-66 138.5-104-48.7-361.5-161.4-428.2-246.5-13.5-17.2-13.5-37.8-22.5-56.5l-.7-1.4c17.6-58 42.6-115.3 65.5-171.3 43.2-105.2 88-209.7 134.4-313.6 54-122 116.2-278 182.6-390.9a906 906 0 0 1 85-121.8c15.2-18.2 38.8-37.5 50.5-57.5l1.6-2.8a67.7 67.7 0 0 0 21.7-19.4c84.7-68.6 175.6-106.8 277.9-141.3 45.2-12.5 194.6-53 233.3-48 2.7-1 5.6-2 7.8-3.8 25.6-22.5 50.2-138.3 56.2-173.8 1.3-18.2 1.5-36.6 2-54.9z" style="fill:#3a9ce0"></path><path d="M2255.9 2257.3c31.7 88.6 53 182.7 68.7 275.3-30.3-.7-60.8-.3-91.1-.4 21.1-91.3 32.8-181 22.4-275z" style="fill:#217fcd"></path><path d="M2931.9 2038.3c6 4.7 16.7 11 19.4 18.3 1.2 158.8 1.4 317.5.5 476.2l-28.5-.2-.5-482.1c2.2-4.8 5.6-8.3 9-12.2z" style="fill:#fefefe"></path><path d="M2102.5 2822c6 41.8 10.6 83.9 17 125.6 7.8 51.4 15.5 103.2 20.4 155l1.3 3c-38.2-.4-82-25.2-118.2-37.4-90.5-30.6-173.4-34-267.4-25.6 88.7-30.8 191.8-31.9 278.4 7.5-26-21.2-47.3-48-70.5-72.2a502.1 502.1 0 0 0-77.4-65c58.9 20 113.4 46.8 153.4 96.3 8.6-46.5 25.2-92 42.3-135.8 6.7-17 16.3-33.8 20.7-51.4z" style="fill:#217fcd"></path><path d="M2073.5 3051c13-33.6 25.8-73.7 46-103.4 7.8 51.4 15.5 103.2 20.4 155-15.2-3.4-30.6-11-45.1-16.7-7.5-11.3-14.3-23.3-21.3-34.9z" style="fill:#fefefe"></path><path d="M2757.4 1562.2c66.4 48.7 145.3 100.7 232 88 45.5-6.6 91-31.8 126.5-60.5 3.4 57.9 10.6 113.4 31.3 167.9 3.7 11.4 6.2 23.8 15.9 31.6 4.7 1.2 9.3 2.5 14 3.4 78.3 13.1 155.8 28.4 231.2 53.3l-131 213.6c-23.8 38.5-46.5 78.8-72.4 115.8-31.2-14-241.8-118.9-253.6-118.7-2.7-7.2-13.4-13.6-19.4-18.3-3.5 4-7 7.4-9.1 12.2-25 17.5-59.7 30.1-87.6 43.3-61.2 28.5-122.1 57.5-182.7 87.1-31-42-54.8-93-80.5-138.7-37.6-66.7-77.3-132.4-114-199.5 45.3-12.5 194.7-53 233.4-48 2.7-1 5.6-2 7.8-3.8 25.6-22.5 50.2-138.3 56.2-173.8 1.3-18.2 1.5-36.6 2-54.9z" style="fill:#f0e2d4"></path><path d="M2757.4 1562.2c66.4 48.7 145.3 100.7 232 88 45.5-6.6 91-31.8 126.5-60.5 3.4 57.9 10.6 113.4 31.3 167.9 3.7 11.4 6.2 23.8 15.9 31.6 4.7 1.2 9.3 2.5 14 3.4-20.4 25.4-45.6 47.8-68.8 70.7L2988.7 1981c-17.4 17-38.8 34.2-54 53-31-24.4-235-219.4-243.3-239.4 2.7-1 5.6-1.8 7.8-3.7 25.6-22.5 50.2-138.3 56.2-173.8 1.3-18.2 1.5-36.6 2-54.9z" style="fill:#f9ac7b"></path><path d="M2757.4 1562.2c66.4 48.7 145.3 100.7 232 88 45.5-6.6 91-31.8 126.5-60.5 3.4 57.9 10.6 113.4 31.3 167.9-173.3 5.1-255.9-34.8-391.8-140.5 1.3-18.2 1.5-36.6 2-54.9z" style="fill:#f1724d"></path><path d="M3408.3 1846c32 11.3 64.6 22 96.2 34.8a642.3 642.3 0 0 1 194.2 128.6l20.6 22c4 4.3 9 11.6 14.5 13l.9 1.7c8.3 15.7 21 29.9 31.4 44.3 19.7 27.4 38.9 55.5 55 85.2 99.8 184.3 182 382.9 257.4 578.3 9 23.3 31.5 68 32 91.8l-1.4 2.4c-6.3 10.3-19.6 17.7-27.5 27.4-30.7 38-37.2 89.7-27.1 136.3 3.8 17.8 13 34.2 16.8 51.3 8.2 9.5 33.3 32.3 36 43.1-4 8.5-9.6 10-17.5 14.3-31.4 19.1-28.7 51.1-45 79.8 9.1 25.1 8.8 50.6 20.6 79.3 7.4 8 18.7 17.4 24.3 26.4-14 10.9-31.3 25.2-47.7 32-88.3 54.2-270 118.5-372.5 135.3-14 1.5-28.1 3.3-42.2 4.4-37.4-5.7-78.4-.6-116.3-1.6l6.3-21.6c-378.6 10.4-757.8-1.2-1136.5 3.3-43-2-87-.3-130.2-.6l-18 2.4 8.5 20.8c-37.1-1.4-72.2-5.7-107.7 7.7-9.6-1.6-18.7-1.3-28.3-1-23-39.8-20.4-77.3-14.8-121.4 9.5-50.1 30.9-101.3 66-138.5-5.7-40.2-13.3-81-15-121.6l-1.4-3c-4.9-51.8-12.6-103.6-20.3-155-6.5-41.7-11.2-83.8-17.1-125.6-10.6-73.4-28.1-149.5-32.8-223.3-1.1-17.3-.5-36.5 12-49.9 17.6-18.9 42-16.6 65.5-16.5h86.3c30.3 0 60.8-.3 91.1.3h598.7l28.5.2c1-158.7.8-317.4-.5-476.2 11.9-.2 222.4 104.8 253.6 118.7 26-37 48.6-77.3 72.3-115.8l131-213.6z" style="fill:#4f5176"></path><path d="M2865 2957.1c18.9-1.3 36-.6 53.4 7.7a80.1 80.1 0 0 1 42.5 46.7c5.5 17 3.8 34.5-4.6 50.3-12.5 23.3-36.5 34.5-61 41.2a107 107 0 0 1-60-11.7 77.8 77.8 0 0 1-39.5-51.7 64.3 64.3 0 0 1 7.4-43c13.7-23.3 36.7-33.2 61.8-39.5z" style="fill:#fefefe"></path><path d="M2102.5 2822c-10.6-73.4-28.1-149.5-32.8-223.3-1.1-17.3-.5-36.6 12-49.9 17.6-18.9 42-16.6 65.5-16.5-6.5 9.2-13.6 18.3-18.2 28.6 5.3 82.5 21 166 31.7 248 28.5 216.3 62.8 432 90 648.3l-18.1 2.4 8.5 20.8c-37.1-1.4-72.2-5.7-107.7 7.7-9.6-1.6-18.7-1.3-28.3-1-23-39.8-20.4-77.3-14.8-121.4 9.5-50.1 30.9-101.3 66-138.5-5.7-40.2-13.3-81-15-121.6l-1.4-3c-4.9-51.8-12.6-103.6-20.3-155-6.5-41.7-11.2-83.8-17.1-125.6z" style="fill:#202758"></path><path d="M2156.3 3227.2c6.2 43.8 17.1 195.9 49.3 221.7a53.3 53.3 0 0 0 27 10.7l8.5 20.8c-37.1-1.4-72.2-5.7-107.7 7.7-9.6-1.6-18.7-1.3-28.3-1-23-39.8-20.4-77.3-14.8-121.4 9.5-50.1 30.9-101.3 66-138.5z" style="fill:#f9ac7b"></path><path d="M2380.8 3457.8a82 82 0 0 0 31.2-10.4c54.1-29.6 105.8-66.6 157-101.1l191.9-127.6 575.7-387.1c122.9-83.4 244.8-168.6 370.2-248.2-8.7 69.4-23 138.9-30 208.3-4.8 30.7-9 61.8-15 92.3 28.2 56.6 45.3 127.3 61.5 188.5-35.6 22.2-65.4 52.8-101 75.1-3.5 21-8.3 42.5-10.5 63.6a356.8 356.8 0 0 1 63.7 141.8c5.2 42 3.4 79.1-6 120.3-14 1.5-28.1 3.3-42.2 4.4-37.4-5.7-78.4-.6-116.3-1.6l6.3-21.6c-378.6 10.4-757.8-1.2-1136.5 3.3z" style="fill:#3a3f6d"></path><path d="M3661.8 2884c28.2 56.6 45.3 127.3 61.5 188.5-35.6 22.2-65.4 52.8-101 75.1a24302 24302 0 0 0 39.5-263.6z" style="fill:#cee9ee"></path><path d="M3611.8 3211.2a356.8 356.8 0 0 1 63.7 141.8c5.2 42 3.4 79-6 120.3-14 1.5-28.1 3.3-42.2 4.4-37.4-5.8-78.4-.6-116.3-1.6l6.3-21.6a101 101 0 0 0 30-13.6 93.4 93.4 0 0 0 29.6-38.8c17.4-41 26.5-141.1 35-190.9z" style="fill:#f9ac7b"></path><path d="M3408.3 1846c32 11.3 64.6 22 96.2 34.8a642.3 642.3 0 0 1 194.2 128.6l20.6 22c4 4.3 9 11.6 14.5 13l.9 1.7c8.3 15.7 21 29.9 31.4 44.3 19.7 27.4 38.9 55.5 55 85.2 99.8 184.3 182 382.9 257.4 578.3 9 23.3 31.5 68 32 91.8l-1.4 2.4c-6.3 10.3-19.6 17.7-27.5 27.4-30.7 38-37.2 89.7-27.1 136.3 3.8 17.8 13 34.2 16.8 51.3 8.2 9.5 33.3 32.3 36 43.1-4 8.5-9.6 10-17.5 14.3-31.4 19.1-28.7 51.1-45 79.8 9.1 25.1 8.8 50.6 20.6 79.3 7.4 8 18.7 17.4 24.3 26.4-14 10.9-31.3 25.2-47.7 32-88.3 54.2-270 118.5-372.5 135.3a334.2 334.2 0 0 0 6-120.3 356.8 356.8 0 0 0-63.7-141.8c2.2-21 7-42.6 10.4-63.6 35.7-22.3 65.5-52.8 101.1-75-16.2-61.3-33.3-132-61.5-188.6 6-30.5 10.2-61.6 15-92.3 7-69.4 21.3-138.9 30-208.3-3.4-13.3-7.4-25.4-17.6-35.2-19.2-18.5-50-14.8-74.6-14.4-30.7.1-61.5.6-92.2-.6-190.2-2.2-380.4 1.6-570.6-.4 1-158.7.7-317.4-.5-476.2 11.8-.2 222.4 104.8 253.6 118.7 26-37 48.6-77.3 72.3-115.8l131-213.6z" style="fill:#3a9ce0"></path><path d="M3614.3 2244.7c-14.6 76.8-26.7 209.8-6 285.4l6.3 3.7c-30.7.1-61.5.6-92.2-.6 25.2-97.8 48.7-196.7 91.9-288.5zM3676.7 2791.7c32.2 62.4 61.9 127.5 96.7 188.3 43.6-25.8 88.7-56.4 142.2-36.9 2.5 1 3.1 1.6 5 3-12.2 4.2-25.2 5-38 6.5-33.2 11.3-61 25.3-85.8 50.6 45 4.5 90.8 10.6 132.9 28-63.3-3.6-113-2.7-173.7 18.4-6.4 9.1-23 16.9-32.7 23-16.2-61.3-33.3-132-61.5-188.6 6-30.5 10.2-61.6 15-92.3zM3675.5 3353a2915.5 2915.5 0 0 0 369.3-152.7c9.1 25.1 8.8 50.6 20.6 79.3 7.4 8 18.7 17.4 24.3 26.4-14 10.9-31.3 25.2-47.7 32-88.3 54.2-270 118.5-372.5 135.3a334.2 334.2 0 0 0 6-120.3z" style="fill:#217fcd"></path></svg>