<svg xmlns="http://www.w3.org/2000/svg" xmlns:xlink="http://www.w3.org/1999/xlink" id="Layer_1" x="0px" y="0px" viewBox="0 0 2000 2000" style="enable-background:new 0 0 2000 2000;" xml:space="preserve"><g>	<path style="fill:#FCFCFC;" d="M2000,2000c-666.667,0-1333.333,0-2000,0C0,1333.333,0,666.667,0,0c666.667,0,1333.333,0,2000,0  C2000,666.667,2000,1333.333,2000,2000z M1285.33,1798.789c2.378,1.344,4.749,3.846,7.134,3.858  c36.734,0.195,73.47,0.066,110.205,0.014c13.672-0.019,13.675-0.017,13.317-13.911c-0.042-1.623-0.028-3.259-0.237-4.863  c-0.941-7.232-3.575-10.828-12.394-10.671c-36.723,0.655-73.468,0.406-110.2,0.062c-8.278-0.077-11.473,1.622-8.478,10.491  c1.386,4.104,0.37,9.019,0.443,13.566c-0.513-0.207-1.039-0.367-1.58-0.482c-3.801-28.845-7.665-57.681-11.386-86.537  c-4.093-31.736-8.054-63.489-12.072-95.235c110.096-46.441,201.869-116.159,271.599-213.857c1.962-2.748,3.558-5.757,5.325-8.644  c0.276-1.413,0.552-2.826,0.828-4.24c2.417-1.755,4.834-3.509,7.251-5.264c16.407-28.469,33.088-56.786,48.997-85.531  c3.285-5.936,3.697-13.463,5.433-20.256c1.898-1.93,4.609-3.522,5.575-5.84c27.907-67.012,42.581-137.251,46.762-209.336  c3.041-52.428,0.64-104.933-9.152-156.919c-15.298-81.217-43.835-157.308-87.481-227.427  c-32.026-51.451-70.269-97.828-115.849-138.214c-35.147-31.142-72.777-58.527-114.013-80.765  c-86.923-46.876-179.529-71.754-278.729-70.106c-0.11-9.43,2.472-15.418,13.791-16.587c9.213-0.951,14.663-8.627,17.806-17.475  c4.63-13.033,1.475-25.497-2.214-37.983c1.271-20.377,2.244-40.585,13.542-58.99c2.475-4.032-0.07-12.605-2.697-17.898  c-2.606-5.252-8.472-8.8-12.461-13.476c-3.671-4.304-7.105-8.9-10.011-13.746c-6.067-10.116-11.718-20.481-17.54-30.744  c-4.482-3.526-8.965-7.052-13.447-10.578c-7.554-2.379-14.964-5.988-22.691-6.892c-18.343-2.147-33.96,6.523-49.353,14.912  c-16.752,9.13-33.869,9.618-51.534,3.255c-5.162-1.859-10.439-3.396-15.617-5.211c-7.275-2.549-14.138-2.54-19.602,3.671  c-5.42,6.161-6.447,13.353-3.063,20.789c4.111,9.033,8.637,17.876,12.984,26.801c3.528,16.085,7.055,32.17,10.583,48.254  c-0.395,11.683-0.79,23.366-1.185,35.049c-9.81,3.424-22.872-1.498-29.035,11.412c-0.781,1.635-2.512,2.816-3.802,4.207  c1.848,1.375,3.889,2.558,5.493,4.174c1.852,1.866,3.318,4.114,4.952,6.195c-3.061-0.469-6.309-1.811-9.139-1.204  c-4.374,0.938-8.364,3.523-12.686,4.865c-40.17,12.474-78.373,29.365-115.101,49.862  c-53.905,30.083-102.569,67.251-146.626,110.162c-21.776,21.209-41.402,44.755-60.861,68.189  c-51.97,62.586-91.021,132.784-116.231,209.957c-12.215,37.394-20.771,76.219-27.907,114.962  c-5.717,31.041-8.877,62.906-9.362,94.463c-0.532,34.562,2.546,69.255,5.447,103.774c3.234,38.479,11.765,76.068,23.25,112.928  c16.59,53.245,38.691,103.981,68.14,151.52c22.108,35.688,47.187,68.882,75.303,100.116c28.832,32.031,60.957,60.148,95.427,85.601  c35.335,26.092,72.986,48.592,113.585,65.666c17.586,7.396,35.706,13.521,53.583,20.225c3.485,28.012,6.971,56.024,10.456,84.037  c2.214,19.699,4.428,39.398,6.643,59.097c-6.753,0.457-13.503,1.247-20.26,1.308c-20.497,0.186-40.996,0.09-61.494,0.106  c-27.465,0.021-27.471,0.021-31.904,26.536c-0.088,0.524,0.426,1.149,0.846,2.187c1.352,0.151,2.92,0.451,4.494,0.482  c32.789,0.661,65.578,1.384,98.37,1.82c4.41,0.059,8.839-1.357,13.26-2.09l0.703,0.061l0.705-0.045  c37.033,0.066,74.066,0.132,111.099,0.199c72.147,0.102,144.295,0.203,216.442,0.304c0.823-0.028,1.646-0.057,2.469-0.085  c1.289,0.003,2.578,0.007,3.867,0.01c10.439,0.016,20.878,0.032,31.317,0.047c7.133,0.002,14.266,0.005,21.4,0.007  c20.635,0.16,41.271,0.427,61.904,0.289c1.754-0.012,3.49-2.728,5.235-4.184l0.75,0.122L1285.33,1798.789z"></path>	<path style="fill:#FDE3C9;" d="M1046.625,388.684c99.202-1.649,191.807,23.229,278.731,70.105  c41.236,22.238,78.866,49.623,114.013,80.765c45.58,40.385,83.824,86.763,115.849,138.214  c43.646,70.118,72.182,146.209,87.481,227.427c9.792,51.986,12.193,104.491,9.152,156.919  c-4.181,72.085-18.855,142.324-46.762,209.336c-0.966,2.319-3.677,3.91-5.575,5.841c-0.131-6.784-0.219-13.569-0.403-20.351  c-0.468-17.283-0.978-34.565-1.472-51.848c-3.369-0.598-6.73-1.646-10.109-1.712c-11.222-0.218-22.452-0.082-34.644-0.082  c0-4.88-0.001-8.363,0-11.846c0.012-42.777,0.069-85.555-0.026-128.332c-0.011-4.811-0.879-9.619-1.35-14.429  c0.385-63.768,0.77-127.535,1.154-191.303c0.066-7.433,0.428-14.879,0.117-22.296c-0.316-7.505-1.299-14.982-1.989-22.471  c-16.689,0-33.378,0-50.652,0c0,9.938,0,18.614,0,27.291c-0.014,11.029-0.028,22.057-0.042,33.086  c-0.012,9.793-0.024,19.585-0.035,29.378c0,99.904,0,199.808,0,300.801c-13.987,0-26.562,0.143-39.125-0.178  c-1.593-0.041-3.123-2.507-4.682-3.849c0.005-1.906,0.01-3.812,0.015-5.717c0.007-18.282,0.014-36.563,0.024-54.844  c0.162-2.265,0.461-4.53,0.462-6.795c0.022-106.729,0.022-213.457-0.002-320.185c0-2.266-0.295-4.531-0.452-6.797  c0-12.149,0-24.297,0-36.198c-10.812,0-20.375,0-29.836,0c-0.334,1.739-0.675,2.683-0.675,3.628  c0.017,92.201,0.061,184.401,0.103,276.602c-0.115,43.767-0.232,87.534-0.336,131.301c-0.005,2.267-0.342,4.654,0.229,6.782  c2.447,9.124,1.696,16.383-9.851,17.721c0,15.529,0,30.429,0,45.328c-0.009,0.674-0.018,1.348-0.027,2.023  c0.002,1.268,0.005,2.535,0.007,3.803c-0.004,4.601-0.008,9.202-0.012,13.803c-0.027,6.48-0.055,12.96-0.082,19.44  c0.042,16.882,0.084,33.764,0.127,50.646c-8.965,0.652-17.929,1.303-26.894,1.955c-0.214-3.242-0.429-6.483-0.643-9.725  c0.013-3.183,0.026-6.365,0.038-9.548c-0.003-5.277-0.007-10.553-0.01-15.83c-0.002-4.487-0.005-8.974-0.008-13.46  c-0.012-5.934-0.025-11.868-0.037-17.802c-0.004-2.524-0.009-5.047-0.013-7.571c0-62.29,0-124.581,0-187.823  c-4.602,0-8.108,0.001-11.614,0c-30.56-0.006-61.121,0.098-91.678-0.179c-3.224-0.029-6.427-2.303-9.639-3.536  c0.013-1.283,0.025-2.566,0.038-3.849c-0.033-33.221-0.065-66.442-0.098-99.662c-0.004-7.164-0.008-14.328-0.011-21.492  c-0.002-1.947-0.004-3.895-0.006-5.842c0-1.309,0-2.619-0.001-3.928c-0.004-20.172-0.008-40.343-0.012-60.515  c0.001-2.617,0.003-5.233,0.004-7.85c0.002-3.244,0.004-6.489,0.007-9.733c0.002-1.962,0.003-3.924,0.005-5.887  c-0.001-3.246-0.002-6.492-0.003-9.739c-0.002-3.266-0.005-6.532-0.007-9.797c0.002-3.896,0.005-7.792,0.007-11.688  c-0.014-37.775-0.028-75.55-0.042-113.325c-0.001-1.933-0.001-3.865-0.002-5.798c0.006-3.275,0.012-6.549,0.018-9.824  c0.012-4.545,0.025-9.091,0.037-13.636c0-5.319,0-10.637,0-16.876c-8.357,0-15.875,0-23.392-0.007  c-0.047-4.535,0.069-9.072-0.17-13.59c-1.203-22.697-8.796-42.57-27.833-56.112c-12.841-9.134-26.721-16.808-40.136-25.135  l-0.025,0.266c-1.36-0.974-2.719-1.948-4.079-2.922c-31.953-19.04-63.905-38.081-95.858-57.121  c-2.539-1.493-5.077-2.986-7.616-4.48l0.073,0.13c-0.71-0.703-1.419-1.406-2.129-2.109c-7.727-4.388-15.455-8.776-23.181-13.166  c-2.021-0.093-4.043-0.184-6.065-0.275c-1.851-0.621-3.703-1.242-5.554-1.862c1.955-28.347,3.899-56.695,5.873-85.04  C1045.679,399.76,1046.178,394.224,1046.625,388.684z"></path>	<path style="fill:#FDE3C9;" d="M808.346,1628.909c-17.877-6.703-35.997-12.828-53.583-20.224  c-40.599-17.074-78.25-39.574-113.585-65.666c-34.47-25.452-66.595-53.569-95.427-85.601  c-28.115-31.235-53.194-64.428-75.303-100.116c-29.45-47.539-51.55-98.275-68.14-151.52c-11.485-36.86-20.016-74.449-23.25-112.928  c-2.901-34.519-5.978-69.212-5.447-103.774c0.486-31.558,3.645-63.422,9.362-94.463c7.136-38.744,15.692-77.568,27.907-114.962  c25.209-77.173,64.261-147.371,116.231-209.957c19.459-23.434,39.085-46.98,60.861-68.189  c44.057-42.91,92.722-80.079,146.626-110.162c36.728-20.497,74.932-37.388,115.101-49.862c4.322-1.342,8.312-3.927,12.686-4.865  c2.83-0.607,6.078,0.735,9.14,1.205c6.437,21.109,9.881,24.342,26.991,25.343c-0.033,9.771-0.065,19.542-0.097,29.312  c-11.284,0-22.568,0-35.214,0c0,38.334,0,75.525,0,112.676c-19.694,0-37.991,0-57.278,0c0-27.44,0-53.946,0-82.036  c-4.587,1.941-7.897,3.01-10.885,4.661c-15.634,8.641-31.562,16.827-46.695,26.281c-43.284,27.042-81.779,59.909-114.874,98.753  c-14.854,17.433-28.197,36.163-42.047,54.44c-21.473,28.337-38.432,59.282-52.511,91.859l0.073-0.023  c-0.512,0.665-1.024,1.331-1.537,1.996c-8.355,21.089-17.529,41.897-24.9,63.325c-17.136,49.816-27.463,101.151-31.763,153.677  c-0.877,11.639-1.732,23.28-2.635,34.917c-4.221,54.375,0.237,108.28,9.222,161.877c10.688,63.757,30.174,124.89,58.621,182.845  c13.392,27.282,30.061,52.956,45.245,79.358c0.795,0.674,1.591,1.348,2.386,2.023c0,0-0.268,0.147-0.264,0.144  c1.281,2.577,2.148,5.483,3.897,7.689c22.71,28.632,44.047,58.552,68.805,85.3c21.227,22.932,46.406,42.206,69.838,63.098  c22.133,15.483,44.265,30.966,66.398,46.449C804.319,1597.497,806.332,1613.203,808.346,1628.909z"></path>	<path style="fill:#FC9D43;" d="M1389.055,1341.644c8.965-0.652,17.929-1.304,26.894-1.955c1.043,12.326,4.02,14.241,19.427,10.648  c2.395,33.552,4.77,66.83,7.145,100.108c0.684,0.1,1.368,0.2,2.052,0.3c5.923-11.031,11.847-22.061,18.266-34.015  c0.39,0.199,2.435,1.846,4.709,2.274c4.924,0.926,11.045,3.321,14.762,1.404c12.565-6.483,25.027-13.664,36.054-22.432  c6.154-4.894,11.022-8.265,18.642-5.395c-1.767,2.887-3.363,5.896-5.325,8.644c-69.73,97.698-161.503,167.416-271.599,213.859  c-2.715-18.189-5.449-36.377-8.14-54.571c-3.205-21.665-6.372-43.336-9.556-65.004c-2.078-15.456-4.155-30.912-6.233-46.368  c-0.535-2.657-1.07-5.315-1.604-7.972l0.228,0.015c-5.683-37.526-11.451-75.04-17.027-112.582  c-5.796-39.027-11.406-78.081-17.097-117.124c2.093,0.451,5.153,0.181,6.119,1.474c5.28,7.068,11.232,14.005,14.693,21.969  c4.507,10.373,17.773,18.706,9.21,32.955c-0.724,1.206,0.617,3.667,1.028,5.539c0.88,4.004,2.301,7.97,2.555,12.011  c0.428,6.804,0.124,13.655,0.12,20.486c-0.004,5.767,1.104,8.392,8.567,7.696c10.153-0.947,20.815-0.39,30.802,0.177  c17.014,0.966,34.169,6.112,50.427,11.868c16.19,5.733,28.749,1.664,40.582-8.812c6.049-5.355,9.529-4.906,12.568,2.703  c1.27,3.181,1.399,6.925,1.525,10.432C1379.094,1336.771,1381.697,1341.21,1389.055,1341.644z"></path>	<path style="fill:#FCA448;" d="M1537.005,1392.581c-7.62-2.87-12.487,0.501-18.642,5.395  c-11.027,8.768-23.489,15.949-36.054,22.432c-3.716,1.918-9.838-0.477-14.762-1.404c-2.274-0.428-4.319-2.075-4.709-2.274  c-6.419,11.954-12.342,22.984-18.266,34.015c-0.684-0.1-1.368-0.2-2.052-0.3c-2.375-33.278-4.75-66.556-7.145-100.108  c-15.407,3.593-18.384,1.677-19.427-10.648c-0.043-16.883-0.085-33.765-0.126-50.647c11.596-1.901,18.847-10.898,21.527-28.034  c1.076-6.881,4.133-10.046,11.043-11.149c17.427-2.782,34.717-6.42,52.131-9.298c10.914-1.804,22.182-4.892,32.872-3.689  c11.554,1.301,19.221-0.598,25.276-10.691c1.148-1.914,6.503-1.734,9.871-1.573c0.798,0.038,0.872,4.391,2.232,5.897  c2.403,2.659,5.539,4.655,8.368,6.928c0.333-2.869,1.026-5.751,0.925-8.605c-0.202-5.739-0.091-10.498,6.49-13.575  c4.331-2.025,7.431-6.684,11.082-10.163c0.493,17.282,1.004,34.564,1.472,51.848c0.184,6.782,0.272,13.567,0.403,20.351  c-1.737,6.793-2.148,14.32-5.433,20.256c-15.909,28.745-32.59,57.062-48.997,85.531c-1.974-0.538-3.948-1.076-5.922-1.615  c-0.443,2.293-0.886,4.586-1.328,6.879C1537.558,1389.755,1537.281,1391.168,1537.005,1392.581z"></path>	<path style="fill:#1F2237;" d="M941.263,1802.607c-37.033-0.066-74.066-0.132-111.1-0.199c13.184-0.549,26.372-1.586,39.549-1.455  c7.36,0.073,9.596-2.24,9.32-9.492c-0.975-25.605-1.343-51.233-2.104-76.847c-0.51-17.164-1.033-34.336-2.108-51.469  c-0.352-5.613-2.46-11.117-3.764-16.67c0.664-4.554,1.329-9.108,1.993-13.662c1.794-2.366,4.543-4.483,5.236-7.136  c8.204-31.427,16.1-62.935,24.078-94.422c3.476-2.357,7.239-4.392,10.347-7.162c2.997-2.671,5.318-6.099,7.935-9.195  c1.313,0.584,2.625,1.168,3.938,1.753c-0.794,5.279-1.743,10.542-2.325,15.845c-0.365,3.327-1.299,7.239-0.022,9.974  c3.525,7.547,8.331,14.482,12.168,21.898c6.625,12.802,17.139,23.97,17.055,39.663c0.262,1.119,0.525,2.238,0.788,3.358  c-0.129,1.376-0.259,2.751-0.388,4.127c-0.319,9.116-0.638,18.231-0.956,27.347c-0.386,3.862-0.773,7.724-1.16,11.586  c-2.384,40.253-4.769,80.505-7.153,120.758C942.148,1781.673,941.706,1792.14,941.263,1802.607z"></path>	<path style="fill:#474354;" d="M873.049,1632.813c-0.664,4.554-1.329,9.108-1.993,13.663c-3.979,7.356-7.656,14.897-11.999,22.032  c-10.563,17.357-21.032,34.892-40.256,44.439c-3.485-28.012-6.971-56.024-10.456-84.037c-2.014-15.707-4.027-31.413-6.04-47.117  c-0.031-3.224,0.223-6.482-0.138-9.67c-3.962-34.985-8.02-69.959-12.047-104.938c1.523-5.051,3.042-10.099,4.801-15.946  c2.642,3.676,4.655,6.476,6.668,9.276c0.13-0.885,0.259-1.77,0.389-2.655c7.545-0.292,15.094-0.517,22.634-0.909  c3.183-0.165,6.786,0.166,9.435-1.204c6.844-3.538,12.737-3.124,18.971,1.397c2.082,1.51,5.445,1.254,8.223,1.805  c1.306,19.685,2.732,39.363,3.89,59.057c2.071,35.213,3.945,70.437,6.021,105.65  C871.334,1626.735,872.396,1629.762,873.049,1632.813z"></path>	<path style="fill:#1F2237;" d="M898.519,363.168c-17.111-1.001-20.555-4.234-26.992-25.343c-1.635-2.083-3.101-4.331-4.953-6.197  c-1.604-1.616-3.645-2.8-5.493-4.174c1.291-1.391,3.022-2.572,3.802-4.207c6.163-12.91,19.226-7.987,29.035-11.412  c6.398-0.439,12.829-1.44,19.178-1.064c2.882,0.171,7.879,2.914,8.007,4.762c0.595,8.572,5.799,7.434,11.44,6.968  c5.747-0.475,11.539-0.41,17.306-0.577c0.471,0.594,0.948,1.184,1.424,1.774c-0.036,1.944-0.147,3.89-0.096,5.832  c0.601,22.802,4.624,26.354,27.158,24.029c13.742-1.418,20.863-13.815,15.812-27.529c0.456-1.345,1.146-2.663,1.307-4.043  c0.196-1.675-0.053-3.402-0.11-5.107c-15.152,1.313-30.304,2.626-45.456,3.938c-0.578-11.327,1.661-14.357,12.189-15.102  c10.686-0.755,21.408-1.005,32.114-1.476c3.633,2.068,7.265,4.139,10.9,6.202c1.835,1.042,3.647,2.896,5.522,2.966  c8.634,0.32,17.287,0.141,28.916,0.141c-5.589-7.542-8.886-14.635-14.397-18.793c-7.785-5.873-8.907-11.809-5.16-19.918  c0.806-1.745,1.152-3.713,1.628-5.598c4.38-17.362-0.047-23.302-18.022-24.212c-1.773-0.159-3.545-0.319-5.318-0.478  c-5.182,0.078-10.967-1.304-15.423,0.534c-9.632,3.974-18.582,9.6-27.811,14.551c-17.684,2.011-32.138-3.964-44.036-20.235  c-3.517,6.743-6.456,11.508-8.556,16.618c-2.786,6.782-4.917,13.833-7.33,20.768c-3.528-16.085-7.055-32.17-10.583-48.254  c3.133-0.217,6.266-0.434,8.553-0.592c-3.33-10.126-6.238-18.965-9.145-27.804c0.816-0.317,1.633-0.634,2.449-0.952  c10.43,24.985,29.911,35.72,56.071,35.184c12.609-0.258,25.195-1.568,37.792-2.402c19.655,13.777,51.867,3.104,58.895-12.583  c5.482-12.237,8.378-24.396,7.708-37.598c5.822,10.263,11.472,20.628,17.54,30.744c2.907,4.846,6.34,9.442,10.011,13.746  c3.989,4.676,9.856,8.224,12.461,13.476c2.627,5.294,5.172,13.867,2.697,17.898c-11.299,18.404-12.271,38.613-13.541,58.987  c-4.097-0.783-8.165-1.874-12.3-2.282c-8.645-0.852-15.546,0.323-15.445,11.835c0.027,3.111-3.706,6.256-5.713,9.385  c-0.769-0.39-1.538-0.779-2.307-1.169c-0.607-4.627-1.214-9.254-1.93-14.708c-11.877,1.06-23.133,2.064-34.391,3.069  c-1.355,3.421-3.561,6.756-3.915,10.278c-1.555,15.425-5.636,22.067-16.988,23.776c-7.332,1.104-15.024,1.607-22.299,0.575  c-3.825-0.543-8.677-4.249-10.281-7.789c-2.974-6.564-3.906-14.054-5.635-20.948c-15.515-0.461-15.514-0.461-17.332,13.552  c-0.743,5.729-1.491,11.458-2.363,18.15C916.419,361.279,907.469,362.224,898.519,363.168z M898.462,322.271  c-4.063,0.564-8.194,0.853-12.152,1.838c-1.406,0.35-2.39,2.393-3.566,3.664c-2.456,0.262-4.911,0.524-7.325,0.782  c1.131,23.205,6.352,29.996,22.826,30.199c8.523-0.501,17.047-1.001,26.302-1.545c-1.079-4.17-1.795-6.936-2.511-9.703  c-0.205-5.689-0.41-11.378-0.615-17.065C918.161,317.424,915.202,316.371,898.462,322.271z"></path>	<path style="fill:#1F2237;" d="M1242.385,1495.509c3.184,21.668,6.351,43.339,9.556,65.004c2.691,18.194,5.425,36.382,8.14,54.571  c4.019,31.744,7.98,63.497,12.073,95.233c3.721,28.855,7.585,57.692,11.386,86.535c0.118,0.713,0.236,1.427,0.354,2.142  c-1.744,1.46-3.48,4.176-5.234,4.187c-20.633,0.138-41.269-0.129-61.904-0.289c1.316-3.763,3.884-7.573,3.745-11.282  c-0.935-24.888-2.242-49.767-3.898-74.618c-0.488-7.321-2.493-14.541-3.802-21.805c0.075-1.879,0.149-3.759,0.223-5.639  c2.554-4.508,6.653-8.771,7.413-13.564c5.051-31.824,9.915-63.698,13.798-95.682  C1237.656,1552.122,1239.721,1523.779,1242.385,1495.509z"></path>	<path style="fill:#ED8C60;" d="M1003.927,322.768c11.256-1.004,22.512-2.009,34.389-3.069c0.715,5.453,1.323,10.081,1.93,14.708  c0.769,0.39,1.538,0.779,2.307,1.169c2.007-3.129,5.74-6.274,5.713-9.385c-0.101-11.513,6.801-12.687,15.445-11.835  c4.135,0.407,8.203,1.498,12.3,2.282c3.689,12.489,6.843,24.953,2.213,37.985c-3.143,8.848-8.593,16.524-17.806,17.475  c-11.319,1.168-13.902,7.156-13.792,16.587c-0.448,5.54-0.947,11.077-1.333,16.621c-1.974,28.346-3.918,56.693-5.873,85.04  c-9.883,7.373-19.766,14.746-29.648,22.119c-2.61-2.82-4.753-6.435-7.925-8.3c-7.519-4.421-15.525-8.012-23.335-11.939  c0.938-0.857,1.848-1.747,2.818-2.566c22.536-19.043,36.861-43.155,44.214-71.576c0.462-1.22,0.926-2.439,1.39-3.657  c-0.414-0.109-0.827-0.217-1.241-0.326c-0.145,1.248-0.29,2.496-0.435,3.744c-1.864,2.579-3.89,5.058-5.566,7.754  c-12.697,20.411-30.871,31.669-54.972,33.118c5.287-8.444,11.187-16.569,15.751-25.387  C998.406,398.681,1006.445,361.814,1003.927,322.768z M1069.405,356.887c-4.366-3.864-7.128-6.451-10.167-8.658  c-0.191-0.139-3.957,3.456-3.653,4.02c1.79,3.329,4.167,6.393,6.757,9.162C1062.594,361.68,1065.651,359.322,1069.405,356.887z"></path>	<path style="fill:#292B3F;" d="M1212.8,1695.185c1.31,7.266,3.315,14.486,3.803,21.807c1.656,24.851,2.962,49.73,3.898,74.618  c0.139,3.708-2.429,7.519-3.745,11.282c-7.133-0.002-14.266-0.005-21.4-0.007c-10.439-0.016-20.878-0.032-31.316-0.047  c-1.289-0.003-2.578-0.007-3.867-0.01c-0.743-0.703-1.487-1.406-2.23-2.11c0.064-2.575,0.127-5.15,0.191-7.725  c-0.341-5.198-0.683-10.396-1.024-15.594c-0.346-1.955-0.692-3.911-1.038-5.866c-1.556-10.915-2.195-22.059-4.854-32.698  c-5.866-23.473-12.749-46.692-19.214-70.012c2.787,1.198,5.825,2.009,8.316,3.65  C1162.331,1686.97,1185.239,1698.455,1212.8,1695.185z"></path>	<path style="fill:#4E4C5D;" d="M980.24,231.966c-12.597,0.834-25.184,2.144-37.792,2.402  c-26.161,0.536-45.641-10.199-56.071-35.184c-0.816,0.317-1.633,0.634-2.449,0.952c2.907,8.839,5.815,17.679,9.145,27.804  c-2.286,0.158-5.419,0.375-8.553,0.592c-4.347-8.925-8.873-17.768-12.984-26.801c-3.384-7.436-2.357-14.628,3.063-20.789  c5.464-6.211,12.327-6.22,19.602-3.671c5.179,1.815,10.456,3.351,15.617,5.211c17.665,6.363,34.782,5.875,51.534-3.255  c15.392-8.389,31.009-17.059,49.353-14.912c7.727,0.904,15.137,4.513,22.691,6.892c-1.369,2.187-2.927,4.28-4.078,6.576  c-10.795,21.527-23.987,40.798-47.045,51.049C981.319,229.256,980.906,230.894,980.24,231.966z M965.312,205.365  c-11.722,11.2-25.699,15.234-43.163,12.986C939.455,227.432,959.492,221.128,965.312,205.365z"></path>	<path style="fill:#C6B396;" d="M1158.135,1792.992c-0.064,2.575-0.127,5.15-0.191,7.726c-0.08,0.731-0.159,1.463-0.239,2.194  c-72.147-0.101-144.294-0.203-216.442-0.305c0.443-10.467,0.885-20.935,1.328-31.403c71.16,0.108,142.321,0.218,213.482,0.328  c0.346,1.955,0.692,3.911,1.038,5.866C1157.452,1782.596,1157.793,1787.794,1158.135,1792.992z"></path>	<path style="fill:#292B3F;" d="M818.802,1712.947c19.224-9.548,29.693-27.082,40.256-44.439  c4.342-7.135,8.019-14.676,11.999-22.032c1.304,5.553,3.412,11.057,3.764,16.67c1.075,17.133,1.597,34.306,2.108,51.469  c0.761,25.614,1.129,51.242,2.104,76.847c0.276,7.252-1.96,9.565-9.32,9.492c-13.177-0.131-26.365,0.906-39.549,1.455l-0.705,0.045  c0,0-0.703-0.061-0.703-0.061c-1.104-10.116-2.207-20.233-3.311-30.349C823.23,1752.345,821.016,1732.646,818.802,1712.947z"></path>	<path style="fill:#FABD8D;" d="M895.103,276.786c2.413-6.935,4.543-13.986,7.33-20.768c2.099-5.11,5.039-9.875,8.556-16.618  c11.898,16.271,26.352,22.246,44.037,20.235c16.762,1.709,29.514-8.076,43.234-15.085c1.773,0.159,3.545,0.319,5.32,0.478  c-0.327,2.536-0.587,5.083-0.994,7.606c-2.781,17.205-5.593,34.405-8.395,51.606c-10.706,0.471-21.428,0.721-32.114,1.476  c-10.528,0.744-12.766,3.775-12.195,15.093c-0.186,0.361-0.193,0.734-0.028,1.111c-5.772,0.171-11.564,0.106-17.312,0.581  c-5.641,0.466-10.845,1.604-11.44-6.968c-0.128-1.848-5.125-4.591-8.007-4.762c-6.349-0.376-12.78,0.625-19.178,1.064  C894.313,300.152,894.708,288.469,895.103,276.786z"></path>	<path style="fill:#FDE3C9;" d="M1285.12,1797.335c-0.073-4.547,0.943-9.462-0.443-13.566c-2.995-8.869,0.199-10.569,8.478-10.491  c36.733,0.344,73.477,0.593,110.2-0.062c8.819-0.157,11.453,3.439,12.394,10.671c0.209,1.604,0.195,3.24,0.237,4.863  c0.358,13.895,0.355,13.892-13.317,13.911c-36.735,0.052-73.471,0.182-110.205-0.014c-2.385-0.013-4.756-2.514-7.135-3.857  C1285.096,1798.329,1285.027,1797.844,1285.12,1797.335z"></path>	<path style="fill:#FDE3C9;" d="M825.444,1772.044c1.104,10.116,2.207,20.233,3.311,30.349c-4.42,0.733-8.85,2.149-13.26,2.09  c-32.792-0.436-65.581-1.159-98.37-1.82c-1.573-0.032-3.142-0.332-4.494-0.482c-0.419-1.038-0.933-1.663-0.846-2.187  c4.433-26.515,4.439-26.515,31.904-26.536c20.498-0.016,40.997,0.081,61.494-0.106  C811.941,1773.291,818.691,1772.501,825.444,1772.044z"></path>	<path style="fill:#292B3F;" d="M980.24,231.966c0.665-1.072,1.079-2.71,2.032-3.134c23.058-10.251,36.25-29.522,47.045-51.049  c1.151-2.296,2.709-4.389,4.078-6.576c4.482,3.526,8.965,7.052,13.447,10.578c0.67,13.202-2.226,25.361-7.708,37.598  C1032.108,235.07,999.896,245.743,980.24,231.966z"></path>	<path style="fill:#1F2237;" d="M1164.04,1802.837c10.439,0.016,20.878,0.032,31.316,0.047  C1184.917,1802.869,1174.479,1802.853,1164.04,1802.837z"></path>	<path style="fill:#FC9D43;" d="M1537.834,1388.342c0.443-2.293,0.886-4.586,1.328-6.879c1.974,0.538,3.948,1.076,5.922,1.614  C1542.667,1384.832,1540.25,1386.587,1537.834,1388.342z"></path>	<path style="fill:#C6B396;" d="M1285.12,1797.335c-0.093,0.509-0.024,0.994,0.209,1.455c0.001-0.001-0.684,0.327-0.684,0.327  s-0.75-0.122-0.75-0.123c-0.119-0.716-0.237-1.431-0.355-2.143C1284.081,1796.968,1284.607,1797.129,1285.12,1797.335z"></path>	<path style="fill:#1F2237;" d="M1157.705,1802.912c0.08-0.731,0.159-1.463,0.239-2.194c0.743,0.703,1.486,1.406,2.23,2.109  C1159.35,1802.855,1158.527,1802.884,1157.705,1802.912z"></path>	<path style="fill:#FCA448;" d="M1389.055,1341.644c-7.358-0.433-9.961-4.872-10.206-11.667c-0.127-3.507-0.255-7.251-1.525-10.432  c-3.038-7.609-6.519-8.058-12.568-2.703c-11.833,10.476-24.392,14.545-40.582,8.812c-16.258-5.756-33.413-10.903-50.427-11.868  c-9.986-0.567-20.649-1.123-30.802-0.177c-7.463,0.696-8.571-1.929-8.567-7.696c0.005-6.831,0.308-13.682-0.12-20.486  c-0.254-4.041-1.675-8.007-2.555-12.011c-0.411-1.872-1.753-4.333-1.028-5.539c8.563-14.249-4.703-22.581-9.21-32.955  c-3.46-7.964-9.413-14.901-14.693-21.969c-0.966-1.293-4.026-1.023-6.118-1.476c0.001-0.001,0.099-0.163,0.102-0.164  c0.231-0.59,0.36-1.2,0.391-1.83c14.13,0,28.26,0,43.715,0c-10.669-37.358-20.779-72.757-30.889-108.156  c-0.18-1.218-0.361-2.435-0.541-3.653c-0.519-5.219-1.038-10.438-1.558-15.657c3.344-2.969,5.054-6.716,6.921-10.383  c1.101-2.162,2.607-4.122,3.656-6.306c2.121-4.412,4.204-8.854,6.008-13.401c1.04-2.62,1.03-5.718,2.319-8.166  c3.179-6.039,27.299-14.506,30.604-9.695c4.682,6.814,5.712,16.294,7.594,24.791c0.646,2.918-2.072,6.817-1.029,9.352  c1.296,3.149,4.898,5.35,7.505,7.96c3.213,1.233,6.416,3.507,9.639,3.536c30.558,0.278,61.119,0.174,91.678,0.179  c3.506,0.001,7.012,0,11.614,0c0,63.242,0,125.533,0.001,187.823c0.005,2.524,0.009,5.048,0.013,7.572  c0.012,5.934,0.025,11.868,0.037,17.802c0.003,4.487,0.005,8.974,0.007,13.461c0.003,5.277,0.007,10.553,0.01,15.83  c-0.013,3.182-0.026,6.366-0.039,9.549C1388.626,1335.16,1388.84,1338.402,1389.055,1341.644z"></path>	<path style="fill:#FCAC4D;" d="M1275.451,1076.167c-2.606-2.61-6.209-4.811-7.505-7.96c-1.043-2.536,1.676-6.434,1.029-9.352  c-1.882-8.497-2.912-17.977-7.594-24.791c-3.305-4.81-27.425,3.657-30.604,9.695c-1.289,2.448-1.279,5.546-2.319,8.166  c-1.804,4.547-3.887,8.989-6.008,13.401c-1.049,2.183-2.556,4.144-3.656,6.306c-1.867,3.667-3.577,7.414-6.921,10.383  c0.519,5.219,1.039,10.438,1.558,15.656c-2.634-8.091-5.588-16.093-7.847-24.286c-9.433-34.21-18.658-68.477-27.96-102.723  c0.134-2.548-0.24-5.252,0.483-7.621c6.379-20.891,12.953-41.723,19.469-62.572c4.136,9.77,12.656,5.21,19.301,5.078  c1.346-0.027,3.558-7.122,3.647-10.998c0.396-17.334,0.379-34.688-0.092-52.018c-0.061-2.254-3.627-4.412-5.57-6.615  c-0.142-1.005-0.283-2.01-0.425-3.015c0.498-3.17,0.836-6.375,1.522-9.504c3.515-16.031,7.119-32.042,10.692-48.06l0.351-0.412  l-0.291-0.456c0.653-2.328,1.306-4.656,1.959-6.984l0.3-0.402l-0.308-0.396c0.633-2.304,1.266-4.608,1.899-6.912  c7.143-31.017,14.286-62.034,21.429-93.051c7.517,0,15.035,0,23.392,0c0,6.238,0,11.557,0,16.876  c-0.012,4.545-0.025,9.091-0.037,13.636c-0.006,3.275-0.012,6.55-0.018,9.824c0.001,1.933,0.001,3.865,0.002,5.798  c0.014,37.775,0.028,75.55,0.042,113.324c-0.003,3.896-0.005,7.792-0.007,11.688c0.002,3.266,0.005,6.532,0.007,9.797  c0.001,3.246,0.002,6.492,0.003,9.739c-0.002,1.962-0.003,3.924-0.005,5.887c-0.002,3.244-0.004,6.489-0.007,9.734  c-0.001,2.617-0.003,5.233-0.004,7.85c-0.642,16.837-1.407,33.671-1.822,50.513c-0.082,3.317,1.188,6.667,1.834,10.002  c0,1.309,0,2.619,0.001,3.928c0.002,1.947,0.004,3.895,0.006,5.842c0.004,7.164,0.008,14.328,0.011,21.492  c-0.652,2.384-1.862,4.765-1.873,7.152c-0.133,28.468-0.136,56.938,0.001,85.406c0.011,2.371,1.283,4.737,1.97,7.105  C1275.476,1073.602,1275.463,1074.885,1275.451,1076.167z"></path>	<path style="fill:#FCAC4D;" d="M1597.64,1205.092c-3.651,3.479-6.751,8.138-11.082,10.163c-6.581,3.077-6.693,7.836-6.49,13.575  c0.101,2.854-0.591,5.736-0.925,8.605c-2.829-2.273-5.965-4.27-8.368-6.928c-1.361-1.506-1.434-5.859-2.232-5.897  c-3.368-0.161-8.723-0.341-9.871,1.573c-6.054,10.093-13.722,11.992-25.276,10.691c-10.691-1.204-21.958,1.885-32.872,3.689  c-17.414,2.878-34.703,6.516-52.131,9.298c-6.91,1.103-9.966,4.268-11.043,11.149c-2.68,17.136-9.931,26.132-21.527,28.034  c0.026-6.48,0.053-12.96,0.081-19.441c0.004-4.601,0.008-9.202,0.012-13.802c-0.002-1.268-0.005-2.536-0.006-3.804  c0.009-0.674,0.018-1.348,0.026-2.022c0-14.899,0-29.798,0-45.328c11.548-1.338,12.299-8.598,9.851-17.721  c-0.571-2.129-0.234-4.515-0.229-6.782c0.104-43.767,0.221-87.534,0.335-131.301c1.264,2.858,3.526,5.683,3.621,8.579  c0.406,12.407,0.173,24.834,0.173,36.733c20.193,2.334,10.566-14.04,15.014-21.205c3.141,1.203,5.776,2.211,8.41,3.22  c0.005,17.785-0.138,35.572,0.156,53.352c0.05,3.038,1.969,6.046,3.024,9.068c-0.007,18.282-0.014,36.563-0.019,54.844  c-4.392,1.89-4.405,3.796-0.018,5.718c1.559,1.342,3.09,3.808,4.682,3.849c12.563,0.321,25.137,0.178,39.125,0.178  c0-100.993,0-200.897,0-300.801c0.63,3.699,1.801,7.397,1.81,11.097c0.125,47.355,0.074,94.71,0.109,142.066  c0.002,3.313,0.331,6.627,0.508,9.94c0.884,0.221,1.769,0.442,2.653,0.663c3.494-6.591,6.897-13.232,10.512-19.756  c2.488-4.49,5.019-8.997,7.996-13.163c2.532-3.545,6.026-6.405,8.541-9.958c2.094-2.957,3.385-6.483,5.031-9.756  c0.886,0.01,1.773,0.021,2.659,0.031c1.692,6.969,2.801,14.154,5.272,20.834c1.791,4.84-1.747,12.293,6.357,14.319  c0.471,4.81,1.339,9.618,1.35,14.429c0.095,42.777,0.038,85.555,0.026,128.332c-0.001,3.483,0,6.966,0,11.846  c12.192,0,23.422-0.136,34.644,0.082C1590.91,1203.446,1594.271,1204.494,1597.64,1205.092z"></path>	<path style="fill:#35364A;" d="M1228.663,766.69l0.308,0.396c0,0-0.3,0.402-0.3,0.402c-0.653,2.328-1.306,4.656-1.959,6.983  l0.291,0.456c0,0-0.351,0.412-0.351,0.412c-1.999,2.732-4.831,5.185-5.855,8.244c-4.93,14.719-9.006,29.727-14.056,44.402  c-16.096,46.776-29.839,94.552-56.498,136.96c-2.643,4.205-6.238,7.811-9.393,11.695c0.578-5.233,1.158-10.466,1.738-15.699  c1.399-21.695-4.621-40.478-23.211-53.081c-12.834-8.7-27.863-11.438-43.246-11.923c0.01-2.396,0.019-4.792,0.029-7.188  c24.047-6.027,45.354-1.042,63.977,17.336c3.645-18.413,7.017-35.447,10.39-52.48c6.494-26.302,13.18-52.559,19.399-78.926  c3.114-13.202,5.376-26.605,8.023-39.918c7.058-34.458,14.864-68.787,20.797-103.438c2.302-13.445,1.87-27.9-7.229-40.014  c-2.554-6.475-5.109-12.95-7.663-19.425c13.415,8.327,27.295,16.001,40.136,25.135c19.037,13.542,26.629,33.414,27.833,56.112  c0.239,4.518,0.123,9.055,0.17,13.59c-7.143,31.024-14.286,62.041-21.429,93.057  C1229.929,762.082,1229.296,764.386,1228.663,766.69z"></path>	<path style="fill:#FCB150;" d="M1551.511,1048.691c-8.104-2.026-4.567-9.479-6.357-14.319c-2.471-6.681-3.58-13.865-5.272-20.834  c-0.886-0.01-1.773-0.021-2.659-0.031c-1.646,3.274-2.938,6.799-5.031,9.756c-2.516,3.554-6.009,6.414-8.541,9.958  c-2.977,4.167-5.508,8.673-7.996,13.163c-3.615,6.524-7.018,13.165-10.512,19.756c-0.884-0.221-1.769-0.442-2.653-0.663  c-0.177-3.313-0.506-6.627-0.508-9.94c-0.035-47.355,0.016-94.711-0.109-142.066c-0.01-3.701-1.18-7.399-1.81-11.097  c0.012-9.792,0.024-19.585,0.035-29.377c0.014-11.029,0.028-22.057,0.043-33.086c0-8.677,0-17.353,0-27.291  c17.275,0,33.964,0,50.652-0.001c-0.004,4.823-0.204,9.656,0.03,14.469c0.493,10.106,1.215,20.2,1.843,30.3  C1552.28,921.155,1551.896,984.923,1551.511,1048.691z"></path>	<path style="fill:#FCB150;" d="M1453.111,1076.167c-2.634-1.009-5.268-2.017-8.41-3.22c-4.448,7.165,5.179,23.539-15.014,21.205  c0-11.898,0.233-24.326-0.173-36.733c-0.095-2.896-2.357-5.721-3.62-8.579c-0.041-92.201-0.085-184.401-0.102-276.602  c0-0.944,0.34-1.889,0.675-3.628c9.461,0,19.024,0,29.836,0c0,11.901,0,24.05,0.003,36.197c-1.055,3.682-3.029,7.363-3.036,11.049  C1453.088,902.627,1453.119,989.397,1453.111,1076.167z"></path>	<path style="fill:#706F7F;" d="M1051.038,492.484c7.727,4.388,15.455,8.776,23.182,13.164c0.71,0.703,1.419,1.406,2.129,2.109  c0,0-0.073-0.13-0.073-0.13c0.257,1.908,0.306,3.871,0.803,5.714c5.556,20.602,11,41.237,16.916,61.735  c1.435,4.972,0.84,7.579-4.012,9.95c-9.307,4.547-18.281,9.776-27.395,14.721c-1.998-0.374-4.038-1.212-5.987-1.04  c-8.596,0.761-17.166,1.813-25.745,2.76c0.2-1.302,0.4-2.604,0.6-3.906c0.531-2.77,1.062-5.54,1.593-8.31  c0.651-10.226,1.302-20.451,1.954-30.677C1040.348,536.544,1045.693,514.514,1051.038,492.484z"></path>	<path style="fill:#575667;" d="M1183.853,571.884c2.554,6.475,5.109,12.95,7.662,19.43c-7.817,4.039-15.634,8.072-23.452,12.107  c-1.942-2.87-3.543-6.057-5.875-8.563c-21.489-23.094-46.218-42.289-72.402-59.705c-1.965-7.682-3.929-15.364-5.894-23.046  c31.953,19.04,63.905,38.081,95.859,57.122c1.36,0.974,2.719,1.947,4.078,2.92L1183.853,571.884z"></path>	<path style="fill:#FCFCFC;" d="M1009.771,512.464c9.883-7.373,19.765-14.746,29.648-22.119c1.852,0.621,3.703,1.242,5.554,1.862  c-0.872,3.073-1.357,6.324-2.678,9.189c-9.194,19.934-18.578,39.78-27.861,59.673c-2.632,5.641-5.132,11.343-7.95,17.588  c-3.484-2.859-5.714-4.688-7.944-6.518c-5.321-5.272-10.642-10.544-15.963-15.815c-2.849-5.112-2.849-5.112-9.75,0.594  c-5.396,0.044-6.846-2.88-5.788-7.692C981.283,536.972,995.527,524.718,1009.771,512.464z"></path>	<path style="fill:#CBD7E2;" d="M998.539,572.14c2.23,1.829,4.46,3.659,7.944,6.518c2.818-6.245,5.318-11.947,7.95-17.588  c9.283-19.893,18.668-39.739,27.861-59.673c1.321-2.865,1.806-6.117,2.678-9.189c2.023,0.091,4.045,0.182,6.066,0.275  c-5.346,22.032-10.691,44.061-16.035,66.091c-4.917,13.732-9.835,27.465-14.755,41.198c-8.971-0.492-19.312-12.291-22.345-25.493  C998.116,573.565,998.328,572.853,998.539,572.14z"></path>	<path style="fill:#FCA448;" d="M1453.111,1076.167c0.008-86.77-0.023-173.54,0.158-260.31c0.008-3.685,1.981-7.367,3.036-11.049  c0.154,2.267,0.449,4.532,0.449,6.798c0.024,106.729,0.024,213.457,0.002,320.185c0,2.265-0.299,4.531-0.462,6.795  c-1.058-3.022-2.977-6.03-3.027-9.068C1452.973,1111.739,1453.115,1093.952,1453.111,1076.167z"></path>	<path style="fill:#313246;" d="M1083.892,512.107c1.965,7.682,3.93,15.364,5.895,23.046c5.081,16.737,9.602,33.674,15.5,50.118  c2.579,7.19,0.49,10.43-5.007,14.198c-7.029,4.818-13.476,10.485-20.174,15.787c-5.839-5.17-11.678-10.339-17.516-15.508  c9.112-4.946,18.087-10.174,27.394-14.721c4.852-2.371,5.447-4.977,4.012-9.95c-5.916-20.499-11.361-41.134-16.916-61.735  c-0.497-1.843-0.546-3.806-0.803-5.714C1078.814,509.12,1081.353,510.613,1083.892,512.107z"></path>	<path style="fill:#FCA448;" d="M1275.489,1072.319c-0.686-2.368-1.958-4.733-1.97-7.105c-0.137-28.468-0.134-56.938-0.001-85.406  c0.011-2.387,1.22-4.768,1.873-7.152C1275.423,1005.877,1275.456,1039.098,1275.489,1072.319z"></path>	<path style="fill:#FCA448;" d="M1275.372,941.395c-0.646-3.335-1.916-6.685-1.834-10.002c0.415-16.843,1.18-33.676,1.822-50.513  C1275.364,901.051,1275.368,921.223,1275.372,941.395z"></path>	<path style="fill:#FCAC4D;" d="M1552.665,857.388c-0.628-10.099-1.35-20.194-1.843-30.3c-0.235-4.812-0.034-9.646-0.03-14.469  c0.691,7.49,1.674,14.967,1.99,22.472C1553.094,842.509,1552.731,849.954,1552.665,857.388z"></path>	<path style="fill:#FCAC4D;" d="M1500.14,839.911c-0.015,11.029-0.029,22.058-0.043,33.086  C1500.111,861.969,1500.125,850.94,1500.14,839.911z"></path>	<path style="fill:#FCA448;" d="M1275.347,697.239c0.012-4.545,0.025-9.091,0.037-13.636  C1275.371,688.148,1275.359,692.694,1275.347,697.239z"></path>	<path style="fill:#FD9A41;" d="M1388.44,1306.54c-0.002-4.487-0.005-8.974-0.007-13.461  C1388.435,1297.566,1388.438,1302.053,1388.44,1306.54z"></path>	<path style="fill:#FC9D43;" d="M1415.916,1255.799c-0.004,4.6-0.008,9.201-0.012,13.802  C1415.908,1265.001,1415.912,1260.4,1415.916,1255.799z"></path>	<path style="fill:#FCA448;" d="M1275.365,837.873c0.002-3.896,0.005-7.792,0.007-11.688  C1275.37,830.082,1275.368,833.978,1275.365,837.873z"></path>	<path style="fill:#FCA448;" d="M1456.255,1199.149c-4.388-1.922-4.374-3.828,0.018-5.718  C1456.265,1195.337,1456.26,1197.243,1456.255,1199.149z"></path>	<path style="fill:#FCA448;" d="M1275.364,873.03c0.002-3.245,0.004-6.489,0.007-9.734  C1275.368,866.541,1275.366,869.785,1275.364,873.03z"></path>	<path style="fill:#FCA448;" d="M1275.375,857.41c-0.001-3.246-0.002-6.493-0.003-9.739  C1275.373,850.917,1275.374,854.163,1275.375,857.41z"></path>	<path style="fill:#FD9A41;" d="M1388.411,1331.918c0.013-3.183,0.026-6.366,0.039-9.549  C1388.437,1325.553,1388.424,1328.736,1388.411,1331.918z"></path>	<path style="fill:#FD9A41;" d="M1388.395,1275.277c-0.004-2.524-0.008-5.048-0.013-7.572  C1388.386,1270.23,1388.391,1272.753,1388.395,1275.277z"></path>	<path style="fill:#FCA448;" d="M1275.33,712.861c-0.001-1.933-0.001-3.866-0.002-5.798  C1275.329,708.996,1275.33,710.929,1275.33,712.861z"></path>	<path style="fill:#FCA448;" d="M1275.379,951.165c-0.002-1.947-0.004-3.895-0.006-5.842  C1275.375,947.27,1275.377,949.217,1275.379,951.165z"></path>	<path style="fill:#35364A;" d="M1183.829,572.149c-1.359-0.973-2.719-1.946-4.078-2.92  C1181.109,570.202,1182.469,571.176,1183.829,572.149z"></path>	<path style="fill:#313246;" d="M1076.349,507.757c-0.71-0.703-1.419-1.406-2.129-2.109  C1074.93,506.351,1075.64,507.054,1076.349,507.757z"></path>	<path style="fill:#FC9D43;" d="M1415.936,1249.973c-0.009,0.674-0.017,1.348-0.026,2.022  C1415.918,1251.321,1415.927,1250.647,1415.936,1249.973z"></path>	<path style="fill:#FD9A41;" d="M591.245,1377.088c-15.184-26.403-31.853-52.076-45.245-79.358  c-28.447-57.955-47.933-119.087-58.621-182.845c-8.985-53.597-13.442-107.502-9.222-161.877  c0.903-11.637,1.758-23.278,2.634-34.918c7.223,7.677,14.943,14.95,21.575,23.109c18.709,23.015,42.844,38.139,69.828,49.242  c31.455,12.943,64.582,12.12,97.664,11.448c0.02,34.099,0.882,68.224-0.199,102.288c-0.925,29.177,8.775,54.777,22.963,79.059  c6.924,11.85,16.044,22.418,24.17,33.566c1.966,4.615,5.361,9.142,5.65,13.86c1.229,20.04,1.517,40.136,2.186,60.211  c0.637,19.101,1.022,38.217,2.092,57.294c0.685,12.22,2.411,24.383,3.67,36.571c-16.32,3.333-31.587,7.742-40.92,23.888  c-4.952,8.568-13.703,9.69-23.729,7.345c-13.547-3.168-27.538-4.422-41.314-6.652c-1.694-0.275-3.724-1.096-4.766-2.354  c-6.484-7.828-12.569-15.991-19.169-23.717c-1.66-1.943-4.717-2.692-7.132-3.99c0,0,0.268-0.147,0.267-0.147  C592.834,1378.437,592.04,1377.763,591.245,1377.088z"></path>	<path style="fill:#FCB150;" d="M669.859,1001.889c-33.082,0.673-66.209,1.495-97.664-11.447  c-26.984-11.103-51.12-26.227-69.828-49.242c-6.632-8.158-14.353-15.432-21.575-23.109c4.301-52.525,14.627-103.861,31.764-153.677  c7.371-21.428,16.545-42.235,24.898-63.323c0.512-0.665,1.025-1.331,1.539-1.997c0,0-0.073,0.023-0.072,0.023  c2.528-1.047,6.411-1.408,7.348-3.26c4.092-8.086,10.311-10.93,19.031-10.655c1.41,0.044,4.564-4.366,4.167-6.082  c-2.59-11.188-0.52-13.993,11.29-17.351c4.707-1.338,9.345-4.699,12.779-8.312c5.057-5.321,8.288-12.515,13.725-17.282  c2.887-2.531,8.984-2.612,13.211-1.747c1.479,0.303,3.358,7.548,2.082,10.184c-1.615,3.334-6.162,5.354-9.644,7.636  c-2.019,1.323-6.306,2.06-6.301,3.042c0.015,2.615,1.123,6.034,3.045,7.638c2.825,2.358,6.717,3.454,10.185,5.019  c4.392,1.981,8.815,3.893,15.587,6.875c-7,5.456-11.53,8.987-16.18,12.612c7.58,5.685,18.781,6.239,24.807,1.662  c5.292-4.02,10.615-8,15.827-12.121c10.887-8.609,17.434-8.4,27.457,1.722c3.686,3.722,6.53,8.277,9.758,12.452  c3.846-5.853,3.984-10.187,6.145-12.924c2.574-3.259,6.883-5.148,10.441-7.63c-0.011,4.312,1.117,9.038-0.271,12.848  c-2.807,7.704-9.159,14.641-10.115,22.38c-1.751,14.183-13.117,27.111-5.951,42.433c-2.097,8.099-4.194,16.199-6.291,24.299  c-13.306,37.11-22.609,75.152-26.607,114.426c1.12,11.97,2.24,23.94,3.361,35.91c0.73,2.856,1.459,5.713,2.189,8.569  c-0.024,22.847-0.047,45.695-0.071,68.542C669.897,1000.629,669.875,1001.259,669.859,1001.889z"></path>	<path style="fill:#FDB756;" d="M697.344,748.255c-7.166-15.323,4.2-28.251,5.95-42.434c0.955-7.739,7.308-14.676,10.115-22.38  c1.388-3.81,0.261-8.536,0.271-12.848c-3.557,2.482-7.867,4.371-10.441,7.63c-2.161,2.736-2.299,7.071-6.145,12.924  c-3.228-4.175-6.073-8.73-9.758-12.452c-10.023-10.122-16.57-10.331-27.457-1.722c-5.212,4.121-10.535,8.101-15.827,12.121  c-6.025,4.577-17.227,4.023-24.807-1.662c4.65-3.624,9.18-7.155,16.18-12.612c-6.772-2.982-11.195-4.894-15.587-6.875  c-3.468-1.565-7.36-2.661-10.185-5.019c-1.922-1.604-3.03-5.023-3.045-7.638c-0.006-0.982,4.282-1.719,6.301-3.042  c3.482-2.282,8.029-4.302,9.644-7.636c1.276-2.635-0.602-9.881-2.082-10.184c-4.228-0.865-10.325-0.784-13.211,1.747  c-5.437,4.768-8.667,11.962-13.725,17.282c-3.435,3.613-8.072,6.974-12.779,8.312c-11.81,3.358-13.88,6.163-11.29,17.351  c0.397,1.716-2.757,6.127-4.167,6.082c-8.72-0.275-14.939,2.569-19.031,10.655c-0.937,1.852-4.82,2.213-7.348,3.26  c14.078-32.578,31.037-63.523,52.51-91.86c13.85-18.277,27.193-37.007,42.047-54.44c33.095-38.844,71.589-71.711,114.874-98.753  c15.133-9.454,31.061-17.64,46.695-26.281c2.988-1.652,6.298-2.72,10.885-4.661c0,28.09,0,54.596,0,82.036  c19.287,0,37.584,0,57.278,0c0-37.151,0-74.343,0-112.676c12.646,0,23.93,0,35.214,0.001c0.648,3.134,1.031,6.351,1.989,9.386  c4.727,14.971,9.64,29.883,14.415,44.839c1.815,5.687,4.172,11.331,4.996,17.176c1.78,12.619,2.729,25.355,4.018,38.043  c-1.305,2.878-2.61,5.756-3.914,8.634c-2.608,1.227-5.419,2.148-7.792,3.728c-17.755,11.822-35.433,23.759-53.113,35.694  c-7.758,5.237-15.461,10.554-23.189,15.835c-1.277,0.843-2.555,1.685-3.832,2.528l0.025-0.015  c-0.882,0.614-1.763,1.228-2.645,1.843c-1.919,1.226-3.838,2.451-5.757,3.677c-11.753,7.811-23.506,15.623-35.26,23.434  c-20.433,10.076-35.092,26.033-46.38,45.451c-4.928,8.479-9.967,16.894-14.955,25.338c-0.743,1.422-1.487,2.843-2.23,4.265  c0.085,0.502,0.046,0.994-0.118,1.477c-5.467,7.679-11.913,15.002-9.328,25.613c-0.779,1.959-1.557,3.917-2.336,5.876  c-1.165-0.144-2.331-0.288-3.496-0.432c0.684,1.464,1.367,2.927,2.051,4.391c-0.775,2.056-1.55,4.113-2.325,6.169  c-0.336-0.864-0.672-1.727-1.008-2.591c-3.38,1.989-8.251,19.145-6.714,23.643C700.131,740.406,698.738,744.33,697.344,748.255z"></path>	<path style="fill:#F47531;" d="M730.394,1384.738c-1.259-12.188-2.985-24.351-3.67-36.571c-1.07-19.077-1.455-38.193-2.092-57.294  c-0.669-20.075-0.958-40.171-2.186-60.211c-0.289-4.718-3.684-9.245-5.65-13.86c4.527-2.597,9.053-5.194,13.58-7.792  c9.588,0,19.176,0,29.429,0c1.454,12.157,2.819,23.562,4.183,34.966c0.591,5.244,1.182,10.488,1.773,15.732  c0.041,2.273-0.116,4.569,0.151,6.815c5.701,47.896,11.434,95.788,17.199,143.677c2.288,19.002,4.669,37.992,7.007,56.987  c4.032,34.977,8.09,69.951,12.052,104.936c0.361,3.188,0.107,6.447,0.138,9.67c-22.134-15.485-44.266-30.968-66.398-46.451  c0.16-10.646,0.856-21.315,0.384-31.933C734.533,1463.842,732.391,1424.293,730.394,1384.738z"></path>	<path style="fill:#FB903C;" d="M730.393,1384.738c1.998,39.556,4.14,79.105,5.898,118.671c0.472,10.617-0.223,21.287-0.384,31.933  c-23.432-20.892-48.612-40.166-69.839-63.098c-24.759-26.748-46.095-56.668-68.805-85.3c-1.749-2.206-2.617-5.111-3.897-7.689  c2.411,1.301,5.468,2.051,7.128,3.994c6.6,7.725,12.685,15.889,19.169,23.717c1.042,1.258,3.072,2.079,4.766,2.354  c13.776,2.23,27.766,3.484,41.314,6.652c10.026,2.344,18.777,1.222,23.729-7.345  C698.807,1392.479,714.074,1388.071,730.393,1384.738z"></path>	<path style="fill:#FABD8D;" d="M923.84,501.926c-1.289-12.688-2.238-25.424-4.018-38.043c-0.825-5.845-3.181-11.49-4.996-17.176  c-4.775-14.956-9.688-29.868-14.415-44.839c-0.958-3.035-1.341-6.252-1.989-9.386c0.032-9.771,0.064-19.542,0.096-29.313  c8.951-0.945,17.9-1.89,26.594-2.807c0.871-6.692,1.619-12.421,2.363-18.15c1.818-14.012,1.817-14.013,17.332-13.552  c1.729,6.894,2.661,14.384,5.635,20.948c1.604,3.54,6.456,7.246,10.281,7.789c7.275,1.032,14.967,0.528,22.299-0.575  c11.352-1.709,15.433-8.351,16.988-23.776c0.355-3.522,2.56-6.857,3.915-10.278c2.519,39.047-5.519,75.913-23.455,110.562  c-4.564,8.817-10.465,16.943-15.751,25.388c-10.06,1.067-20.121,2.133-30.993,3.285c0,6.572,0,12.935,0,19.299  C930.431,488.177,927.135,495.052,923.84,501.926z M958.715,411.8c-11.764,1.079-23.527,2.158-35.823,3.285  c2.39,8.217,7.773,10.819,15.93,10.897c10.297,0.099,17.801-2.822,20.407-13.665c0.212-0.375,0.424-0.749,0.636-1.124  C959.482,411.396,959.098,411.598,958.715,411.8z M920.754,369.535c2.734,3.317,5.082,8.864,8.043,9.213  c6.846,0.809,14.049-0.582,20.962-1.865c1.335-0.248,2.005-4.072,2.982-6.247c-2.272-0.999-4.562-2.882-6.813-2.837  C938.296,367.952,930.678,368.788,920.754,369.535z M964.896,402.741c-0.07-0.477-0.141-0.955-0.211-1.432  c-14.969,0-29.939,0-44.908,0c-0.001,0.477-0.002,0.955-0.004,1.432C934.814,402.741,949.855,402.741,964.896,402.741z"></path>	<path style="fill:#FDB756;" d="M538.992,699.094c-0.514,0.666-1.027,1.332-1.539,1.997  C537.968,700.424,538.48,699.759,538.992,699.094z"></path>	<path style="fill:#FB903C;" d="M591.245,1377.088c0.794,0.674,1.589,1.349,2.385,2.023  C592.836,1378.437,592.04,1377.763,591.245,1377.088z"></path>	<path style="fill:#313246;" d="M1242.385,1495.509c-2.664,28.271-4.729,56.614-8.149,84.792  c-3.883,31.984-8.747,63.858-13.798,95.682c-0.761,4.793-4.859,9.056-7.415,13.563c-1.358-8.846-2.588-17.713-4.099-26.531  c-3.18-18.556-6.508-37.087-9.775-55.628c-1.368-8.275-2.15-16.698-4.196-24.803c-16.953-67.164-33.955-134.317-51.344-201.369  c-6.988-26.945-14.98-53.63-22.516-80.434c2.634,1.691,5.778,2.917,7.816,5.151c9.121,10.001,17.831,20.376,26.867,30.457  c26.149,29.172,48.488,61.079,68.722,94.561c2.426,4.015,6.805,6.85,10.278,10.232c0,0-0.228-0.015-0.228-0.014  c0.535,2.658,1.07,5.315,1.605,7.971C1238.23,1464.596,1240.308,1480.052,1242.385,1495.509z"></path>	<path style="fill:#242539;" d="M1234.776,1441.182c-3.474-3.382-7.852-6.217-10.278-10.232  c-20.234-33.482-42.573-65.388-68.722-94.561c-9.036-10.081-17.745-20.456-26.867-30.457c-2.038-2.234-5.181-3.461-7.816-5.151  c-1.309-2.596-2.618-5.191-3.927-7.787c-5.845-19.551-11.69-39.102-17.534-58.653c-1.317-8.476-2.634-16.952-3.952-25.427  c27.953-0.014,55.906-0.027,83.859-0.041c6.652,0.203,13.303,0.406,19.955,0.608c0.419,0.61,0.838,1.221,1.257,1.831  c0,0-0.099,0.161-0.099,0.163c5.69,39.044,11.3,78.098,17.096,117.125C1223.325,1366.143,1229.093,1403.656,1234.776,1441.182z"></path>	<path style="fill:#242539;" d="M1236.153,1449.14c-0.535-2.657-1.07-5.314-1.605-7.971  C1235.083,1443.825,1235.618,1446.483,1236.153,1449.14z"></path>	<path style="fill:#2E3044;" d="M873.049,1632.813c-0.653-3.051-1.715-6.077-1.896-9.156c-2.076-35.212-3.95-70.437-6.021-105.65  c-1.158-19.694-2.584-39.372-3.889-59.057c-1.274-18.383-2.636-36.761-3.801-55.151c-1.433-22.612-2.493-45.249-4.091-67.849  c-2.395-33.863-5.12-67.702-7.703-101.552c-1.295-20.821-2.591-41.642-3.886-62.462c-0.634-4.581-1.268-9.162-1.902-13.742  c6.87-3.072,13.841-5.942,20.589-9.263c11.164-5.494,22.218-11.217,33.221-17.03c1.211-0.64,1.939-2.415,2.618-3.798  c2.097-4.272,4.061-8.609,6.076-12.921c4.557,3.913,9.114,7.826,13.671,11.739c1.275,9.772,2.551,19.544,3.827,29.316  c0.029,3.907,0.059,7.813,0.088,11.72c-1.311,3.167-3.787,6.345-3.755,9.498c0.369,36.015,1.93,72.035,1.569,108.037  c-0.468,46.67-1.283,93.39-4.04,139.965c-2.094,35.366-7.453,70.538-11.36,105.797c-7.977,31.487-15.874,62.994-24.078,94.422  C877.592,1628.33,874.843,1630.446,873.049,1632.813z"></path>	<path style="fill:#FCFCFC;" d="M1156.072,1771.531c-71.161-0.11-142.321-0.219-213.482-0.328  c2.385-40.251,4.769-80.504,7.153-120.756c17.956,1.778,35.887,3.957,53.882,5.124c6.588,0.427,13.331-1.545,20.003-2.423  c1.225-0.205,2.45-0.41,3.675-0.615c4.473,0.583,8.975,1.838,13.412,1.64c27.508-1.228,55.002-2.783,82.5-4.229  c2.487,5.334,4.974,10.669,7.462,16.003c0.479,0.87,0.958,1.74,1.437,2.609l-0.115,0.263c6.468,23.323,13.351,46.541,19.217,70.014  C1153.877,1749.473,1154.516,1760.617,1156.072,1771.531z"></path>	<path style="fill:#242539;" d="M902.363,1531.255c3.906-35.259,9.266-70.431,11.36-105.797c2.757-46.575,3.572-93.295,4.04-139.965  c0.361-36.002-1.2-72.022-1.569-108.037c-0.032-3.153,2.444-6.331,3.755-9.498c5.709,23.662,15.435,45.145,33.741,61.931  c1.732,1.589,3.8,2.811,7.854,5.762c-2.578-12.568-4.623-22.536-6.668-32.504c0.706-0.004,1.411-0.008,2.117-0.013  c2.743,12.536,5.486,25.073,8.228,37.61c6.121,21.244,5.32,42.826,3.717,64.565c-1.667,22.599-2.499,45.259-3.696,67.892  c-0.476,8.739-0.92,17.479-1.434,26.216c-2.836,48.188-5.665,96.376-8.549,144.561c-1.198,20.021-2.527,40.035-3.797,60.052  c0.083-15.694-10.431-26.861-17.056-39.664c-3.837-7.416-8.644-14.351-12.168-21.898c-1.278-2.735-0.343-6.647,0.022-9.974  c0.581-5.303,1.531-10.565,2.325-15.845c-1.313-0.584-2.625-1.168-3.938-1.753c-2.618,3.096-4.939,6.524-7.935,9.195  C909.602,1526.862,905.839,1528.898,902.363,1531.255z"></path>	<path style="fill:#FD8839;" d="M1027.304,1652.534c-1.225,0.205-2.45,0.41-3.675,0.614c-23.5-4.847-47-9.693-70.499-14.539  c-0.423-9.031-0.846-18.063-1.27-27.094c0.13-1.376,0.259-2.751,0.388-4.127c0.777-0.55,2.151-1.013,2.245-1.662  c2.232-15.337,4.638-30.66,6.327-46.06c0.986-8.985,14.735-23.614,22.421-21.728c8.494,2.084,16.618,5.679,25.206,8.722  c1.844-1.973,3.559-3.809,5.274-5.645c0.636,2.068,1.597,4.095,1.857,6.209c1.878,15.292,3.686,30.592,5.377,45.905  C1023.139,1612.923,1025.193,1632.732,1027.304,1652.534z"></path>	<path style="fill:#FB903C;" d="M1013.721,1541.015c-1.715,1.836-3.43,3.672-5.274,5.645c-8.588-3.044-16.712-6.638-25.206-8.722  c-7.686-1.886-21.435,12.743-22.421,21.728c-1.689,15.401-4.095,30.723-6.327,46.06c-0.095,0.649-1.468,1.113-2.245,1.662  c-0.262-1.12-0.525-2.24-0.787-3.358c1.271-20.016,2.6-40.029,3.798-60.051c2.884-48.185,5.712-96.373,8.549-144.561  c0.514-8.736,0.958-17.477,1.434-26.216c2.584,10.463,4.389,21.197,7.914,31.333c7.547,21.705,14.726,43.685,24.392,64.466  C1008.289,1492.095,1014.628,1515.589,1013.721,1541.015z"></path>	<path style="fill:#FDE3C9;" d="M953.13,1638.609c23.5,4.846,47,9.692,70.499,14.539c-6.672,0.879-13.415,2.851-20.003,2.424  c-17.996-1.167-35.926-3.346-53.882-5.124c0.387-3.862,0.773-7.724,1.16-11.589C951.646,1638.774,952.388,1638.691,953.13,1638.609  z"></path>	<path style="fill:#FB903C;" d="M953.13,1638.609c-0.742,0.083-1.483,0.166-2.226,0.25c0.318-9.113,0.637-18.229,0.956-27.344  C952.283,1620.546,952.706,1629.577,953.13,1638.609z"></path>	<path style="fill:#4E4C5D;" d="M845.646,1234.399c2.584,33.849,5.309,67.689,7.704,101.552c1.599,22.6,2.658,45.237,4.091,67.849  c1.166,18.39,2.527,36.768,3.801,55.151c-2.779-0.552-6.142-0.295-8.224-1.805c-6.234-4.521-12.126-4.935-18.971-1.397  c-2.649,1.37-6.252,1.038-9.435,1.204c-7.54,0.392-15.089,0.617-22.634,0.909c-0.13,0.885-0.259,1.77-0.389,2.655  c-2.013-2.8-4.025-5.6-6.668-9.276c-1.759,5.846-3.278,10.895-4.801,15.946c-2.343-18.994-4.724-37.984-7.012-56.985  c-5.765-47.889-11.497-95.781-17.199-143.677c-0.267-2.246-0.111-4.542-0.151-6.814c1.488-1.056,3.161-1.928,4.437-3.198  c11.111-11.065,22.261-20.418,40.133-18.681C821.881,1238.953,833.859,1235.694,845.646,1234.399z"></path>	<path style="fill:#ED8C60;" d="M994.19,304.241c2.802-17.201,5.614-34.401,8.395-51.606c0.408-2.523,0.668-5.07,0.994-7.606  c17.973,0.91,22.4,6.85,18.02,24.212c-0.476,1.886-0.822,3.854-1.628,5.598c-3.748,8.108-2.625,14.045,5.16,19.918  c5.511,4.158,8.808,11.251,14.397,18.793c-11.629,0-20.282,0.179-28.916-0.141c-1.875-0.07-3.686-1.924-5.522-2.966  C1001.454,308.379,997.823,306.309,994.19,304.241z"></path>	<path style="fill:#ED8C60;" d="M994.147,326.03c5.05,13.715-2.07,26.111-15.812,27.529c-22.534,2.325-26.556-1.226-27.158-24.029  c-0.051-1.942,0.06-3.888,0.097-5.826c6.911-1.131,13.82-2.269,20.73-3.406c0.427,1.874,0.855,3.748,1.282,5.622  c-0.172,0.849-0.344,1.698-0.516,2.547c-2.068,1.835-4.136,3.67-6.204,5.505c10.26,1.056,21.316,6.154,25.746-7.646  C992.398,326.059,993.512,326.122,994.147,326.03z"></path>	<path style="fill:#FDE3C9;" d="M898.245,358.753c-16.474-0.203-21.696-6.994-22.826-30.199c2.414-0.258,4.87-0.52,7.325-0.782  c4.474,0,8.948,0,13.523,0c0.204,4.533,0.361,8.027,0.518,11.521c0.551,5.958,1.102,11.916,1.652,17.874  C898.211,357.676,898.147,358.205,898.245,358.753z"></path>	<path style="fill:#ED8C60;" d="M898.437,357.167c-0.551-5.958-1.102-11.916-1.652-17.871c6.736,1.591,14.546,6.937,17.421-4.978  c2.405-1.293,4.809-2.587,7.214-3.88c0.205,5.689,0.41,11.378,0.615,17.066c0.786,6.38-2.05,8.495-8.352,8.208  C908.633,355.482,903.521,356.631,898.437,357.167z"></path>	<path style="fill:#403E50;" d="M914.206,334.318c-2.875,11.915-10.685,6.569-17.421,4.978c-0.157-3.497-0.314-6.991-0.518-11.524  c-4.575,0-9.049,0-13.523,0c1.177-1.27,2.161-3.314,3.566-3.664c3.958-0.985,8.089-1.274,12.152-1.838  c2.929,1.062,5.789,2.69,8.804,3.065C912.934,326.041,915.135,328.816,914.206,334.318z"></path>	<path style="fill:#313246;" d="M994.147,326.03c-0.635,0.092-1.749,0.029-1.835,0.297c-4.43,13.8-15.486,8.703-25.746,7.646  c2.068-1.835,4.136-3.67,6.205-5.507c0.172-0.85,0.344-1.697,0.515-2.545c-0.427-1.874-0.855-3.748-1.279-5.622  c6.053-0.015,12.12,0.223,18.142-0.198c1.798-0.126,3.468-2.095,5.196-3.22c0.057,1.705,0.306,3.432,0.11,5.107  C995.292,323.367,994.602,324.685,994.147,326.03z"></path>	<path style="fill:#ED8C60;" d="M998.259,244.55c-13.72,7.009-26.471,16.794-43.234,15.085c9.229-4.95,18.179-10.576,27.81-14.551  C987.291,243.246,993.076,244.628,998.259,244.55z"></path>	<path style="fill:#AD4734;" d="M995.344,316.881c-1.728,1.125-3.398,3.095-5.196,3.22c-6.022,0.421-12.089,0.184-18.142,0.198  c-6.912,1.137-13.822,2.274-20.732,3.406c-0.477-0.596-0.954-1.186-1.425-1.78c-0.16-0.381-0.153-0.754,0.033-1.115  C965.039,319.506,980.192,318.193,995.344,316.881z"></path>	<path style="fill:#605F72;" d="M914.206,334.318c0.929-5.503-1.272-8.277-6.94-8.982c-3.015-0.375-5.874-2.003-8.804-3.065  c16.74-5.9,19.699-4.847,22.958,8.169C919.015,331.732,916.61,333.025,914.206,334.318z"></path>	<path style="fill:#C6B396;" d="M898.437,357.167c5.084-0.537,10.196-1.685,15.246-1.455c6.302,0.287,9.138-1.828,8.352-8.208  c0.717,2.767,1.432,5.534,2.512,9.704c-9.255,0.544-17.778,1.044-26.302,1.545C898.147,358.205,898.211,357.676,898.437,357.167z"></path>	<path style="fill:#474354;" d="M1130.679,1665.947c-2.487-5.334-4.975-10.669-7.462-16.003c-0.617-2.502-1.1-5.047-1.871-7.501  c-6.1-19.412-12.255-38.807-18.393-58.207c1.483-1.228,2.844-3.309,4.468-3.54c7.802-1.107,15.665-1.879,23.53-2.386  c2.055-0.133,4.173,1.23,6.307,1.699c4.944,1.088,9.942,2.995,14.869,2.852c8.626-0.25,17.22-1.748,25.818-2.802  c5.527-0.678,7.731,2.176,9.83,7.037c3.057,7.08,7.515,13.556,11.375,20.289c3.267,18.541,6.595,37.072,9.775,55.628  c1.511,8.818,2.74,17.685,4.099,26.531c-0.073,1.881-0.146,3.761-0.222,5.64c-27.563,3.269-50.47-8.216-72.481-22.716  c-2.491-1.641-5.528-2.452-8.316-3.65c-0.003-0.002,0.111-0.265,0.116-0.267  C1131.643,1667.684,1131.161,1666.815,1130.679,1665.947z"></path>	<path style="fill:#FABD8D;" d="M1009.771,512.464c-14.244,12.254-28.489,24.508-42.734,36.76c-2.609-0.145-5.217-0.288-7.825-0.431  c-1.495-2.847-2.364-6.366-4.584-8.435c-16.41-15.292-18.363-34.945-17.413-55.578c4.397,1.696,9.05,2.928,13.14,5.182  c9.152,5.042,18.303,7.265,28.156,2.263c7.81,3.927,15.816,7.518,23.335,11.939  C1005.018,506.029,1007.161,509.644,1009.771,512.464z"></path>	<path style="fill:#AD4734;" d="M978.511,492.225c-9.854,5.002-19.004,2.779-28.156-2.263c-4.09-2.253-8.743-3.486-13.14-5.183  c-1.163-1.16-2.326-2.32-3.489-3.479c0-6.363,0-12.726,0-19.298c10.873-1.152,20.933-2.218,30.993-3.285  c24.101-1.451,42.275-12.709,54.972-33.12c1.677-2.696,3.702-5.175,5.566-7.754c0,0,0.288,0.241,0.288,0.241  c-7.355,28.419-21.681,52.531-44.217,71.574C980.36,490.478,979.449,491.368,978.511,492.225z"></path>	<path style="fill:#FDE3C9;" d="M1069.405,356.887c-3.754,2.435-6.812,4.793-7.063,4.524c-2.591-2.769-4.967-5.833-6.757-9.162  c-0.303-0.564,3.462-4.159,3.653-4.02C1062.277,350.436,1065.039,353.023,1069.405,356.887z"></path>	<path style="fill:#AD4734;" d="M1025.258,417.844c0.145-1.248,0.29-2.496,0.435-3.744c0.414,0.109,0.827,0.217,1.241,0.326  c-0.464,1.218-0.928,2.437-1.39,3.657C1025.546,418.085,1025.258,417.844,1025.258,417.844z"></path>	<path style="fill:#1F2237;" d="M1158.135,1792.992c-0.341-5.198-0.683-10.396-1.024-15.594  C1157.452,1782.596,1157.793,1787.794,1158.135,1792.992z"></path>	<path style="fill:#35364A;" d="M965.312,205.365c-5.82,15.763-25.856,22.067-43.163,12.986  C939.612,220.599,953.589,216.566,965.312,205.365z"></path>	<path style="fill:#292B3F;" d="M1199.496,1209.482c-6.652-0.203-13.304-0.406-19.953-0.607  c-13.217-21.364-25.031-43.777-39.991-63.844c-21.217-28.459-44.751-55.19-67.295-82.659c2.097-0.605,4.192-1.73,6.29-1.737  c32.804-0.113,65.611-0.25,98.41,0.162c3.488,0.044,8.106,2.648,10.182,5.522c6.798,9.412,12.458,19.639,19.027,29.23  c1.729,2.524,5.159,3.883,7.807,5.777c10.11,35.399,20.219,70.798,30.889,108.156c-15.455,0-29.585,0-43.714,0  C1200.597,1209.307,1200.046,1209.307,1199.496,1209.482z"></path>	<path style="fill:#1F2237;" d="M1213.973,1101.325c-2.649-1.894-6.079-3.253-7.807-5.777c-6.568-9.591-12.229-19.817-19.027-29.23  c-2.076-2.874-6.694-5.478-10.182-5.522c-32.799-0.412-65.606-0.275-98.41-0.162c-2.099,0.007-4.193,1.132-6.29,1.739  c-0.604-1.226-1.209-2.454-1.813-3.682c35.471-0.658,70.941-1.317,106.345-1.974c0.229-12.724-0.571-13.696-10.577-13.731  c-14.919-0.053-29.976,1.255-44.725-0.331c-20.408-2.194-42.14,3.642-61.059-9.054c-1.38-0.926-3.806-0.296-5.745-0.389  c-10.476-5.196-20.952-10.392-31.426-15.589c-0.632-4.566-1.266-9.131-1.899-13.696c20.232,1.266,40.462,2.533,60.693,3.799  c8.127,0.022,16.275,0.427,24.374-0.034c9.523-0.542,18.806-2.255,24.467-11.392c1.203-0.753,2.406-1.507,3.609-2.26  c10.846,0.829,18.833-4.678,26.564-11.388c5.127-4.45,11.013-8.024,16.56-11.991c9.301,34.246,18.526,68.514,27.96,102.723  c2.259,8.193,5.213,16.196,7.847,24.286C1213.612,1098.89,1213.792,1100.107,1213.973,1101.325z"></path>	<path style="fill:#FC9D43;" d="M1199.496,1209.482c0.55-0.175,1.101-0.176,1.651-0.001c-0.031,0.631-0.16,1.24-0.391,1.831  C1200.334,1210.703,1199.915,1210.092,1199.496,1209.482z"></path>	<path style="fill:#292B3F;" d="M1177.624,970.662c-5.547,3.966-11.433,7.541-16.56,11.991c-7.731,6.71-15.718,12.217-26.561,11.389  c2.118-5.8,4.234-11.601,6.349-17.402c3.153-3.884,6.748-7.491,9.391-11.695c26.659-42.407,40.402-90.184,56.498-136.96  c5.05-14.675,9.126-29.683,14.056-44.402c1.024-3.058,3.856-5.511,5.855-8.244c-3.573,16.018-7.177,32.029-10.692,48.06  c-0.686,3.129-1.024,6.334-1.522,9.508c-0.392,1.015-0.784,2.026-1.177,3.038c-0.198,1.325-0.396,2.649-0.594,3.974  c-5.031,20.184-10.061,40.368-15.092,60.552c-6.516,20.849-13.09,41.681-19.469,62.572  C1177.384,965.41,1177.759,968.114,1177.624,970.662z"></path>	<path style="fill:#F7A146;" d="M1197.577,900.47c5.031-20.184,10.061-40.368,15.092-60.552c0.718-1.32,1.436-2.64,2.154-3.959  l0.04-0.041c1.943,2.203,5.508,4.361,5.57,6.615c0.472,17.33,0.489,34.684,0.092,52.018c-0.089,3.876-2.301,10.971-3.647,10.998  C1210.233,905.68,1201.712,910.24,1197.577,900.47z"></path>	<path style="fill:#292B3F;" d="M1226.712,774.471c0.653-2.327,1.306-4.655,1.959-6.983  C1228.018,769.816,1227.365,772.143,1226.712,774.471z"></path>	<path style="fill:#292B3F;" d="M1228.663,766.69c0.633-2.304,1.266-4.608,1.899-6.912  C1229.929,762.082,1229.296,764.386,1228.663,766.69z"></path>	<path style="fill:#F7A146;" d="M1213.262,835.944c0.392-1.011,0.785-2.023,1.177-3.038c0.141,1.001,0.282,2.006,0.424,3.011  c0,0-0.04,0.041-0.04,0.041C1214.303,835.944,1213.782,835.939,1213.262,835.944z"></path>	<path style="fill:#605F72;" d="M1177.948,734.76c-2.647,13.312-4.909,26.716-8.023,39.918  c-6.219,26.367-12.906,52.624-19.401,78.925c-5.826-4.211-11.541-8.584-17.51-12.579c-4.743-3.174-9.891-5.737-14.688-8.836  c-7.818-5.05-15.323-10.611-23.342-15.305c-2.276-1.332-5.876-0.401-8.87-0.508c6.412-28.621,12.825-57.243,19.238-85.864  c2.703-9.789,5.406-19.577,8.109-29.366c10.604-2.873,21.327-0.684,29.646,4.781C1155.63,714.154,1166.421,725.018,1177.948,734.76  z"></path>	<path style="fill:#656678;" d="M1177.948,734.76c-11.527-9.743-22.318-20.607-34.842-28.833  c-8.319-5.465-19.042-7.654-29.647-4.781c-0.341-1.712-0.681-3.425-1.32-6.644c-11.661,12.987-22.316,24.854-32.971,36.721  c-0.572-0.211-1.144-0.423-1.717-0.634c3.515-18.928,7.03-37.855,10.545-56.783c5.718-2.305,9.734-1.748,13.467,4.392  c5.749,9.458,11.048,9.055,17.512-0.22c2.204-3.163,3.954-6.639,6-9.916c9.528-15.258,18.903-30.616,28.719-45.687  c4.316-6.627,9.552-12.655,14.37-18.955c7.817-4.033,15.633-8.067,23.45-12.106c9.1,12.108,9.531,26.564,7.23,40.008  C1192.813,665.973,1185.006,700.303,1177.948,734.76z"></path>	<path style="fill:#313246;" d="M1076.159,888.748c-0.01,2.396-0.019,4.792-0.029,7.193c-24.183-1.888-47.693,0.726-70.136,10.481  c-11.885,7.048-23.769,14.096-35.654,21.144c-17.349,9.815-34.702,19.621-52.018,29.493c-0.403,0.23-0.388,1.194-0.566,1.816  c-2.349,0.689-6.742,1.361-6.747,2.067c-0.079,10.45-6.977,13.419-15.403,15.379c-1.27,0.296-2.008,2.878-2.993,4.403  c-0.67-0.077-1.339-0.153-2.009-0.23c-1.439-0.57-2.878-1.139-4.316-1.709c-3.756-0.555-7.528-1.017-11.264-1.682  c-10.262-1.826-20.508-3.736-30.761-5.613c-2.766-0.259-5.531-0.518-8.297-0.778c-0.65-1.27-1.3-2.54-1.951-3.811  c1.831-10.408,3.662-20.817,5.492-31.225c18.328-4.582,36.591-9.452,55.003-13.671c21.309-4.883,42.808-8.947,64.067-14.024  c3.143-0.751,5.422-5.118,8.101-7.811c0.756-0.573,1.512-1.146,2.268-1.719c1.725,1.74,3.718,5.17,5.13,4.946  c8.842-1.405,17.555-3.625,26.311-5.574c19.68-1.855,39.36-3.71,59.04-5.566c1.638-0.395,3.276-0.79,4.914-1.185  c2.442-0.922,4.884-1.845,7.326-2.768C1073.167,888.454,1074.663,888.601,1076.159,888.748z"></path>	<path style="fill:#575667;" d="M970.341,927.567c11.885-7.048,23.769-14.096,35.652-21.146c1.1,0.583,2.146,1.328,3.31,1.728  c25.247,8.674,50.819,16.507,75.664,26.207c19.668,7.679,38.446,17.638,57.62,26.584c-0.58,5.233-1.16,10.465-1.738,15.699  c-2.113,5.802-4.229,11.603-6.347,17.403c-1.206,0.752-2.409,1.505-3.613,2.257c-4.252-5.054-7.511-12.565-12.921-14.749  c-28.488-11.501-57.484-21.751-86.373-32.249C1011.235,941.902,990.764,934.801,970.341,927.567z"></path>	<path style="fill:#575667;" d="M1076.159,888.748c-1.496-0.147-2.993-0.295-4.488-0.442c3.39-18.097,6.779-36.195,10.168-54.293  c1.425-5.879,2.851-11.758,4.276-17.638c2.993,0.107,6.593-0.824,8.868,0.508c8.019,4.693,15.525,10.254,23.342,15.305  c4.797,3.099,9.946,5.661,14.688,8.836c5.969,3.995,11.684,8.368,17.51,12.579c-3.371,17.034-6.743,34.068-10.388,52.481  C1121.514,887.707,1100.206,882.722,1076.159,888.748z"></path>	<path style="fill:#605F72;" d="M1142.588,960.94c-19.173-8.946-37.951-18.906-57.62-26.584  c-24.845-9.699-50.418-17.533-75.664-26.207c-1.164-0.4-2.21-1.145-3.31-1.728c22.445-9.754,45.955-12.367,70.137-10.479  c15.383,0.48,30.412,3.218,43.246,11.918C1137.967,920.462,1143.986,939.245,1142.588,960.94z"></path>	<path style="fill:#FB903C;" d="M1020.251,599.771c4.918-13.733,9.836-27.465,14.753-41.197  c-0.652,10.226-1.303,20.451-1.954,30.682c-0.531,2.772-1.062,5.539-1.593,8.305c-0.2,1.302-0.4,2.604-0.599,3.906  c-1.682,18.308-3.366,36.617-5.05,54.925c-2.258,29.834-4.514,59.669-6.771,89.504c-14.135,15.904-27.891,32.171-42.561,47.566  c-7.749,8.132-12.496,19.944-25.235,22.585c-0.601,0.049-1.2,0.025-1.795-0.074c3.523-12.297,6.898-24.639,10.609-36.879  c4.181-13.79,8.664-27.487,13.016-41.225c3.471-9.251,7.212-18.41,10.364-27.768  C995.807,673.357,1007.994,636.552,1020.251,599.771z"></path>	<path style="fill:#656678;" d="M1025.808,656.392c1.684-18.308,3.367-36.617,5.049-54.925c8.578-0.947,17.148-1.999,25.744-2.76  c1.949-0.172,3.989,0.666,5.987,1.04c5.839,5.17,11.678,10.34,17.517,15.509c0,0-0.062-0.078-0.062-0.078  c0.681,0.681,1.361,1.363,2.042,2.044l-0.097-0.08c1.591,0.677,3.182,1.354,4.772,2.03c0.459,0.254,0.835,0.601,1.126,1.038  c-3.935,21.773-7.87,43.546-11.804,65.319c-4.775-3.17-9.352-6.709-14.378-9.414c-5.761-3.101-11.743-7.069-17.95-7.755  C1035.07,667.401,1029.142,664.387,1025.808,656.392z"></path>	<path style="fill:#656678;" d="M1031.457,597.56c0.531-2.767,1.063-5.533,1.593-8.305  C1032.519,592.02,1031.988,594.79,1031.457,597.56z"></path>	<path style="fill:#706F7F;" d="M1087.887,620.21c-0.291-0.438-0.666-0.784-1.132-1.038c-1.593-0.677-3.18-1.354-4.766-2.03  c0,0,0.097,0.08,0.097,0.08c-0.681-0.681-1.361-1.363-2.042-2.044c0,0,0.062,0.078,0.062,0.078  c6.698-5.301,13.145-10.969,20.174-15.787c5.497-3.768,7.586-7.008,5.007-14.198c-5.898-16.444-10.419-33.381-15.5-50.118  c26.184,17.416,50.913,36.611,72.402,59.705c2.332,2.506,3.934,5.693,5.875,8.563c-4.817,6.299-10.052,12.327-14.368,18.954  c-9.816,15.071-19.192,30.429-28.719,45.687c-2.047,3.277-3.796,6.753-6,9.916c-6.464,9.275-11.763,9.678-17.512,0.22  c-3.732-6.14-7.748-6.697-13.467-4.392c2.071-12.555,3.375-25.306,6.492-37.596C1096.49,628.31,1093.716,624.042,1087.887,620.21z"></path>	<path style="fill:#AD4734;" d="M973.07,737.868c-4.352,13.738-8.835,27.436-13.016,41.225c-3.711,12.24-7.086,24.582-10.609,36.88  c-2.044,0.033-4.088,0.065-6.132,0.096c-1.085-4.043-2.191-8.08-3.251-12.13c-6.296-24.064-12.581-48.131-18.869-72.197  c5.096-26.028,10.368-52.024,15.214-78.098c2.342-12.6,3.883-25.349,5.787-38.03c4.298-5.473,9.027-10.665,12.809-16.474  c9.26-14.225,13.672-31.564,27.574-42.815c5.321,5.272,10.642,10.544,15.963,15.815c-0.212,0.712-0.423,1.425-0.633,2.138  c-2.642,2.691-5.696,5.09-7.857,8.125c-7.686,10.797-15.381,21.615-22.389,32.852c-2.32,3.72-3.883,8.825-3.565,13.133  C966.795,664.903,970.01,701.38,973.07,737.868z"></path>	<path style="fill:#F47531;" d="M982.576,556.325c-13.902,11.251-18.314,28.589-27.574,42.815  c-3.781,5.809-8.511,11.001-12.809,16.472c-2.921-12.233-4.998-24.75-9.004-36.615c-3.876-11.481,2.309-16.933,10.141-22.334  c9.775,6.678,19.636,3.411,29.496,0.256C979.728,551.213,979.728,551.213,982.576,556.325z"></path>	<path style="fill:#FDE3C9;" d="M972.826,556.919c-9.86,3.155-19.721,6.423-29.496-0.255c1.681-9.915,8.625-9.207,15.882-7.869  c2.608,0.143,5.216,0.286,7.825,0.431C965.98,554.038,967.43,556.963,972.826,556.919z"></path>	<path style="fill:#FCFCFC;" d="M973.07,737.868c-3.06-36.488-6.275-72.965-8.975-109.479c-0.318-4.307,1.245-9.413,3.565-13.133  c7.008-11.237,14.703-22.055,22.389-32.852c2.161-3.035,5.214-5.434,7.857-8.125c3.031,13.202,13.372,25.001,22.343,25.493  c-12.255,36.781-24.442,73.586-36.816,110.329C980.282,719.458,976.54,728.617,973.07,737.868z"></path>	<path style="fill:#FD8839;" d="M730.374,1209.01c-4.526,2.597-9.053,5.194-13.58,7.792c-8.126-11.148-17.246-21.715-24.17-33.566  c-14.189-24.282-23.889-49.882-22.963-79.059c1.08-34.064,0.219-68.189,0.199-102.288c0.016-0.631,0.038-1.26,0.065-1.889  c13.086-3.26,26.689-5.198,39.15-10.06c24.47-9.547,48.305-20.72,72.179-31.122c0.05,0.385,0.216,1.671,0.381,2.954  c-2.677,15.264-5.353,30.53-8.029,45.798c-4.188,19.894-8.376,39.786-12.564,59.679c-10.1,46.641-20.199,93.283-30.298,139.924  C730.506,1207.762,730.383,1208.375,730.374,1209.01z"></path>	<path style="fill:#575667;" d="M968.949,898.453c-0.756,0.573-1.512,1.146-2.267,1.722c-9.914,1.365-19.856,2.562-29.74,4.121  c-38.9,6.132-77.717,12.828-116.69,18.445c-33.852,4.879-67.883,8.509-101.814,12.849c-13.731,1.756-27.408,3.93-41.109,5.914  c-2.444-3.349-4.889-6.697-7.333-10.045c-0.73-2.856-1.459-5.713-2.19-8.572c0.049-4.837-0.051-9.679,0.175-14.505  c1.001-21.311,7.533-39.695,27.351-50.919c2.195,8.647,10.018,8.709,16.259,9.306c10.458,1.001,21.074,0.499,31.621,0.369  c5.715-0.071,7.314,1.876,6.019,7.689c-2.621,11.762-0.784,14.004,11.281,13.76c15.512-0.314,31.011-1.606,46.519-1.682  c6.792-0.033,10.692-1.717,12.922-8.55c1.122-3.438,4.977-5.985,7.595-8.935c1.513,3.477,3.07,6.936,4.517,10.44  c0.587,1.42,0.934,2.939,1.361,4.32c10.063,1.466,18.625,1.414,22.024-10.5c0.713-2.497,4.407-4.144,6.728-6.182  c1.665,2.812,3.569,5.516,4.908,8.476c0.857,1.894,0.879,4.165,1.235,6.056c1.335,0.186,1.973,0.376,2.601,0.347  c13.445-0.63,25.871-2.277,24.897-20.698c-0.065-1.224,5.369-3.428,8.401-3.759c1.085-0.118,3.532,3.861,3.779,6.141  c0.572,5.288,0.182,10.679,0.182,16.406c14.265-1.27,28.623-2.785,43.019-3.731c7.113-0.467,14.295,0.115,21.446,0.222  C971.412,884.123,970.181,891.288,968.949,898.453z"></path>	<path style="fill:#706F7F;" d="M713.017,705.303c0.779-1.959,1.557-3.917,2.334-5.877c3.109-8.538,6.219-17.075,9.33-25.612  c0.164-0.482,0.203-0.974,0.117-1.478c0.743-1.422,1.487-2.843,2.231-4.263c4.989-8.444,10.027-16.859,14.955-25.338  c11.288-19.419,25.947-35.375,46.382-45.45c0.513,2.858,1.778,5.817,1.409,8.555c-1.929,14.31-4.273,28.564-6.473,42.834  c-0.85,7.985-1.402,16.017-2.601,23.951c-4.417,29.226-9.048,58.42-13.599,87.627c-8.545-1.841-12.753,2.284-13.321,10.353  c-1.436-0.083-2.138,0.065-2.652-0.18c-16.664-7.943-12.734,13.769-22.592,16.105c-0.847,0.201-0.208,6.675-0.26,10.235  c0.063,1.386,0.127,2.771,0.19,4.157c-1.952,0.453-3.904,0.907-5.856,1.361c0-3.451,0-6.903,0-10.431  c-13.791,0.944-22.922-6.008-26.698-18.767c-1.789-0.196-3.325-0.365-4.861-0.533c2.097-8.1,4.194-16.2,6.291-24.299  c1.394-3.923,2.788-7.848,4.18-11.773c2.573-7.017,5.148-14.034,7.723-21.051c0.775-2.056,1.55-4.113,2.323-6.17  C712.05,707.94,712.533,706.621,713.017,705.303z"></path>	<path style="fill:#FC9D43;" d="M669.995,931.458c2.444,3.348,4.889,6.697,7.334,10.046c8.414,13.934,19.589,19.075,36.017,16.756  c22.426-3.165,44.866-6.231,67.303-9.338c1.464,1.222,2.925,2.443,4.386,3.664c-1.133,3.063-2.266,6.125-3.399,9.188  c-0.166-1.286-0.333-2.572-0.382-2.956c-23.874,10.403-47.709,21.576-72.179,31.122c-12.462,4.862-26.064,6.8-39.15,10.06  C669.948,977.153,669.972,954.305,669.995,931.458z"></path>	<path style="fill:#656678;" d="M691.052,772.552c1.536,0.168,3.071,0.337,4.861,0.533c3.777,12.759,12.907,19.711,26.698,18.767  c0,3.528,0,6.98,0,10.432c-0.696,0.797-1.391,1.593-2.087,2.389c-6.87,2.41-3.326,5.082-0.195,7.743  c3.366,6.442,6.733,12.883,10.099,19.325c-1.013,0.701-1.951,1.855-3.05,2.036c-30.214,5.003-51.673,20.213-60.041,50.971  c-0.255,0.936-1.898,1.494-2.893,2.229C668.443,847.704,677.746,809.663,691.052,772.552z"></path>	<path style="fill:#403E50;" d="M664.446,886.979c0.996-0.734,2.639-1.293,2.893-2.229c8.367-30.758,29.827-45.968,60.041-50.971  c1.099-0.182,2.037-1.336,3.05-2.036c11.114-0.808,22.227-1.617,33.34-2.426c20.086-0.91,40.171-1.82,60.257-2.731  c-16.105,2.47-32.324,4.37-48.291,7.536c-27.445,5.442-55.349,9.565-80.404,23.339c-19.818,11.223-26.35,29.607-27.351,50.919  c-0.227,4.826-0.126,9.668-0.175,14.505C666.686,910.919,665.566,898.949,664.446,886.979z"></path>	<path style="fill:#656678;" d="M783.303,648.677c2.199-14.273,4.543-28.527,6.472-42.837c0.369-2.738-0.895-5.696-1.409-8.555  c11.751-7.813,23.504-15.624,35.259-23.435c5.276,0.121,10.586-0.093,15.809,0.485c3.23,0.357,6.327,1.919,9.484,2.94  c-1.201,3.347-2.155,6.81-3.66,10.015c-2.233,4.753-4.857,9.323-7.314,13.971c-4.69,3.17-9.38,6.34-15.634,10.568  c7.411,4.659,12.486,7.85,17.733,11.149c4.753-4.117,9.104-7.885,13.455-11.654c0.649,1.384,2.038,2.893,1.83,4.133  c-1.8,10.718,5.774,12.892,13.393,14.9c4.721,1.244,9.556,2.059,14.337,3.06c-3.412,17.362-6.822,34.73-10.232,52.098  c-4.849-1.099-9.743-3.287-14.538-3.088c-13.514,0.562-27.202,1.375-38.195,11.016c-0.566-3.409-1.404-6.798-1.654-10.229  c-0.889-12.18-1.577-24.375-2.341-36.564c-1.186,0.018-2.372,0.035-3.559,0.053c0,27.097,0.067,54.195-0.085,81.291  c-0.019,3.357-1.197,6.707-1.838,10.061c-6.581-12.237-13.161-24.475-19.742-36.712c-1.934-15.171-3.832-30.346-5.84-45.507  C784.712,653.414,783.892,651.061,783.303,648.677z"></path>	<path style="fill:#FCFCFC;" d="M959.212,548.794c-7.257-1.338-14.201-2.045-15.882,7.869c-7.832,5.401-14.017,10.853-10.141,22.334  c4.006,11.865,6.082,24.381,9.004,36.615c-1.903,12.683-3.445,25.432-5.786,38.032c-4.846,26.075-10.117,52.07-15.212,78.095  c-5.621-44.209-11.263-88.411-16.849-132.62c-1.232-9.748-2.263-19.521-3.386-29.282c6.322-19.759,12.644-39.518,18.967-59.276  c1.305-2.878,2.61-5.756,3.915-8.634c3.295-6.875,6.591-13.75,9.886-20.625c1.163,1.159,2.327,2.318,3.489,3.479  c-0.95,20.634,1.003,40.287,17.413,55.579C956.848,542.428,957.717,545.947,959.212,548.794z"></path>	<path style="fill:#706F7F;" d="M919.925,510.56c-6.322,19.759-12.644,39.518-18.967,59.277c-1.268,5.613-2.535,11.224-3.803,16.836  c-0.189,0.466-0.429,0.905-0.72,1.318c0,0,0.12-0.171,0.12-0.171c-0.727,1.345-1.737,2.61-2.136,4.046  c-3.845,13.836-7.588,27.7-11.36,41.556c-4.784-1.007-9.618-1.822-14.339-3.066c-7.619-2.008-15.193-4.182-13.393-14.9  c0.208-1.24-1.181-2.749-1.83-4.133c-0.625-1.909-0.729-4.954-1.968-5.522c-4.317-1.977-9.026-3.096-13.587-4.541  c2.457-4.648,5.081-9.218,7.314-13.971c1.505-3.204,2.459-6.667,3.66-10.015c-3.157-1.021-6.254-2.582-9.484-2.94  c-5.223-0.578-10.533-0.363-15.809-0.485c1.917-1.227,3.836-2.452,5.759-3.678c0.883-0.614,1.762-1.228,2.642-1.842  c0,0-0.025,0.015-0.025,0.015c1.278-0.843,2.555-1.685,3.832-2.528c7.728-5.281,15.431-10.598,23.189-15.835  c17.679-11.935,35.358-23.872,53.113-35.694C914.507,512.709,917.318,511.787,919.925,510.56z M858.001,573.736  c-1.007-1.11-2.013-2.219-3.02-3.329c-1.233,1.757-2.466,3.513-3.699,5.27c0.837,0.725,1.673,1.449,2.51,2.174  C855.195,576.479,856.598,575.107,858.001,573.736z"></path>	<path style="fill:#FCB150;" d="M724.68,673.814c-3.111,8.537-6.221,17.074-9.33,25.612  C712.768,688.815,719.214,681.493,724.68,673.814z"></path>	<path style="fill:#FCB150;" d="M709.247,715.43c-2.575,7.017-5.15,14.033-7.723,21.051c-1.536-4.497,3.335-21.653,6.715-23.642  C708.575,713.703,708.911,714.566,709.247,715.43z"></path>	<path style="fill:#FCB150;" d="M713.017,705.303c-0.483,1.319-0.967,2.637-1.448,3.957c-0.681-1.463-1.365-2.926-2.048-4.39  C710.686,705.014,711.852,705.158,713.017,705.303z"></path>	<path style="fill:#FCB150;" d="M727.028,668.072c-0.744,1.42-1.487,2.841-2.231,4.263  C725.542,670.915,726.285,669.494,727.028,668.072z"></path>	<path style="fill:#656678;" d="M835.832,565.817c-1.277,0.843-2.555,1.685-3.832,2.528  C833.278,567.502,834.555,566.66,835.832,565.817z"></path>	<path style="fill:#656678;" d="M832.025,568.33c-0.879,0.614-1.759,1.228-2.642,1.842  C830.262,569.558,831.144,568.944,832.025,568.33z"></path>	<path style="fill:#35364A;" d="M730.374,1209.01c0.009-0.636,0.132-1.248,0.369-1.839c15.213-2.617,30.397-5.419,45.647-7.798  c16.178-2.524,26.029-11.662,30.522-27.259c2.121-7.363,4.979-14.514,7.503-21.76c3.128-0.825,6.903-0.819,9.251-2.646  c4.99-3.883,9.238-8.719,13.79-13.165c0.8,0.556,1.601,1.112,2.401,1.668c0,7.327,0,14.655,0,21.982  c0.634,4.581,1.268,9.162,1.903,13.742c-1.051,0.735-2.269,1.313-3.128,2.229c-18.457,19.682-36.545,39.726-55.52,58.894  c-4.975,5.025-12.677,7.352-19.126,10.918c-1.364-11.404-2.729-22.809-4.183-34.966  C749.55,1209.01,739.962,1209.01,730.374,1209.01z"></path>	<path style="fill:#474354;" d="M763.987,1243.976c6.449-3.566,14.151-5.892,19.126-10.918  c18.975-19.167,37.063-39.212,55.52-58.894c0.859-0.916,2.078-1.494,3.128-2.229c1.295,20.821,2.591,41.642,3.886,62.463  c-11.788,1.296-23.766,4.554-35.318,3.431c-17.871-1.738-29.022,7.616-40.133,18.681c-1.276,1.27-2.948,2.142-4.437,3.198  C765.169,1254.464,764.578,1249.22,763.987,1243.976z"></path>	<path style="fill:#ED8C60;" d="M959.234,412.322c-2.611,10.839-10.115,13.759-20.412,13.661c-8.157-0.078-13.54-2.68-15.93-10.897  c12.296-1.128,24.059-2.206,35.823-3.285L959.234,412.322z"></path>	<path style="fill:#F47531;" d="M920.754,369.535c9.924-0.748,17.542-1.583,25.174-1.736c2.251-0.045,4.541,1.838,6.813,2.837  c-0.977,2.175-1.648,5.999-2.983,6.247c-6.913,1.283-14.115,2.673-20.962,1.865C925.836,378.399,923.488,372.853,920.754,369.535z"></path>	<path style="fill:#ED8C60;" d="M964.896,402.741c-15.041,0-30.082,0-45.123,0c0.001-0.477,0.002-0.955,0.004-1.432  c14.969,0,29.939,0,44.908,0C964.755,401.787,964.826,402.264,964.896,402.741z"></path>	<path style="fill:#ED8C60;" d="M958.715,411.8c0.383-0.202,0.766-0.404,1.15-0.606c-0.212,0.375-0.424,0.749-0.633,1.126  C959.234,412.322,958.715,411.8,958.715,411.8z"></path>	<path style="fill:#4E4C5D;" d="M1199.15,1607.386c-3.86-6.733-8.318-13.209-11.375-20.289c-2.099-4.862-4.302-7.715-9.83-7.037  c-8.598,1.054-17.192,2.552-25.818,2.802c-4.927,0.142-9.926-1.765-14.869-2.852c-2.134-0.469-4.252-1.832-6.307-1.699  c-7.866,0.507-15.728,1.279-23.53,2.386c-1.624,0.23-2.986,2.312-4.467,3.539c-0.5,0.083-0.969-0.005-1.405-0.264  c-0.535-0.624-1.07-1.249-1.606-1.873c-15.744-43.826-31.347-87.702-47.279-131.459c-11.373-31.234-24.103-62.003-34.576-93.528  c-13.535-40.74-26.552-81.516-52.866-116.367c-2.743-12.536-5.486-25.073-8.228-37.61c-3.29-13.892-6.58-27.785-10.477-44.24  c14.259,8.125,26.685,13.819,37.551,21.673c25.881,18.706,51.025,38.432,76.467,57.746c18.878,18.227,37.755,36.454,56.633,54.681  c1.309,2.596,2.618,5.191,3.927,7.787c7.535,26.803,15.528,53.489,22.516,80.434c17.389,67.052,34.392,134.205,51.344,201.369  C1196.999,1590.688,1197.782,1599.111,1199.15,1607.386z"></path>	<path style="fill:#403E50;" d="M1023.254,1017.624c10.476,5.196,20.952,10.392,31.427,15.588  c6.915,7.465,18.506,12.038,15.762,25.479c0.604,1.228,1.209,2.455,1.813,3.682c22.544,27.468,46.078,54.199,67.295,82.658  c14.96,20.067,26.774,42.48,39.991,63.844c-27.955,0.012-55.908,0.026-83.861,0.04c-20.27-5.165-36.034-15.663-43.535-36.25  c-2.744-7.531-6.001-14.875-9.024-22.304c-4.625-20.249-9.251-40.499-13.876-60.747  C1027.25,1065.619,1025.252,1041.621,1023.254,1017.624z"></path>	<path style="fill:#292B3F;" d="M1043.123,1150.361c3.023,7.429,6.28,14.773,9.024,22.304c7.501,20.587,23.265,31.085,43.535,36.25  c1.317,8.475,2.634,16.951,3.951,25.427c-4.411,0.664-8.803,1.532-13.238,1.949c-8.608,0.808-17.239,1.363-25.861,2.023  c-25.442-19.314-50.586-39.04-76.467-57.746c-10.866-7.853-23.292-13.548-37.551-21.673c3.897,16.455,7.187,30.347,10.477,44.24  c-0.706,0.004-1.412,0.008-2.115,0.013c-4.496-14.977-8.994-29.954-13.491-44.931c-0.007-2.554-0.014-5.109-0.02-7.663  c8.96-21.697,19.347-42.555,34.838-61.487c14.814,13.943,28.547,27.059,42.505,39.93  C1026.656,1136.323,1034.973,1143.252,1043.123,1150.361z"></path>	<path style="fill:#313246;" d="M1060.534,1238.314c8.622-0.66,17.253-1.214,25.861-2.023c4.434-0.417,8.826-1.284,13.238-1.949  c5.845,19.55,11.69,39.101,17.535,58.652C1098.289,1274.768,1079.411,1256.541,1060.534,1238.314z"></path>	<path style="fill:#1F2237;" d="M1043.123,1150.361c-8.15-7.109-16.466-14.038-24.414-21.366  c-13.958-12.871-27.691-25.987-42.505-39.93c-15.492,18.932-25.878,39.79-34.838,61.485c-8.444-7.878-16.888-15.754-25.333-23.63  c-4.557-3.913-9.114-7.826-13.672-11.738c-6.76-9.89-13.519-19.78-21.032-30.772c-12.275,12.922-23.144,24.364-36.248,38.159  c-2.98-8.682-4.865-14.174-6.752-19.665c11.613-11.555,23.227-23.112,35.102-34.929c2.58,2.147,4.999,4.159,7.418,6.172  c10.948,14.392,21.895,28.783,33.454,43.978c2.776-3.886,4.435-6.207,6.093-8.528c12.859-14.453,25.718-28.905,38.576-43.358  c4.15,3.429,8.526,6.621,12.407,10.331c11.319,10.82,22.441,21.846,34.769,33.895c2.368-3.124,3.904-5.15,5.439-7.177  c5.886-4.558,11.772-9.116,17.658-13.674C1033.872,1109.862,1038.497,1130.112,1043.123,1150.361z"></path>	<path style="fill:#292B3F;" d="M838.331,1102.902c1.885,5.493,3.771,10.985,6.751,19.667  c13.104-13.795,23.973-25.237,36.248-38.159c7.513,10.993,14.272,20.883,21.032,30.772c-2.015,4.311-3.98,8.648-6.076,12.92  c-0.679,1.383-1.407,3.159-2.618,3.798c-11.002,5.812-22.056,11.536-33.221,17.03c-6.748,3.321-13.718,6.191-20.589,9.263  c0-7.328,0-14.655,0-21.982c-0.8-0.556-1.601-1.112-2.401-1.668c-4.552,4.445-8.8,9.282-13.79,13.165  c-2.348,1.827-6.123,1.821-9.251,2.646c1.944-13.666,3.888-27.332,5.832-40.998c0.788-7.689,1.388-15.403,2.405-23.062  c1.697-12.785,3.747-25.524,5.489-38.303c2.613-19.167,5.089-38.353,7.622-57.531c0.068-6.582,0.135-13.164,0.203-19.746  c2.766,0.259,5.531,0.518,8.293,0.773c-0.618,6.734-1.005,13.502-1.884,20.206c-4.068,31.011-8.256,62.006-12.441,93.001  c-0.834,6.175-0.112,11.642,5.967,15.028c0.12,0.518,0.169,1.044,0.146,1.577c0.728,0.683,1.457,1.367,2.185,2.051  L838.331,1102.902z"></path>	<path style="fill:#4E4C5D;" d="M941.386,1158.216c4.498,14.977,8.996,29.954,13.491,44.931c2.043,9.968,4.087,19.936,6.665,32.504  c-4.054-2.952-6.122-4.174-7.854-5.762c-18.305-16.786-28.032-38.269-33.741-61.931c-0.029-3.907-0.059-7.814-0.087-11.72  C927.036,1156.897,934.211,1157.556,941.386,1158.216z"></path>	<path style="fill:#403E50;" d="M941.386,1158.216c-7.175-0.659-14.35-1.318-21.525-1.978c-1.276-9.772-2.552-19.544-3.827-29.317  c8.445,7.875,16.889,15.751,25.333,23.629C941.373,1153.107,941.379,1155.661,941.386,1158.216z"></path>	<path style="fill:#F47531;" d="M1101.548,1583.971c0.437,0.26,0.905,0.347,1.405,0.264c6.137,19.401,12.292,38.795,18.393,58.207  c0.771,2.454,1.255,4.998,1.871,7.501c-27.498,1.446-54.992,3.001-82.5,4.229c-4.438,0.198-8.94-1.057-13.412-1.64  c-2.111-19.802-4.166-39.61-6.35-59.404c-1.69-15.313-3.499-30.614-5.377-45.905c-0.26-2.114-1.221-4.142-1.857-6.209  c0.908-25.425-5.431-48.92-16.174-72.014c-9.666-20.781-16.845-42.761-24.392-64.466c-3.525-10.136-5.329-20.87-7.914-31.333  c1.197-22.633,2.029-45.294,3.696-67.892c1.603-21.739,2.404-43.322-3.717-64.565c26.315,34.851,39.332,75.628,52.867,116.367  c10.474,31.525,23.204,62.294,34.576,93.528c15.932,43.757,31.535,87.634,47.279,131.459  C1100.477,1582.723,1101.013,1583.347,1101.548,1583.971z"></path>	<path style="fill:#292B3F;" d="M1130.679,1665.947c0.482,0.868,0.964,1.737,1.441,2.607  C1131.637,1667.687,1131.158,1666.817,1130.679,1665.947z"></path>	<path style="fill:#AD4734;" d="M973.286,325.921c-0.171,0.848-0.342,1.695-0.515,2.545  C972.942,327.62,973.114,326.771,973.286,325.921z"></path>	<path style="fill:#AD4734;" d="M835.904,1099.723c-6.08-3.386-6.801-8.853-5.968-15.028c4.185-30.995,8.373-61.99,12.441-93.001  c0.879-6.704,1.266-13.472,1.884-20.206c10.256,1.881,20.503,3.792,30.764,5.617c3.736,0.665,7.508,1.127,11.267,1.68  c1.44,0.569,2.876,1.14,4.313,1.711c0.67,0.077,1.339,0.153,2.009,0.228c24.088,4.516,48.176,9.034,72.265,13.552  c3.109,0.71,6.192,1.588,9.333,2.102c15.706,2.569,31.428,5.043,47.144,7.551c0.634,4.565,1.267,9.131,1.9,13.696  c1.996,23.997,3.994,47.995,5.991,71.991c-5.886,4.557-11.772,9.115-17.658,13.673c-0.875-1.263-1.548-2.746-2.654-3.756  c-16.168-14.765-32.402-29.458-48.604-44.185c-10.238-9.306-20.449-18.641-30.672-27.964c-0.651-0.651-1.302-1.302-1.953-1.953  c-0.101-0.234-0.163-0.499-0.317-0.69c-0.089-0.11-0.327-0.1-0.498-0.144c0.296,0.253,0.592,0.507,0.887,0.76  c0.651,0.651,1.302,1.303,1.953,1.954c2.092,3.734,3.746,7.813,6.36,11.136c7.417,9.429,15.227,18.549,22.883,27.791  c-12.859,14.453-25.717,28.905-38.576,43.357c-0.755-3.265-2.196-6.537-2.153-9.79c0.301-22.831,0.908-45.658,1.417-68.486  c0-4.024,0-8.047,0-14.139c-4.149,3.232-6.715,5.016-9.039,7.074c-17.383,15.401-35.163,30.393-51.887,46.482  C849.925,1079.213,837.76,1085.577,835.904,1099.723z"></path>	<path style="fill:#4E4C5D;" d="M970.341,927.567c20.423,7.234,40.893,14.335,61.256,21.735  c28.888,10.497,57.885,20.748,86.373,32.249c5.41,2.184,8.669,9.694,12.921,14.749c-5.66,9.139-14.943,10.852-24.466,11.394  c-8.099,0.461-16.247,0.056-24.374,0.035c-2.519-3.174-4.407-7.464-7.676-9.313c-9.242-5.227-19.055-9.441-28.632-14.078  c-8.222-3.981-16.428-7.996-24.863-12.104c2.778-4.42,4.407-7.012,6.035-9.603c-3.755-0.776-7.812-0.326-8.578,1.503  c-3.707,8.853-10.635,6.734-17.256,5.969c-14.691-1.697-29.371-3.489-44.056-5.242c-13.09-1.995-26.18-3.99-39.271-5.985  c0.18-0.622,0.165-1.585,0.569-1.815C935.639,947.188,952.992,937.381,970.341,927.567z"></path>	<path style="fill:#474354;" d="M957.025,964.86c14.685,1.753,29.365,3.544,44.056,5.242c6.621,0.765,13.549,2.884,17.256-5.969  c0.766-1.829,4.823-2.279,8.578-1.503c-1.629,2.591-3.257,5.183-6.035,9.603c8.434,4.107,16.64,8.122,24.863,12.104  c9.576,4.637,19.39,8.851,28.632,14.078c3.269,1.849,5.157,6.138,7.676,9.313c-20.231-1.267-40.461-2.534-60.693-3.8  c-15.717-2.507-31.439-4.981-47.145-7.551c-3.142-0.514-6.224-1.392-9.333-2.103c0.455-1.157,0.575-2.894,1.417-3.38  c9.269-5.355,5.295-10.488,0.022-15.838C963.092,971.784,960.114,968.267,957.025,964.86z"></path>	<path style="fill:#2E3044;" d="M1070.443,1058.691c2.744-13.441-8.847-18.013-15.762-25.479c1.94,0.093,4.365-0.537,5.745,0.389  c18.919,12.695,40.651,6.859,61.059,9.054c14.749,1.586,29.806,0.278,44.725,0.331c10.006,0.035,10.806,1.007,10.577,13.731  C1141.385,1057.375,1105.914,1058.033,1070.443,1058.691z"></path>	<path style="fill:#FCAC4D;" d="M1213.262,835.944c0.521-0.005,1.041,0,1.561,0.014c-0.718,1.32-1.436,2.64-2.154,3.959  C1212.866,838.593,1213.064,837.269,1213.262,835.944z"></path>	<path style="fill:#313246;" d="M1087.887,620.21c5.83,3.832,8.604,8.1,6.601,16c-3.116,12.291-4.42,25.041-6.492,37.596  c-3.514,18.927-7.029,37.855-10.544,56.783c0.572,0.212,1.144,0.423,1.717,0.634c10.655-11.867,21.31-23.734,32.971-36.721  c0.639,3.219,0.979,4.931,1.32,6.644c-2.701,9.789-5.404,19.577-8.106,29.365c-4.582,1.37-9.206,3.992-13.741,3.846  c-9.065-0.293-19.3,5.268-20.958,14.488c-4.438,24.685-7.943,49.537-12.254,74.246c-0.545,3.126-3.688,5.798-5.627,8.68  c-12.501-0.54-25.003-1.08-37.501-1.62c0.753-4.568,1.503-9.137,2.254-13.706c2.539-2.441,5.546-4.553,7.541-7.379  c11.924-16.899,23.716-33.895,35.304-51.026c2.466-3.646,3.902-7.989,5.812-12.011c0.369-2.532,0.697-5.071,1.114-7.596  c2.918-17.637,5.854-35.271,8.785-52.906C1080.017,663.756,1083.952,641.983,1087.887,620.21z"></path>	<path style="fill:#242539;" d="M1052.775,831.772c1.939-2.882,5.081-5.555,5.627-8.68c4.31-24.709,7.815-49.561,12.254-74.246  c1.658-9.22,11.893-14.781,20.958-14.488c4.534,0.147,9.158-2.476,13.74-3.846c-6.414,28.622-12.827,57.243-19.239,85.865  c-1.424,5.879-2.849,11.758-4.273,17.638C1072.154,833.267,1062.464,832.52,1052.775,831.772z"></path>	<path style="fill:#ED8C60;" d="M1052.775,831.772c9.69,0.748,19.38,1.496,29.067,2.243c-3.391,18.097-6.78,36.195-10.17,54.292  c-2.444,0.922-4.886,1.845-7.328,2.767c-1.638,0.395-3.276,0.79-4.914,1.185c-19.68,1.855-39.36,3.71-59.044,5.568  c-0.176-3.197-0.669-6.417-0.47-9.593c1.549-24.655,0.196-49.634,8.002-73.612c0.547,3.374,0.533,6.989,1.831,10.048  c0.938,2.21,3.618,3.681,5.522,5.482C1027.772,830.692,1040.273,831.232,1052.775,831.772z"></path>	<path style="fill:#35364A;" d="M780.647,948.921c-22.434,3.108-44.874,6.174-67.3,9.339c-16.429,2.319-27.604-2.822-36.017-16.756  c13.701-1.984,27.378-4.158,41.109-5.914c33.931-4.34,67.962-7.97,101.814-12.849c38.973-5.617,77.79-12.313,116.69-18.445  c9.885-1.558,19.826-2.755,29.74-4.121c-2.68,2.692-4.959,7.059-8.102,7.809c-21.259,5.077-42.758,9.14-64.067,14.024  c-18.412,4.219-36.674,9.089-55.003,13.671c-7.81,1.968-15.62,3.936-23.43,5.903C804.269,944.028,792.458,946.474,780.647,948.921z  "></path>	<path style="fill:#CBD7E2;" d="M1007.919,814.625c-7.807,23.975-6.453,48.954-8.003,73.609c-0.2,3.176,0.293,6.396,0.47,9.593  c-8.751,1.948-17.464,4.168-26.306,5.572c-1.413,0.224-3.406-3.206-5.13-4.946c1.231-7.165,2.463-14.33,3.694-21.495  c3.488-20.727,6.976-41.454,10.462-62.18C991.375,814.727,999.647,814.676,1007.919,814.625z"></path>	<path style="fill:#35364A;" d="M835.968,970.714c-0.068,6.582-0.135,13.164-0.201,19.744c-4.473,0.572-9.124,0.552-13.39,1.825  c-16.324,4.87-32.524,10.154-48.77,15.284c2.676-15.266,5.352-30.532,8.028-45.796c1.134-3.06,2.267-6.123,3.401-9.186  c9.737,1.98,19.474,3.96,29.21,5.94c3.786,9.412,12.67,6.791,19.771,8.378C834.668,968.174,835.318,969.444,835.968,970.714z"></path>	<path style="fill:#403E50;" d="M957.025,964.86c3.089,3.407,6.068,6.923,9.293,10.196c5.273,5.35,9.247,10.483-0.022,15.838  c-0.842,0.486-0.962,2.223-1.417,3.38c-24.088-4.517-48.176-9.035-72.264-13.551c0.984-1.523,1.723-4.105,2.993-4.401  c8.426-1.961,15.323-4.929,15.403-15.379c0.005-0.706,4.398-1.378,6.747-2.067C930.844,960.87,943.935,962.865,957.025,964.86z"></path>	<path style="fill:#CBD7E2;" d="M834.018,966.904c-7.101-1.587-15.986,1.035-19.772-8.372c0.611-5.646,1.223-11.298,1.834-16.95  c7.81-1.968,15.62-3.936,23.43-5.903C837.679,946.087,835.848,956.495,834.018,966.904z"></path>	<path style="fill:#403E50;" d="M890.606,980.496c-1.437-0.571-2.873-1.142-4.313-1.711  C887.728,979.357,889.167,979.926,890.606,980.496z"></path>	<path style="fill:#35364A;" d="M1059.43,892.259c1.638-0.395,3.276-0.79,4.914-1.185  C1062.706,891.469,1061.068,891.864,1059.43,892.259z"></path>	<path style="fill:#605F72;" d="M983.108,814.777c-3.488,20.727-6.976,41.454-10.464,62.18c-7.151-0.107-14.333-0.689-21.446-0.222  c-14.396,0.946-28.754,2.46-43.019,3.731c0-5.727,0.39-11.119-0.182-16.406c-0.247-2.28-2.694-6.259-3.779-6.141  c-3.031,0.331-8.465,2.535-8.401,3.759c0.975,18.421-11.451,20.068-24.897,20.698c-0.628,0.029-1.266-0.161-2.601-0.347  c-0.357-1.892-0.379-4.163-1.235-6.056c-1.339-2.96-3.243-5.664-4.908-8.476c-2.32,2.039-6.015,3.685-6.728,6.182  c-3.399,11.914-11.961,11.965-22.024,10.5c-0.427-1.381-0.774-2.9-1.361-4.32c-1.447-3.504-3.004-6.963-4.517-10.44  c-2.619,2.95-6.473,5.496-7.595,8.935c-2.23,6.833-6.129,8.517-12.922,8.55c-15.508,0.076-31.007,1.368-46.519,1.682  c-12.066,0.244-13.902-1.998-11.281-13.76c1.295-5.813-0.303-7.759-6.019-7.689c-10.546,0.13-21.163,0.633-31.621-0.369  c-6.241-0.598-14.064-0.66-16.259-9.306c25.055-13.774,52.96-17.897,80.404-23.339c15.967-3.166,32.186-5.066,48.292-7.537  c2.025-0.246,4.048-0.492,6.071-0.733c13.846-1.278,27.694-2.559,41.542-3.841c20.702-1.884,41.404-3.767,62.106-5.651  c3.189-0.097,6.378-0.195,9.566-0.292c2.044-0.031,4.088-0.063,6.132-0.096c0.596,0.097,1.194,0.122,1.794,0.074  C961.86,815.625,972.484,815.201,983.108,814.777z"></path>	<path style="fill:#605F72;" d="M1076.083,685.529c-2.931,17.635-5.867,35.269-8.785,52.906c-0.418,2.524-0.745,5.063-1.112,7.596  c-13.797-2.307-27.595-4.615-40.588-6.789c-2.268,3.959-4.214,7.357-6.161,10.755c-0.133-1.368-0.267-2.735-0.4-4.103  c2.257-29.835,4.514-59.669,6.771-89.503c3.334,7.996,9.262,11.01,17.946,11.969c6.207,0.686,12.189,4.654,17.95,7.755  C1066.73,678.819,1071.307,682.359,1076.083,685.529z"></path>	<path style="fill:#AD4734;" d="M1019.037,745.895c0.133,1.368,0.267,2.735,0.401,4.103c-0.636,22.149-1.273,44.299-1.91,66.448  c-0.75,4.569-1.5,9.137-2.254,13.706c-1.906-1.801-4.587-3.272-5.525-5.482c-1.298-3.058-1.284-6.673-1.831-10.048  c-8.271,0.053-16.543,0.104-24.812,0.155c-10.622,0.424-21.246,0.848-31.867,1.27c12.742-2.643,17.489-14.455,25.237-22.587  C991.146,778.065,1004.901,761.799,1019.037,745.895z"></path>	<path style="fill:#313246;" d="M1081.988,617.141c1.587,0.677,3.173,1.354,4.766,2.03  C1085.17,618.495,1083.579,617.818,1081.988,617.141z"></path>	<path style="fill:#313246;" d="M1080.044,615.177c0.681,0.681,1.361,1.362,2.042,2.044  C1081.405,616.54,1080.725,615.859,1080.044,615.177z"></path>	<path style="fill:#FB903C;" d="M943.313,816.07c-3.189,0.097-6.378,0.195-9.568,0.292c-11.833-14.028-23.513-28.188-35.546-42.041  c-9.478-10.911-19.392-21.442-29.112-32.142c-0.22-0.73-0.44-1.461-0.659-2.191c5.342-29.388,10.627-58.786,16.044-88.159  c3.938-21.352,8.05-42.673,12.084-64.008c0,0-0.12,0.171-0.119,0.171c0.541-0.268,0.781-0.708,0.72-1.318  c1.268-5.612,2.535-11.224,3.803-16.836c1.123,9.761,2.155,19.534,3.386,29.281c5.586,44.209,11.229,88.411,16.849,132.62  c6.287,24.07,12.572,48.137,18.867,72.201C941.122,807.989,942.228,812.027,943.313,816.07z"></path>	<path style="fill:#4E4C5D;" d="M820.248,1109.356c-1.944,13.666-3.888,27.332-5.832,40.998c-2.524,7.246-5.382,14.397-7.503,21.76  c-4.493,15.597-14.345,24.735-30.522,27.259c-15.25,2.379-30.434,5.181-45.647,7.798c10.099-46.64,20.199-93.282,30.302-139.918  c2.046,0.366,4.088,0.727,4.502,0.8c2.226,5.532,2.801,11.596,6.122,14.354c10.218,8.485,22.043,15.055,32.127,23.675  C809.348,1110.828,814.013,1111.969,820.248,1109.356z"></path>	<path style="fill:#575667;" d="M820.248,1109.356c-6.235,2.613-10.9,1.472-16.452-3.274c-10.084-8.62-21.908-15.19-32.127-23.675  c-3.321-2.758-3.896-8.822-6.122-14.354c-0.414-0.073-2.456-0.434-4.502-0.8c4.184-19.897,8.372-39.79,12.561-59.684  c16.246-5.132,32.446-10.417,48.77-15.286c4.266-1.273,8.917-1.253,13.39-1.825c-2.536,19.18-5.011,38.366-7.624,57.533  c-1.742,12.78-3.793,25.518-5.489,38.303C821.637,1093.953,821.036,1101.667,820.248,1109.356z"></path>	<path style="fill:#FABD8D;" d="M728.277,796.765c0.051-3.56-0.588-10.034,0.26-10.235c9.858-2.336,5.927-24.048,22.592-16.105  c0.514,0.245,1.216,0.097,2.652,0.18c0.568-8.069,4.776-12.194,13.322-10.354c5.679,1.872,11.356,3.744,17.033,5.617  c7.635,6.441,15.27,12.883,22.905,19.324c-3.495,6.288-7.157,12.228-15.883,7.616c-0.662-0.629-1.32-1.263-1.978-1.896  c-2.611-1.305-5.223-2.611-7.836-3.914c-0.33-0.282-0.659-0.566-0.987-0.85c0.271,0.343,0.541,0.685,0.812,1.028  c2.593,1.323,5.186,2.646,7.782,3.966c0.641,0.65,1.279,1.304,1.917,1.958c2.871,4.788,1.361,7.612-4.05,7.545  c-3.055-0.038-6.209-1.142-9.116-2.282c-7.998-3.138-15.89-6.549-23.824-9.852c-0.379,0.876-0.759,1.752-1.138,2.629  c9.588,5.973,19.177,11.946,28.765,17.919c-14.71,7.105-25.818,1.969-36.843-4.614C739.51,801.367,733.758,799.293,728.277,796.765  z"></path>	<path style="fill:#ED8C60;" d="M728.277,796.765c5.481,2.528,11.233,4.602,16.386,7.679c11.025,6.583,22.133,11.718,36.843,4.614  c-9.588-5.973-19.177-11.946-28.765-17.919c0.379-0.876,0.759-1.752,1.138-2.629c7.934,3.303,15.825,6.714,23.824,9.852  c2.907,1.14,6.061,2.244,9.116,2.282c5.411,0.067,6.922-2.757,4.054-7.548c0.004-0.003,0.29-0.292,0.29-0.292  c8.722,4.617,12.384-1.324,15.877-7.612c2.375,2.637,4.752,5.276,7.129,7.914c3.282,6.052,6.565,12.105,9.847,18.157  c2.028,4.862,4.056,9.725,6.084,14.587c-2.024,0.246-4.047,0.491-6.072,0.737c-20.087,0.911-40.172,1.821-60.259,2.731  c-1.389-2.607-2.123-6.131-4.276-7.664c-10.129-7.21-20.647-13.873-31.026-20.732C728.404,799.537,728.34,798.151,728.277,796.765z  "></path>	<path style="fill:#403E50;" d="M784.137,765.867c-5.677-1.873-11.355-3.745-17.033-5.617c4.549-29.205,9.181-58.399,13.598-87.626  c1.199-7.934,1.751-15.967,2.601-23.951c0.59,2.387,1.41,4.741,1.731,7.16c2.009,15.161,3.906,30.336,5.841,45.505  c-0.604,1.736-1.664,3.452-1.743,5.213c-0.765,16.971-1.244,33.957-2.131,50.921C786.85,760.314,785.13,763.072,784.137,765.867z"></path>	<path style="fill:#FABD8D;" d="M728.467,800.922c10.379,6.858,20.897,13.522,31.026,20.732c2.153,1.532,2.887,5.057,4.276,7.664  c-11.112,0.809-22.225,1.617-33.339,2.425c-3.367-6.442-6.734-12.884-10.099-19.325c0.065-2.581,0.13-5.162,0.194-7.744  c0.696-0.796,1.391-1.592,2.087-2.389C724.563,801.829,726.515,801.376,728.467,800.922z"></path>	<path style="fill:#ED8C60;" d="M816.08,941.582c-0.612,5.652-1.223,11.304-1.834,16.95c-9.736-1.986-19.472-3.966-29.209-5.946  c-1.462-1.221-2.923-2.442-4.387-3.664C792.458,946.474,804.269,944.028,816.08,941.582z"></path>	<path style="fill:#706F7F;" d="M720.524,804.674c-0.064,2.582-0.129,5.163-0.194,7.744  C717.198,809.756,713.655,807.084,720.524,804.674z"></path>	<path style="fill:#605F72;" d="M820.09,693.443c10.995-9.642,24.683-10.455,38.198-11.017c4.795-0.199,9.689,1.99,14.539,3.088  c-2.649,15.564-5.299,31.127-7.946,46.693c-1.129,2.12-2.26,4.238-3.394,6.353c-13.036-0.76-26.07-1.517-39.103-2.274  C821.619,722.005,820.855,707.724,820.09,693.443z"></path>	<path style="fill:#242539;" d="M784.137,765.867c0.994-2.796,2.714-5.554,2.862-8.394c0.888-16.964,1.366-33.949,2.131-50.921  c0.079-1.761,1.139-3.477,1.743-5.213c6.58,12.239,13.16,24.476,19.741,36.716c1.294,3.292,2.588,6.583,3.882,9.874  c0.609,13.07,1.319,26.136,1.72,39.211c0.06,1.965-1.329,3.975-2.048,5.964c-2.377-2.639-4.753-5.277-7.129-7.914  C799.406,778.75,791.771,772.309,784.137,765.867z"></path>	<path style="fill:#313246;" d="M864.878,732.206c2.65-15.563,5.3-31.127,7.949-46.691c3.408-17.368,6.818-34.737,10.23-52.098  c3.775-13.85,7.517-27.714,11.363-41.55c0.399-1.436,1.409-2.701,2.136-4.046c-4.034,21.334-8.146,42.655-12.084,64.007  c-5.417,29.374-10.702,58.772-16.044,88.16C867.244,737.394,866.061,734.8,864.878,732.206z"></path>	<path style="fill:#35364A;" d="M814.497,747.929c-1.294-3.29-2.589-6.58-3.883-9.873c0.641-3.356,1.82-6.706,1.839-10.063  c0.152-27.096,0.085-54.194,0.085-81.291c1.186-0.018,2.372-0.035,3.559-0.053c0.764,12.189,1.453,24.384,2.341,36.564  c0.25,3.432,1.088,6.82,1.654,10.229c0.762,14.282,1.527,28.563,2.29,42.845c-1.065,3.914-2.129,7.827-3.193,11.74  C817.626,747.994,816.062,747.961,814.497,747.929z"></path>	<path style="fill:#2E3044;" d="M837.943,601.261c4.56,1.445,9.27,2.564,13.587,4.541c1.239,0.568,1.344,3.613,1.968,5.522  c-4.351,3.769-8.703,7.537-13.455,11.654c-5.247-3.299-10.322-6.49-17.733-11.149C828.564,607.601,833.253,604.431,837.943,601.261  z"></path>	<path style="fill:#656678;" d="M858.001,573.736c-1.403,1.371-2.806,2.743-4.209,4.114c-0.837-0.725-1.673-1.449-2.51-2.174  c1.233-1.757,2.466-3.513,3.699-5.27C855.988,571.517,856.995,572.626,858.001,573.736z"></path>	<path style="fill:#313246;" d="M897.156,586.674c0.061,0.611-0.178,1.05-0.72,1.318  C896.727,587.579,896.967,587.139,897.156,586.674z"></path>	<path style="fill:#474354;" d="M1101.548,1583.971c-0.536-0.624-1.071-1.249-1.606-1.873  C1100.478,1582.723,1101.013,1583.347,1101.548,1583.971z"></path>	<path style="fill:#FB903C;" d="M919.661,1031.319c-0.509,22.828-1.117,45.655-1.417,68.486c-0.043,3.253,1.399,6.525,2.153,9.79  c-1.659,2.323-3.317,4.644-6.093,8.53c-11.558-15.195-22.506-29.586-33.453-43.977c3.45-5.533,5.631-13.46,10.614-16.101  c10.238-5.427,17.175-12.406,21.283-23.042C913.459,1033.161,917.278,1032.517,919.661,1031.319z"></path>	<path style="fill:#F47531;" d="M919.661,1031.319c-2.384,1.198-6.202,1.842-6.914,3.686c-4.108,10.635-11.045,17.614-21.283,23.042  c-4.983,2.641-7.164,10.568-10.614,16.101c-2.419-2.013-4.838-4.026-7.418-6.173c-11.875,11.817-23.489,23.374-35.102,34.929  c0.001-0.002-0.095,0.446-0.096,0.445c-0.729-0.684-1.456-1.367-2.183-2.05c0.023-0.532-0.026-1.058-0.146-1.577  c1.855-14.145,14.021-20.509,22.832-28.986c16.724-16.089,34.504-31.081,51.887-46.482c2.323-2.058,4.89-3.843,9.039-7.074  C919.661,1023.271,919.661,1027.295,919.661,1031.319z"></path>	<path style="fill:#F47531;" d="M958.973,1066.238c-7.655-9.242-15.465-18.362-22.883-27.791c-2.614-3.323-4.268-7.402-6.36-11.136  c0,0-0.071,0.072-0.071,0.072c10.223,9.322,20.435,18.657,30.672,27.963c16.202,14.728,32.436,29.421,48.604,44.185  c1.106,1.01,1.779,2.493,2.654,3.755c-1.536,2.026-3.072,4.052-5.44,7.176c-12.328-12.048-23.45-23.075-34.769-33.895  C967.499,1072.859,963.123,1069.667,958.973,1066.238z"></path>	<path style="fill:#1F2237;" d="M836.05,1101.299c0.727,0.683,1.455,1.366,2.183,2.05  C837.507,1102.666,836.779,1101.982,836.05,1101.299z"></path>	<path style="fill:#F47531;" d="M927.705,1025.43c0.651,0.651,1.302,1.302,1.953,1.953c0,0,0.071-0.072,0.071-0.072  c-0.651-0.651-1.302-1.303-1.953-1.954L927.705,1025.43z"></path>	<path style="fill:#F47531;" d="M927.777,1025.357c-0.296-0.253-0.591-0.507-0.887-0.76c0.171,0.044,0.409,0.034,0.498,0.144  c0.154,0.19,0.217,0.456,0.317,0.69C927.705,1025.43,927.777,1025.357,927.777,1025.357z"></path>	<path style="fill:#575667;" d="M1017.527,816.446c0.637-22.149,1.274-44.299,1.91-66.448c1.946-3.398,3.892-6.796,6.16-10.755  c12.993,2.173,26.792,4.481,40.588,6.789c-1.912,4.021-3.348,8.364-5.814,12.01c-11.587,17.132-23.379,34.127-35.304,51.026  C1023.073,811.893,1020.066,814.005,1017.527,816.446z"></path>	<path style="fill:#AD4734;" d="M869.087,742.179c9.72,10.7,19.635,21.231,29.112,32.142c12.033,13.853,23.713,28.013,35.546,42.041  c-20.701,1.884-41.403,3.767-62.109,5.653c-1.322-2.197-2.323-4.683-4.012-6.546c-7.246-7.996-9.401-16.471-6.747-27.473  c3.305-13.699,4.303-27.955,6.297-41.97c0.687-0.296,0.901-0.758,0.644-1.384C868.241,743.821,868.664,743,869.087,742.179z"></path>	<path style="fill:#2E3044;" d="M869.087,742.179c-0.423,0.821-0.845,1.642-1.26,2.457c-0.315,0.41-0.534,0.876-0.651,1.39  c-1.994,14.015-2.992,28.271-6.297,41.97c-2.654,11.002-0.5,19.477,6.747,27.473c1.689,1.863,2.69,4.349,4.012,6.546  c-13.843,1.28-27.691,2.561-41.537,3.839c-2.027-4.866-4.055-9.729-6.083-14.592c-0.479-17.283-0.957-34.564-1.436-51.846  c9.627,10.974,19.253,21.947,30.577,34.855c3.012-20.139,5.672-37.923,8.332-55.707c1.131-2.118,2.263-4.236,3.391-6.356  c1.18,2.592,2.364,5.187,3.547,7.781C868.647,740.718,868.867,741.448,869.087,742.179z"></path>	<path style="fill:#ED8C60;" d="M781.347,786.996c2.611,1.305,5.223,2.611,7.834,3.916l-0.231,0.233  c-2.593-1.323-5.186-2.646-7.779-3.969L781.347,786.996z"></path>	<path style="fill:#ED8C60;" d="M781.17,787.175c-0.271-0.343-0.541-0.685-0.812-1.028c0.328,0.284,0.657,0.568,0.987,0.85  C781.347,786.996,781.17,787.175,781.17,787.175z"></path>	<path style="fill:#ED8C60;" d="M789.181,790.911c0.658,0.634,1.316,1.267,1.978,1.896c0.004-0.005-0.282,0.285-0.286,0.288  c-0.641-0.651-1.279-1.304-1.92-1.955C788.95,791.144,789.181,790.911,789.181,790.911z"></path>	<path style="fill:#1F2237;" d="M822.58,759.416c0.479,17.281,0.958,34.563,1.436,51.846c-3.283-6.051-6.565-12.104-9.848-18.156  c0.719-1.989,2.108-3.999,2.048-5.964c-0.4-13.075-1.111-26.141-1.72-39.211c1.565,0.031,3.129,0.064,4.684,0.099  C820.308,751.825,821.444,755.62,822.58,759.416z"></path>	<path style="fill:#575667;" d="M822.58,759.416c-1.136-3.795-2.272-7.59-3.399-11.387c1.073-3.915,2.136-7.828,3.201-11.742  c13.035,0.757,26.069,1.514,39.105,2.273c-2.658,17.787-5.318,35.572-8.33,55.71C841.833,781.363,832.207,770.389,822.58,759.416z"></path>	<path style="fill:#313246;" d="M867.175,746.026c0.117-0.514,0.336-0.98,0.651-1.39  C868.076,745.268,867.862,745.729,867.175,746.026z"></path></g></svg>